<?xml version="1.0" encoding="UTF-8"?>
<!DOCTYPE svg PUBLIC "-//W3C//DTD SVG 1.1//EN" "http://www.w3.org/Graphics/SVG/1.1/DTD/svg11.dtd">
<svg xmlns="http://www.w3.org/2000/svg" version="1.1" width="536px" height="537px" style="shape-rendering:geometricPrecision; text-rendering:geometricPrecision; image-rendering:optimizeQuality; fill-rule:evenodd; clip-rule:evenodd" xmlns:xlink="http://www.w3.org/1999/xlink">
<g><path style="opacity:1" fill="#000000" d="M 13.5,-0.5 C 183.5,-0.5 353.5,-0.5 523.5,-0.5C 529.167,1.83333 533.167,5.83333 535.5,11.5C 535.5,29.8333 535.5,48.1667 535.5,66.5C 357.5,66.5 179.5,66.5 1.5,66.5C 1.33339,48.1636 1.50006,29.8303 2,11.5C 4.01885,5.64984 7.85218,1.64984 13.5,-0.5 Z"/></g>
<g><path style="opacity:1" fill="#000000" d="M 535.5,99.5 C 535.5,240.167 535.5,380.833 535.5,521.5C 533.35,527.148 529.35,530.981 523.5,533C 353.5,533.667 183.5,533.667 13.5,533C 7.66667,531.167 3.83333,527.333 2,521.5C 1.5,380.834 1.33333,240.167 1.5,99.5C 179.5,99.5 357.5,99.5 535.5,99.5 Z M 198.5,133.5 C 201.91,133.457 205.243,133.957 208.5,135C 252.665,162.917 296.999,190.584 341.5,218C 355.101,228.743 354.768,239.077 340.5,249C 297.833,275.667 255.167,302.333 212.5,329C 199.997,335.723 191.164,332.556 186,319.5C 185.333,261.833 185.333,204.167 186,146.5C 188.353,140.315 192.52,135.982 198.5,133.5 Z M 114.5,400.5 C 124.289,399.305 130.789,403.305 134,412.5C 134.5,419.492 134.666,426.492 134.5,433.5C 241.167,433.333 347.834,433.5 454.5,434C 466.193,437.887 470.026,445.72 466,457.5C 464.093,461.039 461.26,463.539 457.5,465C 349.834,465.5 242.167,465.667 134.5,465.5C 134.906,473.917 134.406,482.251 133,490.5C 123.333,502.5 113.667,502.5 104,490.5C 102.594,482.251 102.094,473.917 102.5,465.5C 94.8261,465.666 87.1594,465.5 79.5,465C 69.0695,459.142 66.5695,450.976 72,440.5C 73.8734,438.291 76.04,436.458 78.5,435C 86.4295,433.637 94.4295,433.137 102.5,433.5C 102.099,425.415 102.599,417.415 104,409.5C 106.489,405.168 109.989,402.168 114.5,400.5 Z"/></g>
</svg>
