<?xml version="1.0" encoding="UTF-8"?>
<!DOCTYPE svg PUBLIC "-//W3C//DTD SVG 1.1//EN" "http://www.w3.org/Graphics/SVG/1.1/DTD/svg11.dtd">
<svg xmlns="http://www.w3.org/2000/svg" version="1.1" width="309px" height="600px" style="shape-rendering:geometricPrecision; text-rendering:geometricPrecision; image-rendering:optimizeQuality; fill-rule:evenodd; clip-rule:evenodd" xmlns:xlink="http://www.w3.org/1999/xlink">
<g><path style="opacity:1" fill="#000000" d="M 10.5,-0.5 C 105.833,-0.5 201.167,-0.5 296.5,-0.5C 302.311,2.64232 306.311,7.30898 308.5,13.5C 308.5,204.167 308.5,394.833 308.5,585.5C 306.311,591.691 302.311,596.358 296.5,599.5C 201.167,599.5 105.833,599.5 10.5,599.5C 5.83333,596.833 2.16667,593.167 -0.5,588.5C -0.5,395.833 -0.5,203.167 -0.5,10.5C 2.16667,5.83333 5.83333,2.16667 10.5,-0.5 Z M 50.5,57.5 C 120.501,57.3333 190.501,57.5 260.5,58C 268.842,62.026 271.008,68.1927 267,76.5C 264.805,78.9304 262.138,80.5971 259,81.5C 189.237,80.6684 119.404,80.1684 49.5,80C 42.2,76.5618 40.0334,71.0618 43,63.5C 45.1337,60.8474 47.6337,58.8474 50.5,57.5 Z M 48.5,138.5 C 119.501,138.333 190.501,138.5 261.5,139C 269.227,143.665 270.894,149.831 266.5,157.5C 264.287,159.774 261.621,161.274 258.5,162C 189.5,162.667 120.5,162.667 51.5,162C 41.5285,159.079 38.6952,152.912 43,143.5C 44.7297,141.598 46.563,139.931 48.5,138.5 Z M 152.5,424.5 C 173.37,426.37 185.037,437.703 187.5,458.5C 185.167,478.833 173.833,490.167 153.5,492.5C 133.167,490.167 121.833,478.833 119.5,458.5C 121.802,438.533 132.802,427.2 152.5,424.5 Z"/></g>
</svg>
