<?xml version="1.0" encoding="UTF-8"?>
<!DOCTYPE svg PUBLIC "-//W3C//DTD SVG 1.1//EN" "http://www.w3.org/Graphics/SVG/1.1/DTD/svg11.dtd">
<svg xmlns="http://www.w3.org/2000/svg" version="1.1" width="530px" height="340px" style="shape-rendering:geometricPrecision; text-rendering:geometricPrecision; image-rendering:optimizeQuality; fill-rule:evenodd; clip-rule:evenodd" xmlns:xlink="http://www.w3.org/1999/xlink">
<g><path style="opacity:1" fill="#000000" d="M 7.5,-0.5 C 86.8333,-0.5 166.167,-0.5 245.5,-0.5C 253.747,5.07111 255.247,12.0711 250,20.5C 247.932,22.5615 245.432,23.7282 242.5,24C 169.834,24.5 97.1674,24.6667 24.5,24.5C 24.5,36.1667 24.5,47.8333 24.5,59.5C 184.541,59.0475 344.541,59.0475 504.5,59.5C 504.5,47.8333 504.5,36.1667 504.5,24.5C 431.833,24.6667 359.166,24.5 286.5,24C 276.394,20.7917 273.561,14.2917 278,4.5C 279.73,2.59809 281.563,0.93142 283.5,-0.5C 362.833,-0.5 442.167,-0.5 521.5,-0.5C 524.139,1.30904 526.306,3.64238 528,6.5C 528.667,29.8333 528.667,53.1667 528,76.5C 526.5,79.3333 524.333,81.5 521.5,83C 515.928,84.3507 510.262,84.8507 504.5,84.5C 504.667,165.834 504.5,247.167 504,328.5C 498.393,337.147 491.393,338.48 483,332.5C 482.333,331.167 481.667,329.833 481,328.5C 480.5,315.171 480.333,301.837 480.5,288.5C 424.166,288.667 367.832,288.5 311.5,288C 307.509,287.588 304.342,285.754 302,282.5C 300.507,216.583 300.007,150.583 300.5,84.5C 216.5,84.5 132.5,84.5 48.5,84.5C 48.6667,165.834 48.5,247.167 48,328.5C 42.6711,336.832 35.8378,338.332 27.5,333C 26.5399,331.581 25.7065,330.081 25,328.5C 24.5,247.167 24.3333,165.834 24.5,84.5C 17.9386,85.0814 11.6053,84.248 5.5,82C 2.02657,79.207 0.0265665,75.707 -0.5,71.5C -0.5,51.5 -0.5,31.5 -0.5,11.5C 0.147907,6.21696 2.81457,2.21696 7.5,-0.5 Z M 324.5,84.5 C 376.5,84.5 428.5,84.5 480.5,84.5C 480.5,110.167 480.5,135.833 480.5,161.5C 428.5,161.5 376.5,161.5 324.5,161.5C 324.5,135.833 324.5,110.167 324.5,84.5 Z M 324.5,186.5 C 376.5,186.5 428.5,186.5 480.5,186.5C 480.5,212.167 480.5,237.833 480.5,263.5C 428.5,263.5 376.5,263.5 324.5,263.5C 324.5,237.833 324.5,212.167 324.5,186.5 Z"/></g>
</svg>
