<?xml version="1.0" encoding="UTF-8"?>
<!DOCTYPE svg PUBLIC "-//W3C//DTD SVG 1.1//EN" "http://www.w3.org/Graphics/SVG/1.1/DTD/svg11.dtd">
<svg xmlns="http://www.w3.org/2000/svg" version="1.1" width="600px" height="598px" style="shape-rendering:geometricPrecision; text-rendering:geometricPrecision; image-rendering:optimizeQuality; fill-rule:evenodd; clip-rule:evenodd" xmlns:xlink="http://www.w3.org/1999/xlink">
<g><path style="opacity:1" fill="#000000" d="M 599.5,300.5 C 599.5,362.167 599.5,423.833 599.5,485.5C 598.017,489.147 595.35,491.647 591.5,493C 569.169,493.5 546.836,493.667 524.5,493.5C 523.212,520.239 509.545,536.739 483.5,543C 451.167,543.333 418.833,543.667 386.5,544C 379.906,568.927 364.239,584.927 339.5,592C 322.879,593.592 306.212,593.925 289.5,593C 259.798,586.631 242.298,568.464 237,538.5C 234.74,509.514 246.24,488.014 271.5,474C 276.363,471.934 281.363,470.268 286.5,469C 301.13,467.46 315.797,467.127 330.5,468C 359.414,472.579 378.081,488.912 386.5,517C 417.833,517.667 449.167,517.667 480.5,517C 491.79,513.276 497.957,505.443 499,493.5C 499.667,399.167 499.667,304.833 499,210.5C 497.822,170.499 484.155,135.499 458,105.5C 402.381,45.2935 334.214,22.4601 253.5,37C 200.256,51.2788 157.756,80.7788 126,125.5C 112.519,146.606 104.186,169.606 101,194.5C 99.7055,291.487 99.0388,388.487 99,485.5C 97.8333,489.333 95.3333,491.833 91.5,493C 63.5,493.667 35.5,493.667 7.5,493C 4.03864,491.695 1.37197,489.529 -0.5,486.5C -0.5,424.5 -0.5,362.5 -0.5,300.5C 1.79717,296.713 5.13051,294.213 9.5,293C 31.1641,292.5 52.8308,292.333 74.5,292.5C 74.3333,259.165 74.5,225.832 75,192.5C 80.4034,151.909 96.4034,116.243 123,85.5C 185.086,19.3405 260.919,-5.49285 350.5,11C 420.789,28.3688 472.956,68.8688 507,132.5C 516.089,151.521 521.755,171.521 524,192.5C 524.5,225.832 524.667,259.165 524.5,292.5C 546.169,292.333 567.836,292.5 589.5,293C 593.869,294.213 597.203,296.713 599.5,300.5 Z"/></g>
</svg>
