<?xml version="1.0" encoding="UTF-8"?>
<!DOCTYPE svg PUBLIC "-//W3C//DTD SVG 1.1//EN" "http://www.w3.org/Graphics/SVG/1.1/DTD/svg11.dtd">
<svg xmlns="http://www.w3.org/2000/svg" version="1.1" width="340px" height="543px" style="shape-rendering:geometricPrecision; text-rendering:geometricPrecision; image-rendering:optimizeQuality; fill-rule:evenodd; clip-rule:evenodd" xmlns:xlink="http://www.w3.org/1999/xlink">
<g><path style="opacity:1" fill="#000000" d="M 156.5,-0.5 C 165.167,-0.5 173.833,-0.5 182.5,-0.5C 225.664,8.8354 249.831,35.5021 255,79.5C 255.667,147.167 255.667,214.833 255,282.5C 248.103,332.229 219.603,359.229 169.5,363.5C 119.388,359.22 90.888,332.22 84,282.5C 83.3333,214.833 83.3333,147.167 84,79.5C 89.1978,35.4757 113.364,8.80902 156.5,-0.5 Z"/></g>
<g><path style="opacity:1" fill="#000000" d="M 339.5,253.5 C 339.5,263.167 339.5,272.833 339.5,282.5C 334.758,347.503 304.091,396.003 247.5,428C 228.53,437.379 208.53,443.212 187.5,445.5C 187.5,464.833 187.5,484.167 187.5,503.5C 225.501,503.333 263.501,503.5 301.5,504C 312.983,509.417 316.483,518.25 312,530.5C 309.685,534.817 306.185,537.65 301.5,539C 213.5,539.667 125.5,539.667 37.5,539C 26.0173,533.583 22.5173,524.75 27,512.5C 29.3151,508.183 32.8151,505.35 37.5,504C 75.4985,503.5 113.499,503.333 151.5,503.5C 151.5,484.167 151.5,464.833 151.5,445.5C 83.2876,435.82 36.1209,399.154 10,335.5C 4.00884,318.524 0.508836,301.191 -0.5,283.5C -0.5,273.5 -0.5,263.5 -0.5,253.5C 2.9084,240.78 11.2417,235.614 24.5,238C 30.3333,239.833 34.1667,243.667 36,249.5C 36.0213,266.9 37.0213,284.234 39,301.5C 49.4051,350.572 77.9051,384.405 124.5,403C 186.72,421.163 237.887,404.997 278,354.5C 289.029,338.424 296.363,320.757 300,301.5C 301.948,284.229 302.948,266.895 303,249.5C 308.558,238.148 317.392,234.648 329.5,239C 334.722,242.635 338.055,247.468 339.5,253.5 Z"/></g>
</svg>
