<?xml version="1.0" encoding="UTF-8"?>
<!DOCTYPE svg PUBLIC "-//W3C//DTD SVG 1.1//EN" "http://www.w3.org/Graphics/SVG/1.1/DTD/svg11.dtd">
<svg xmlns="http://www.w3.org/2000/svg" version="1.1" width="336px" height="546px" style="shape-rendering:geometricPrecision; text-rendering:geometricPrecision; image-rendering:optimizeQuality; fill-rule:evenodd; clip-rule:evenodd" xmlns:xlink="http://www.w3.org/1999/xlink">
<g><path style="opacity:1" fill="#000000" d="M 32.5,-0.5 C 123.167,-0.5 213.833,-0.5 304.5,-0.5C 322.714,4.71383 333.047,16.7138 335.5,35.5C 335.5,191.5 335.5,347.5 335.5,503.5C 333.196,522.237 322.863,534.07 304.5,539C 213.833,539.667 123.167,539.667 32.5,539C 14.5701,534.401 4.4034,522.901 2,504.5C 1.33333,348.167 1.33333,191.833 2,35.5C 4.1304,16.5466 14.2971,4.54663 32.5,-0.5 Z M 162.5,41.5 C 187.452,40.716 202.952,52.3827 209,76.5C 210.213,100.903 199.047,116.403 175.5,123C 150.362,125.015 134.529,113.849 128,89.5C 126.543,64.052 138.043,48.052 162.5,41.5 Z M 154.5,249.5 C 206.529,246.265 246.696,266.265 275,309.5C 299.466,354.979 298.132,399.645 271,443.5C 237.81,487.461 193.977,504.294 139.5,494C 88.208,479.266 57.0413,445.766 46,393.5C 40.0666,348.628 53.5666,310.794 86.5,280C 106.357,263.548 129.024,253.382 154.5,249.5 Z"/></g>
<g><path style="opacity:1" fill="#000000" d="M 160.5,331.5 C 186.965,329.299 203.465,340.966 210,366.5C 211.934,392.816 200.1,408.982 174.5,415C 149.109,416.562 133.276,405.062 127,380.5C 124.796,354.882 135.962,338.548 160.5,331.5 Z"/></g>
</svg>
