<?xml version="1.0" standalone="no"?>
<!DOCTYPE svg PUBLIC "-//W3C//DTD SVG 20010904//EN"
 "http://www.w3.org/TR/2001/REC-SVG-20010904/DTD/svg10.dtd">
<svg version="1.0" xmlns="http://www.w3.org/2000/svg"
 width="439.000000pt" height="604.000000pt" viewBox="0 0 439.000000 604.000000"
 preserveAspectRatio="xMidYMid meet">
<metadata>
Created by potrace 1.15, written by Peter Selinger 2001-2017
</metadata>
<g transform="translate(0.000000,604.000000) scale(0.100000,-0.100000)"
fill="#000000" stroke="none">
<path d="M1985 6029 c-771 -81 -1437 -586 -1724 -1306 -315 -791 -113 -1709
503 -2291 227 -214 471 -361 771 -463 l110 -38 3 -625 2 -626 -765 0 c-832 0
-809 2 -854 -56 -21 -27 -22 -33 -19 -255 3 -253 4 -256 78 -306 l33 -23 2080
0 2080 0 34 21 c66 41 73 71 73 314 0 241 -4 260 -64 289 -31 14 -112 16 -800
16 l-766 0 2 626 3 626 115 39 c300 101 574 272 800 499 428 428 645 999 609
1606 -61 1027 -850 1848 -1878 1953 -118 12 -308 12 -426 0z m1373 -699 c58
-26 88 -89 72 -149 -19 -72 -96 -114 -165 -91 -38 13 -82 58 -91 97 -15 58 32
134 92 153 41 12 44 12 92 -10z m-875 -294 c610 -159 975 -792 801 -1392 -54
-188 -142 -333 -288 -480 -194 -194 -407 -296 -676 -325 -540 -59 -1052 300
-1197 838 -24 88 -27 115 -27 273 0 157 3 185 26 272 56 205 151 372 298 518
167 168 362 270 602 316 115 22 339 12 461 -20z"/>
<path d="M2055 4645 c-110 -24 -244 -95 -327 -173 -146 -137 -218 -292 -225
-487 -6 -143 12 -231 73 -355 79 -158 225 -288 393 -346 105 -36 216 -49 321
-35 175 22 287 78 415 206 75 74 98 105 132 175 55 113 73 193 73 322 0 316
-185 573 -485 673 -101 34 -264 43 -370 20z m75 -184 c94 -67 92 -184 -3 -255
-85 -63 -227 16 -227 126 0 120 136 196 230 129z"/>
</g>
</svg>
