<svg version="1.1" id="Layer_1" xmlns="http://www.w3.org/2000/svg" xmlns:xlink="http://www.w3.org/1999/xlink" x="0px" y="0px"
	 width="100%" viewBox="0 0 256 234" enable-background="new 0 0 256 234" xml:space="preserve">
<path fill="#FFFFFF" opacity="1.000000" stroke="none" 
	d="
M160.000000,235.000000 
	C106.666672,235.000000 53.833340,235.000000 1.000007,235.000000 
	C1.000005,157.000015 1.000005,79.000015 1.000002,1.000018 
	C86.333321,1.000012 171.666641,1.000012 257.000000,1.000006 
	C257.000000,78.999985 257.000000,156.999969 257.000000,234.999969 
	C224.833328,235.000000 192.666672,235.000000 160.000000,235.000000 
M2.001035,130.992950 
	C2.436557,136.067123 6.505422,134.719437 9.687674,135.113022 
	C10.137432,136.878983 10.665629,138.552582 10.983136,140.265244 
	C12.896110,150.584015 14.769261,160.910202 16.639416,171.236862 
	C18.768686,182.994293 20.790134,194.772919 23.124437,206.489319 
	C23.392229,207.833420 25.353775,209.835403 26.550226,209.849777 
	C44.524834,210.065872 62.503422,210.056076 80.478714,209.870667 
	C81.662117,209.858459 83.608055,208.168015 83.867805,206.969604 
	C85.167496,200.973129 85.880783,194.852524 87.061211,188.826691 
	C90.560616,170.963089 94.182625,153.123489 97.769760,135.209259 
	C105.999977,134.684372 106.000092,134.684372 105.999916,125.974915 
	C105.999878,123.977448 106.112999,121.971718 105.969215,119.984604 
	C105.789642,117.502914 104.995522,115.917885 101.821259,115.929420 
	C69.862213,116.045532 37.902496,116.030594 5.943216,115.951904 
	C2.824248,115.944229 1.816992,117.149681 1.962456,120.101646 
	C2.126107,123.422691 2.000084,126.758018 2.001035,130.992950 
M54.960114,60.654331 
	C55.533718,56.687904 55.817986,52.652863 56.739105,48.768848 
	C58.881859,39.733665 54.179600,26.278803 47.058514,20.467772 
	C38.567070,13.538484 28.811275,9.094605 18.688696,5.380085 
	C14.927335,3.999838 10.821611,3.558029 6.872925,2.688272 
	C6.915258,5.482234 6.616471,8.331915 7.062087,11.060003 
	C8.568177,20.280378 9.622913,29.667969 12.243827,38.581871 
	C14.186009,45.187366 17.320425,51.647362 23.412811,56.146820 
	C31.478712,62.103798 40.233608,63.517582 51.233372,61.397038 
	C43.166538,50.416718 35.481827,39.956528 27.244877,28.744648 
	C28.921583,29.123531 29.554106,29.069754 29.829418,29.357615 
	C35.768673,35.567616 41.857727,41.651299 47.481735,48.137512 
	C49.732109,50.732883 53.083160,55.302032 52.184868,57.099342 
	C50.220100,61.030479 52.975666,63.059601 53.405178,65.928467 
	C54.334999,72.139000 56.125179,78.518425 55.460510,84.598892 
	C54.508087,93.311806 51.677128,101.819366 49.571499,110.739670 
	C52.304375,110.739670 54.526272,110.739670 56.088825,110.739670 
	C59.337219,94.028435 64.734650,77.477470 54.960114,60.654331 
M71.999153,76.501030 
	C69.847404,78.299103 67.695656,80.097168 65.172638,82.205475 
	C76.520485,86.909157 92.783653,86.172707 101.108490,76.630653 
	C107.974174,68.761101 112.527870,59.869900 115.945999,50.262333 
	C117.893463,44.788441 119.209770,39.089993 121.108826,32.448612 
	C117.473213,33.212612 115.602829,33.607277 113.731750,33.998581 
	C104.128075,36.006989 94.270218,37.247421 85.016212,40.311619 
	C79.511940,42.134205 74.389153,46.234074 70.100304,50.356220 
	C62.362091,57.793674 62.795799,67.773819 63.105286,78.084999 
	C73.164879,69.114525 82.817039,60.642605 94.828445,55.609135 
	C87.385551,62.406132 79.942657,69.203133 71.999153,76.501030 
M159.856094,116.000000 
	C152.843048,115.658112 151.035217,120.296562 151.070023,125.116104 
	C151.131897,133.680878 151.836945,142.241837 151.865768,150.805756 
	C151.888992,157.704437 151.040314,164.606323 151.070648,171.504639 
	C151.106918,179.753845 151.750275,187.998520 151.971649,196.249435 
	C152.127792,202.068390 154.785858,204.961319 160.586884,204.986893 
	C171.082870,205.033142 181.579300,205.020935 192.075424,204.992004 
	C198.195999,204.975143 200.988663,202.151749 200.993057,195.964996 
	C201.010132,171.973679 201.007706,147.982361 200.993912,123.991043 
	C200.990921,118.789734 198.113266,116.010307 192.774948,116.003830 
	C182.112152,115.990898 171.449341,116.000000 159.856094,116.000000 
M83.027336,232.999969 
	C90.532707,231.882828 94.603706,225.483826 93.604851,216.172302 
	C66.537140,216.172302 39.450817,216.172302 11.848881,216.172302 
	C12.261980,218.397781 12.700683,220.375275 12.987033,222.374588 
	C13.930518,228.962051 18.488504,232.989151 25.179132,232.994583 
	C44.159740,233.010025 63.140366,233.000000 83.027336,232.999969 
M106.992188,223.486252 
	C105.328133,219.897339 102.397873,216.366898 102.228973,212.708954 
	C101.638100,199.911484 101.957207,187.069702 102.057709,174.245743 
	C102.069427,172.750931 102.873604,171.262344 103.310379,169.770874 
	C103.941795,169.769638 104.573212,169.768417 105.204628,169.767181 
	C105.803085,171.783417 106.893616,173.793335 106.919579,175.816925 
	C107.079659,188.295044 106.686157,200.787231 107.123383,213.252060 
	C107.365265,220.147858 113.324905,224.142075 121.433228,223.999969 
	C127.784103,223.888672 133.818375,218.802231 133.929932,212.773575 
	C134.160599,200.307892 133.999466,187.834976 133.999466,175.312881 
	C130.337173,174.448059 128.905548,175.559311 128.951202,179.188721 
	C129.087357,190.013092 129.039581,200.840485 128.982910,211.666260 
	C128.955521,216.899902 125.958801,219.890060 120.877312,219.999939 
	C114.743477,220.132599 111.042290,216.206055 111.013840,209.340164 
	C110.964149,197.348404 110.985718,185.356262 111.009125,173.364334 
	C111.015709,169.990891 110.006706,167.304962 106.592049,166.002335 
	C100.416824,163.646622 97.140602,168.649475 97.054230,174.179138 
	C96.874779,185.668655 96.897301,197.164093 97.030655,208.654861 
	C97.149437,218.890076 100.455994,227.259583 110.850586,231.414749 
	C124.327515,236.802094 140.901337,230.722870 142.717636,214.122528 
	C144.118134,201.322464 142.996872,188.246475 142.996872,174.957367 
	C141.371933,175.130081 140.198700,175.254791 139.000000,175.382202 
	C139.000000,186.951904 139.209290,198.113739 138.929443,209.263290 
	C138.729111,217.244614 135.396820,223.511902 127.706604,227.108917 
	C120.160507,230.638504 113.638687,229.043839 106.992188,223.486252 
M210.707275,212.000000 
	C208.313553,212.274414 204.953293,210.821091 204.989716,215.341827 
	C205.036270,221.120804 205.001022,226.900436 205.001022,232.771469 
	C222.196381,232.771469 238.930542,232.771469 255.769745,232.771469 
	C255.769745,225.804077 255.769745,219.067184 255.769745,212.000000 
	C240.917755,212.000000 226.293793,212.000000 210.707275,212.000000 
M184.000000,215.496887 
	C184.000000,213.402969 184.000000,211.309067 184.000000,209.273621 
	C178.363159,209.273621 173.298019,209.273621 167.854416,209.273621 
	C167.854416,213.613800 167.854416,217.692017 167.854416,222.000000 
	C165.502014,222.000000 163.516174,222.168167 161.568314,221.967560 
	C156.337906,221.428894 152.392120,221.593094 152.353287,228.858246 
	C152.335556,232.176971 152.682510,233.016953 155.656631,233.007538 
	C163.138275,232.983856 170.620026,232.999939 178.101746,233.000000 
	C185.353546,233.000061 192.605347,233.000000 200.000000,233.000000 
	C200.000000,230.758026 199.807159,229.081100 200.036865,227.464172 
	C200.674179,222.978195 198.762115,221.519791 194.426270,221.934875 
	C191.032837,222.259735 187.583420,222.000000 184.000000,222.000000 
	C184.000000,219.750961 184.000000,218.105743 184.000000,215.496887 
M233.446289,208.000000 
	C238.933014,207.555420 244.419724,207.110840 249.685486,206.684158 
	C249.685486,200.933640 249.685486,195.544342 249.685486,190.263550 
	C236.666458,190.263550 223.963440,190.263550 211.211029,190.263550 
	C211.211029,196.236404 211.211029,201.942947 211.211029,207.025589 
	C218.459076,207.357468 225.475281,207.678726 233.446289,208.000000 
M135.000000,156.803345 
	C135.805328,161.216049 136.610641,165.628738 137.386169,169.878235 
	C139.918152,169.878235 141.209702,169.878235 141.096741,169.878235 
	C149.410660,164.420197 146.534164,157.046524 147.012970,150.311920 
	C134.748016,149.340744 134.748016,149.340744 135.000000,156.803345 
M139.481705,147.999619 
	C145.461273,147.895706 145.498016,147.840317 144.573044,140.353836 
	C142.050751,140.353836 139.552109,140.353836 136.103729,140.353836 
	C137.047684,143.286057 137.805710,145.640686 139.481705,147.999619 
z"/>
<path fill="#000000" opacity="1.000000" stroke="none" 
	d="
M2.000553,130.540039 
	C2.000084,126.758018 2.126107,123.422691 1.962456,120.101646 
	C1.816992,117.149681 2.824248,115.944229 5.943216,115.951904 
	C37.902496,116.030594 69.862213,116.045532 101.821259,115.929420 
	C104.995522,115.917885 105.789642,117.502914 105.969215,119.984604 
	C106.112999,121.971718 105.999878,123.977448 105.999916,125.974915 
	C106.000092,134.684372 105.999977,134.684372 97.769760,135.209259 
	C94.182625,153.123489 90.560616,170.963089 87.061211,188.826691 
	C85.880783,194.852524 85.167496,200.973129 83.867805,206.969604 
	C83.608055,208.168015 81.662117,209.858459 80.478714,209.870667 
	C62.503422,210.056076 44.524834,210.065872 26.550226,209.849777 
	C25.353775,209.835403 23.392229,207.833420 23.124437,206.489319 
	C20.790134,194.772919 18.768686,182.994293 16.639416,171.236862 
	C14.769261,160.910202 12.896110,150.584015 10.983136,140.265244 
	C10.665629,138.552582 10.137432,136.878983 9.687674,135.113022 
	C6.505422,134.719437 2.436557,136.067123 2.000553,130.540039 
z"/>
<path fill="#000000" opacity="1.000000" stroke="none" 
	d="
M54.979721,61.060097 
	C64.734650,77.477470 59.337219,94.028435 56.088825,110.739670 
	C54.526272,110.739670 52.304375,110.739670 49.571499,110.739670 
	C51.677128,101.819366 54.508087,93.311806 55.460510,84.598892 
	C56.125179,78.518425 54.334999,72.139000 53.405178,65.928467 
	C52.975666,63.059601 50.220100,61.030479 52.184868,57.099342 
	C53.083160,55.302032 49.732109,50.732883 47.481735,48.137512 
	C41.857727,41.651299 35.768673,35.567616 29.829418,29.357615 
	C29.554106,29.069754 28.921583,29.123531 27.244877,28.744648 
	C35.481827,39.956528 43.166538,50.416718 51.233372,61.397038 
	C40.233608,63.517582 31.478712,62.103798 23.412811,56.146820 
	C17.320425,51.647362 14.186009,45.187366 12.243827,38.581871 
	C9.622913,29.667969 8.568177,20.280378 7.062087,11.060003 
	C6.616471,8.331915 6.915258,5.482234 6.872925,2.688272 
	C10.821611,3.558029 14.927335,3.999838 18.688696,5.380085 
	C28.811275,9.094605 38.567070,13.538484 47.058514,20.467772 
	C54.179600,26.278803 58.881859,39.733665 56.739105,48.768848 
	C55.817986,52.652863 55.533718,56.687904 54.979721,61.060097 
z"/>
<path fill="#000000" opacity="1.000000" stroke="none" 
	d="
M72.249458,76.250580 
	C79.942657,69.203133 87.385551,62.406132 94.828445,55.609135 
	C82.817039,60.642605 73.164879,69.114525 63.105286,78.084999 
	C62.795799,67.773819 62.362091,57.793674 70.100304,50.356220 
	C74.389153,46.234074 79.511940,42.134205 85.016212,40.311619 
	C94.270218,37.247421 104.128075,36.006989 113.731750,33.998581 
	C115.602829,33.607277 117.473213,33.212612 121.108826,32.448612 
	C119.209770,39.089993 117.893463,44.788441 115.945999,50.262333 
	C112.527870,59.869900 107.974174,68.761101 101.108490,76.630653 
	C92.783653,86.172707 76.520485,86.909157 65.172638,82.205475 
	C67.695656,80.097168 69.847404,78.299103 72.249458,76.250580 
z"/>
<path fill="#000000" opacity="1.000000" stroke="none" 
	d="
M160.321320,116.000000 
	C171.449341,116.000000 182.112152,115.990898 192.774948,116.003830 
	C198.113266,116.010307 200.990921,118.789734 200.993912,123.991043 
	C201.007706,147.982361 201.010132,171.973679 200.993057,195.964996 
	C200.988663,202.151749 198.195999,204.975143 192.075424,204.992004 
	C181.579300,205.020935 171.082870,205.033142 160.586884,204.986893 
	C154.785858,204.961319 152.127792,202.068390 151.971649,196.249435 
	C151.750275,187.998520 151.106918,179.753845 151.070648,171.504639 
	C151.040314,164.606323 151.888992,157.704437 151.865768,150.805756 
	C151.836945,142.241837 151.131897,133.680878 151.070023,125.116104 
	C151.035217,120.296562 152.843048,115.658112 160.321320,116.000000 
M163.560516,129.000000 
	C161.125061,129.000000 158.689590,129.000000 156.243149,129.000000 
	C156.243149,149.251343 156.243149,168.972977 156.243149,188.999054 
	C168.935059,188.999054 181.386139,189.009705 193.837173,188.990097 
	C196.337860,188.986145 197.641998,188.259842 196.244217,185.389893 
	C195.712234,184.297638 196.008957,182.779160 196.007355,181.454819 
	C195.994293,170.634689 196.000000,159.814560 196.000000,148.994415 
	C196.000000,142.402084 196.000000,135.809753 196.000000,129.000000 
	C185.139252,129.000000 174.841644,129.000000 163.560516,129.000000 
M180.999863,196.570709 
	C181.070953,192.804443 178.686371,191.291763 175.623596,192.213318 
	C174.078979,192.678055 172.645523,195.156937 172.116470,196.999237 
	C171.111603,200.498367 174.114365,201.972961 176.552704,201.737137 
	C178.159744,201.581711 179.525879,198.935532 180.999863,196.570709 
M170.812607,123.997353 
	C175.051498,123.541176 179.564743,125.033257 183.529846,122.513100 
	C179.330734,122.001953 175.185776,121.946953 171.047440,122.087547 
	C170.636215,122.101517 170.265549,123.308266 170.812607,123.997353 
z"/>
<path fill="#000000" opacity="1.000000" stroke="none" 
	d="
M82.574158,232.999985 
	C63.140366,233.000000 44.159740,233.010025 25.179132,232.994583 
	C18.488504,232.989151 13.930518,228.962051 12.987033,222.374588 
	C12.700683,220.375275 12.261980,218.397781 11.848881,216.172302 
	C39.450817,216.172302 66.537140,216.172302 93.604851,216.172302 
	C94.603706,225.483826 90.532707,231.882828 82.574158,232.999985 
z"/>
<path fill="#000000" opacity="1.000000" stroke="none" 
	d="
M107.258781,223.750916 
	C113.638687,229.043839 120.160507,230.638504 127.706604,227.108917 
	C135.396820,223.511902 138.729111,217.244614 138.929443,209.263290 
	C139.209290,198.113739 139.000000,186.951904 139.000000,175.382202 
	C140.198700,175.254791 141.371933,175.130081 142.996872,174.957367 
	C142.996872,188.246475 144.118134,201.322464 142.717636,214.122528 
	C140.901337,230.722870 124.327515,236.802094 110.850586,231.414749 
	C100.455994,227.259583 97.149437,218.890076 97.030655,208.654861 
	C96.897301,197.164093 96.874779,185.668655 97.054230,174.179138 
	C97.140602,168.649475 100.416824,163.646622 106.592049,166.002335 
	C110.006706,167.304962 111.015709,169.990891 111.009125,173.364334 
	C110.985718,185.356262 110.964149,197.348404 111.013840,209.340164 
	C111.042290,216.206055 114.743477,220.132599 120.877312,219.999939 
	C125.958801,219.890060 128.955521,216.899902 128.982910,211.666260 
	C129.039581,200.840485 129.087357,190.013092 128.951202,179.188721 
	C128.905548,175.559311 130.337173,174.448059 133.999466,175.312881 
	C133.999466,187.834976 134.160599,200.307892 133.929932,212.773575 
	C133.818375,218.802231 127.784103,223.888672 121.433228,223.999969 
	C113.324905,224.142075 107.365265,220.147858 107.123383,213.252060 
	C106.686157,200.787231 107.079659,188.295044 106.919579,175.816925 
	C106.893616,173.793335 105.803085,171.783417 105.204628,169.767181 
	C104.573212,169.768417 103.941795,169.769638 103.310379,169.770874 
	C102.873604,171.262344 102.069427,172.750931 102.057709,174.245743 
	C101.957207,187.069702 101.638100,199.911484 102.228973,212.708954 
	C102.397873,216.366898 105.328133,219.897339 107.258781,223.750916 
z"/>
<path fill="#000000" opacity="1.000000" stroke="none" 
	d="
M211.188568,212.000000 
	C226.293793,212.000000 240.917755,212.000000 255.769745,212.000000 
	C255.769745,219.067184 255.769745,225.804077 255.769745,232.771469 
	C238.930542,232.771469 222.196381,232.771469 205.001022,232.771469 
	C205.001022,226.900436 205.036270,221.120804 204.989716,215.341827 
	C204.953293,210.821091 208.313553,212.274414 211.188568,212.000000 
z"/>
<path fill="#000000" opacity="1.000000" stroke="none" 
	d="
M184.000000,215.978714 
	C184.000000,218.105743 184.000000,219.750961 184.000000,222.000000 
	C187.583420,222.000000 191.032837,222.259735 194.426270,221.934875 
	C198.762115,221.519791 200.674179,222.978195 200.036865,227.464172 
	C199.807159,229.081100 200.000000,230.758026 200.000000,233.000000 
	C192.605347,233.000000 185.353546,233.000061 178.101746,233.000000 
	C170.620026,232.999939 163.138275,232.983856 155.656631,233.007538 
	C152.682510,233.016953 152.335556,232.176971 152.353287,228.858246 
	C152.392120,221.593094 156.337906,221.428894 161.568314,221.967560 
	C163.516174,222.168167 165.502014,222.000000 167.854416,222.000000 
	C167.854416,217.692017 167.854416,213.613800 167.854416,209.273621 
	C173.298019,209.273621 178.363159,209.273621 184.000000,209.273621 
	C184.000000,211.309067 184.000000,213.402969 184.000000,215.978714 
z"/>
<path fill="#000000" opacity="1.000000" stroke="none" 
	d="
M232.968903,208.000000 
	C225.475281,207.678726 218.459076,207.357468 211.211029,207.025589 
	C211.211029,201.942947 211.211029,196.236404 211.211029,190.263550 
	C223.963440,190.263550 236.666458,190.263550 249.685486,190.263550 
	C249.685486,195.544342 249.685486,200.933640 249.685486,206.684158 
	C244.419724,207.110840 238.933014,207.555420 232.968903,208.000000 
z"/>
<path fill="#000000" opacity="1.000000" stroke="none" 
	d="
M135.000000,156.358002 
	C134.748016,149.340744 134.748016,149.340744 147.012970,150.311920 
	C146.534164,157.046524 149.410660,164.420197 141.096741,169.878235 
	C141.209702,169.878235 139.918152,169.878235 137.386169,169.878235 
	C136.610641,165.628738 135.805328,161.216049 135.000000,156.358002 
z"/>
<path fill="#000000" opacity="1.000000" stroke="none" 
	d="
M139.022720,147.997467 
	C137.805710,145.640686 137.047684,143.286057 136.103729,140.353836 
	C139.552109,140.353836 142.050751,140.353836 144.573044,140.353836 
	C145.498016,147.840317 145.461273,147.895706 139.022720,147.997467 
z"/>
<path fill="#FFFFFF" opacity="1.000000" stroke="none" 
	d="
M164.052277,129.000000 
	C174.841644,129.000000 185.139252,129.000000 196.000000,129.000000 
	C196.000000,135.809753 196.000000,142.402084 196.000000,148.994415 
	C196.000000,159.814560 195.994293,170.634689 196.007355,181.454819 
	C196.008957,182.779160 195.712234,184.297638 196.244217,185.389893 
	C197.641998,188.259842 196.337860,188.986145 193.837173,188.990097 
	C181.386139,189.009705 168.935059,188.999054 156.243149,188.999054 
	C156.243149,168.972977 156.243149,149.251343 156.243149,129.000000 
	C158.689590,129.000000 161.125061,129.000000 164.052277,129.000000 
z"/>
<path fill="#FFFFFF" opacity="1.000000" stroke="none" 
	d="
M180.999878,196.987671 
	C179.525879,198.935532 178.159744,201.581711 176.552704,201.737137 
	C174.114365,201.972961 171.111603,200.498367 172.116470,196.999237 
	C172.645523,195.156937 174.078979,192.678055 175.623596,192.213318 
	C178.686371,191.291763 181.070953,192.804443 180.999878,196.987671 
z"/>
<path fill="#FFFFFF" opacity="1.000000" stroke="none" 
	d="
M170.344330,123.979385 
	C170.265549,123.308266 170.636215,122.101517 171.047440,122.087547 
	C175.185776,121.946953 179.330734,122.001953 183.529846,122.513100 
	C179.564743,125.033257 175.051498,123.541176 170.344330,123.979385 
z"/>
</svg>