<svg version="1.1" id="Layer_1" xmlns="http://www.w3.org/2000/svg" xmlns:xlink="http://www.w3.org/1999/xlink" x="0px" y="0px"
	 width="100%" viewBox="0 0 154 175" enable-background="new 0 0 154 175" xml:space="preserve">
<path fill="#FFFFFF" opacity="1.000000" stroke="none" 
	d="
M85.000000,1.000000 
	C108.317566,1.000000 131.635132,1.000000 154.976349,1.000000 
	C154.976349,59.278145 154.976349,117.556297 154.976349,175.917236 
	C103.756653,175.917236 52.513123,175.917236 1.134798,175.917236 
	C1.134798,117.666862 1.134798,59.333481 1.134798,1.000000 
	C25.428776,1.000000 49.745731,1.000000 74.409027,1.374293 
	C54.789543,7.994353 34.823723,14.240120 14.857903,20.485886 
	C14.950343,20.911352 15.042785,21.336821 15.135225,21.762287 
	C16.067822,21.840372 16.999611,21.930117 17.933138,21.994743 
	C27.598518,22.663847 37.256821,23.486116 46.932388,23.938942 
	C53.220272,24.233221 59.862530,25.257833 65.768929,23.727680 
	C79.396690,20.197176 92.688599,15.357354 106.084389,10.950305 
	C111.973969,9.012707 117.784660,6.835286 124.767822,4.364596 
	C119.643066,3.810223 115.917740,3.232942 112.172462,3.037301 
	C103.597740,2.589384 95.012589,2.343239 86.434608,1.950849 
	C85.942940,1.928358 85.477592,1.330227 85.000000,1.000000 
M70.041290,172.113235 
	C70.802818,172.150314 71.709305,172.478653 72.304878,172.182266 
	C91.752853,162.503815 111.150116,152.723251 130.614243,143.077591 
	C133.808624,141.494568 135.076401,139.396774 135.066956,135.771423 
	C134.960968,95.130318 135.000061,54.488846 134.999588,13.847471 
	C134.999573,12.681548 135.148819,11.490217 134.962784,10.354242 
	C134.276276,6.162232 131.523010,4.623625 127.348381,5.940975 
	C118.790962,8.641359 110.202667,11.245983 101.669167,14.019515 
	C90.048798,17.796329 78.467766,21.694180 68.119827,25.125631 
	C69.187561,29.770441 70.864197,33.709198 70.881653,37.655289 
	C71.071007,80.461143 71.009453,123.268158 70.965836,166.074814 
	C70.964066,167.811050 70.461258,169.546768 70.041290,172.113235 
M1.999977,61.500000 
	C1.999987,95.965675 2.071197,130.431686 1.911679,164.896606 
	C1.891285,169.302979 3.899798,171.220322 7.670937,171.956024 
	C10.379055,172.484329 13.147328,172.829987 15.903186,172.966919 
	C30.559668,173.695099 45.216743,174.446075 59.881779,174.953171 
	C67.551224,175.218369 68.997620,173.560806 68.997887,165.858749 
	C68.999367,123.068077 68.999275,80.277412 68.998985,37.486740 
	C68.998924,29.139153 65.870934,26.153130 57.456909,25.965487 
	C49.708725,25.792692 41.960384,25.429235 34.224663,24.948002 
	C25.720984,24.418995 17.240591,23.457178 8.732497,23.080721 
	C4.057320,22.873859 2.013778,25.329908 2.005514,30.030390 
	C1.987657,40.186897 1.999993,50.343460 1.999977,61.500000 
M153.978439,121.911827 
	C151.338776,115.374474 145.149384,113.317459 136.733597,114.087257 
	C137.417816,115.330177 138.319550,116.457420 139.488098,116.944572 
	C141.840149,117.925110 144.484070,118.275017 146.720596,119.437317 
	C148.085266,120.146507 149.765091,121.894714 149.749893,123.157562 
	C149.734253,124.457848 148.061020,126.111420 146.703522,126.936859 
	C144.544815,128.249481 141.973831,128.865250 139.720337,130.048370 
	C138.498840,130.689667 137.573395,131.894836 136.514404,132.845657 
	C136.886826,133.418274 137.259247,133.990891 137.631668,134.563507 
	C141.337326,133.270370 145.467682,132.605835 148.611832,130.481598 
	C151.046783,128.836517 152.248154,125.365555 153.978439,121.911827 
z"/>
<path fill="#000000" opacity="1.000000" stroke="none" 
	d="
M84.545891,1.000000 
	C85.477592,1.330227 85.942940,1.928358 86.434608,1.950849 
	C95.012589,2.343239 103.597740,2.589384 112.172462,3.037301 
	C115.917740,3.232942 119.643066,3.810223 124.767822,4.364596 
	C117.784660,6.835286 111.973969,9.012707 106.084389,10.950305 
	C92.688599,15.357354 79.396690,20.197176 65.768929,23.727680 
	C59.862530,25.257833 53.220272,24.233221 46.932388,23.938942 
	C37.256821,23.486116 27.598518,22.663847 17.933138,21.994743 
	C16.999611,21.930117 16.067822,21.840372 15.135225,21.762287 
	C15.042785,21.336821 14.950343,20.911352 14.857903,20.485886 
	C34.823723,14.240120 54.789543,7.994353 74.877686,1.374293 
	C78.030594,1.000000 81.061188,1.000000 84.545891,1.000000 
z"/>
<path fill="#000000" opacity="1.000000" stroke="none" 
	d="
M70.116592,171.697983 
	C70.461258,169.546768 70.964066,167.811050 70.965836,166.074814 
	C71.009453,123.268158 71.071007,80.461143 70.881653,37.655289 
	C70.864197,33.709198 69.187561,29.770441 68.119827,25.125631 
	C78.467766,21.694180 90.048798,17.796329 101.669167,14.019515 
	C110.202667,11.245983 118.790962,8.641359 127.348381,5.940975 
	C131.523010,4.623625 134.276276,6.162232 134.962784,10.354242 
	C135.148819,11.490217 134.999573,12.681548 134.999588,13.847471 
	C135.000061,54.488846 134.960968,95.130318 135.066956,135.771423 
	C135.076401,139.396774 133.808624,141.494568 130.614243,143.077591 
	C111.150116,152.723251 91.752853,162.503815 72.304878,172.182266 
	C71.709305,172.478653 70.802818,172.150314 70.116592,171.697983 
z"/>
<path fill="#000000" opacity="1.000000" stroke="none" 
	d="
M1.999977,61.000000 
	C1.999993,50.343460 1.987657,40.186897 2.005514,30.030390 
	C2.013778,25.329908 4.057320,22.873859 8.732497,23.080721 
	C17.240591,23.457178 25.720984,24.418995 34.224663,24.948002 
	C41.960384,25.429235 49.708725,25.792692 57.456909,25.965487 
	C65.870934,26.153130 68.998924,29.139153 68.998985,37.486740 
	C68.999275,80.277412 68.999367,123.068077 68.997887,165.858749 
	C68.997620,173.560806 67.551224,175.218369 59.881779,174.953171 
	C45.216743,174.446075 30.559668,173.695099 15.903186,172.966919 
	C13.147328,172.829987 10.379055,172.484329 7.670937,171.956024 
	C3.899798,171.220322 1.891285,169.302979 1.911679,164.896606 
	C2.071197,130.431686 1.999987,95.965675 1.999977,61.000000 
M7.000022,43.473244 
	C7.000022,44.472649 6.999791,45.472050 7.000060,46.471455 
	C7.001812,52.992645 7.005682,52.857922 13.513445,53.043121 
	C20.095707,53.230434 26.677706,53.610901 33.244617,54.107700 
	C41.690834,54.746685 50.121906,55.585838 58.799603,56.360191 
	C58.799603,49.866035 58.799603,44.125298 58.799603,38.231102 
	C41.494953,37.053608 24.381769,35.889137 7.000022,34.706394 
	C7.000022,37.884659 7.000022,40.195274 7.000022,43.473244 
M28.263250,60.000156 
	C21.260973,59.688709 14.258696,59.377262 7.000058,59.054413 
	C7.000058,63.856728 7.184010,68.173676 6.942493,72.466698 
	C6.745389,75.970284 8.015587,77.061867 11.513549,77.090874 
	C18.425920,77.148193 25.342701,77.600258 32.241741,78.106155 
	C41.019646,78.749825 49.781757,79.608826 58.999977,80.414246 
	C58.999977,75.498932 58.731754,71.354027 59.074059,67.260178 
	C59.429165,63.013199 57.846405,61.974133 53.713341,61.865791 
	C45.535915,61.651424 37.378654,60.667923 28.263250,60.000156 
M56.006626,148.022766 
	C47.536358,147.353394 39.071571,146.601318 30.594175,146.039444 
	C23.115118,145.543762 15.621993,145.260361 8.135079,144.883224 
	C7.931262,145.550323 7.727445,146.217438 7.523628,146.884552 
	C9.191772,147.589996 10.812871,148.743210 12.536110,148.924271 
	C20.490208,149.759933 28.467119,150.405365 36.446751,150.963089 
	C43.579556,151.461639 50.726612,151.756363 58.746998,152.188400 
	C57.808083,150.272614 57.333336,149.303925 56.006626,148.022766 
M11.247972,158.770889 
	C10.108607,159.332718 8.969242,159.894547 7.829878,160.456375 
	C8.037161,160.995560 8.244443,161.534760 8.451726,162.073944 
	C12.995111,162.383438 17.548458,162.590012 22.079357,163.028503 
	C27.734793,163.575851 33.362328,164.415741 39.019436,164.940323 
	C44.228912,165.423431 49.459240,165.790405 54.686115,165.882263 
	C55.690914,165.899933 56.722309,164.404617 57.741428,163.607285 
	C56.883518,163.072479 56.056534,162.131577 55.163082,162.063538 
	C40.815464,160.970978 26.459370,159.989655 11.247972,158.770889 
M21.665781,138.997452 
	C17.165819,138.575073 12.665857,138.152710 8.165896,137.730331 
	C7.938818,138.391876 7.711739,139.053406 7.484661,139.714935 
	C8.993669,140.476852 10.458809,141.780869 12.019256,141.907120 
	C18.900373,142.463974 25.821802,142.519104 32.704285,143.063660 
	C40.952408,143.716278 49.175793,144.681625 57.409889,145.511536 
	C57.679482,144.968704 57.949074,144.425858 58.218666,143.883026 
	C57.156048,142.922394 56.153690,141.208771 55.021446,141.118149 
	C44.230957,140.254623 33.418461,139.666092 21.665781,138.997452 
M28.590080,157.000687 
	C33.670525,157.334290 38.771961,158.111298 43.825287,157.872086 
	C48.520638,157.649780 53.547287,161.389175 57.980450,157.481384 
	C58.006428,156.822617 58.032402,156.163864 58.058380,155.505096 
	C41.429714,154.203217 24.801050,152.901337 8.172385,151.599457 
	C7.983984,152.169037 7.795582,152.738617 7.607181,153.308182 
	C8.302272,153.875473 8.944587,154.847260 9.700816,154.945923 
	C15.670880,155.724808 21.662672,156.337158 28.590080,157.000687 
M34.090591,115.999969 
	C28.106588,116.024040 24.914747,118.976822 26.184826,124.117035 
	C26.652567,126.010056 29.006863,128.361832 30.870401,128.755890 
	C33.315998,129.273056 37.398277,130.087173 38.108368,126.192352 
	C38.765038,122.590523 40.223244,118.026642 34.090591,115.999969 
M15.011209,115.482178 
	C11.435213,118.406929 13.067355,120.331200 16.161097,122.107025 
	C19.922602,119.298431 20.142542,116.953369 15.011209,115.482178 
M16.413267,129.997803 
	C20.219507,127.552444 20.100956,126.774223 15.514729,124.165314 
	C12.794921,126.157539 11.755797,128.116669 16.413267,129.997803 
z"/>
<path fill="#000000" opacity="1.000000" stroke="none" 
	d="
M153.988159,122.309052 
	C152.248154,125.365555 151.046783,128.836517 148.611832,130.481598 
	C145.467682,132.605835 141.337326,133.270370 137.631668,134.563507 
	C137.259247,133.990891 136.886826,133.418274 136.514404,132.845657 
	C137.573395,131.894836 138.498840,130.689667 139.720337,130.048370 
	C141.973831,128.865250 144.544815,128.249481 146.703522,126.936859 
	C148.061020,126.111420 149.734253,124.457848 149.749893,123.157562 
	C149.765091,121.894714 148.085266,120.146507 146.720596,119.437317 
	C144.484070,118.275017 141.840149,117.925110 139.488098,116.944572 
	C138.319550,116.457420 137.417816,115.330177 136.733597,114.087257 
	C145.149384,113.317459 151.338776,115.374474 153.988159,122.309052 
z"/>
<path fill="#FFFFFF" opacity="1.000000" stroke="none" 
	d="
M7.000022,42.989571 
	C7.000022,40.195274 7.000022,37.884659 7.000022,34.706394 
	C24.381769,35.889137 41.494953,37.053608 58.799603,38.231102 
	C58.799603,44.125298 58.799603,49.866035 58.799603,56.360191 
	C50.121906,55.585838 41.690834,54.746685 33.244617,54.107700 
	C26.677706,53.610901 20.095707,53.230434 13.513445,53.043121 
	C7.005682,52.857922 7.001812,52.992645 7.000060,46.471455 
	C6.999791,45.472050 7.000022,44.472649 7.000022,42.989571 
M41.633347,38.999996 
	C30.901505,38.189461 20.169662,37.378925 9.192403,36.549858 
	C9.192403,41.813900 9.192403,46.220276 9.192403,51.150166 
	C25.079145,52.211117 40.832581,53.263161 56.814919,54.330494 
	C56.814919,49.171024 56.814919,44.763489 56.814919,39.952293 
	C51.967323,39.627853 47.277283,39.313961 41.633347,38.999996 
z"/>
<path fill="#FFFFFF" opacity="1.000000" stroke="none" 
	d="
M28.738152,60.001278 
	C37.378654,60.667923 45.535915,61.651424 53.713341,61.865791 
	C57.846405,61.974133 59.429165,63.013199 59.074059,67.260178 
	C58.731754,71.354027 58.999977,75.498932 58.999977,80.414246 
	C49.781757,79.608826 41.019646,78.749825 32.241741,78.106155 
	C25.342701,77.600258 18.425920,77.148193 11.513549,77.090874 
	C8.015587,77.061867 6.745389,75.970284 6.942493,72.466698 
	C7.184010,68.173676 7.000058,63.856728 7.000058,59.054413 
	C14.258696,59.377262 21.260973,59.688709 28.738152,60.001278 
M42.789955,77.994278 
	C47.397247,77.994278 52.004543,77.994278 56.655334,77.994278 
	C56.655334,73.085228 56.655334,68.572739 56.655334,63.927708 
	C40.686512,62.829468 25.051073,61.754154 9.186115,60.663059 
	C9.186115,65.829811 9.186115,70.241394 9.186115,75.261856 
	C18.407997,75.846375 27.507656,76.390266 36.600731,77.028046 
	C38.360687,77.151482 40.094917,77.641777 42.789955,77.994278 
z"/>
<path fill="#FFFFFF" opacity="1.000000" stroke="none" 
	d="
M56.432610,148.179016 
	C57.333336,149.303925 57.808083,150.272614 58.746998,152.188400 
	C50.726612,151.756363 43.579556,151.461639 36.446751,150.963089 
	C28.467119,150.405365 20.490208,149.759933 12.536110,148.924271 
	C10.812871,148.743210 9.191772,147.589996 7.523628,146.884552 
	C7.727445,146.217438 7.931262,145.550323 8.135079,144.883224 
	C15.621993,145.260361 23.115118,145.543762 30.594175,146.039444 
	C39.071571,146.601318 47.536358,147.353394 56.432610,148.179016 
z"/>
<path fill="#FFFFFF" opacity="1.000000" stroke="none" 
	d="
M11.676588,158.876968 
	C26.459370,159.989655 40.815464,160.970978 55.163082,162.063538 
	C56.056534,162.131577 56.883518,163.072479 57.741432,163.607285 
	C56.722309,164.404617 55.690914,165.899933 54.686115,165.882263 
	C49.459240,165.790405 44.228912,165.423431 39.019436,164.940323 
	C33.362328,164.415741 27.734793,163.575851 22.079357,163.028503 
	C17.548458,162.590012 12.995111,162.383438 8.451726,162.073944 
	C8.244443,161.534760 8.037161,160.995560 7.829878,160.456375 
	C8.969242,159.894547 10.108607,159.332718 11.676588,158.876968 
z"/>
<path fill="#FFFFFF" opacity="1.000000" stroke="none" 
	d="
M22.139032,138.998016 
	C33.418461,139.666092 44.230957,140.254623 55.021446,141.118149 
	C56.153690,141.208771 57.156048,142.922394 58.218666,143.883026 
	C57.949074,144.425858 57.679482,144.968704 57.409889,145.511536 
	C49.175793,144.681625 40.952408,143.716278 32.704285,143.063660 
	C25.821802,142.519104 18.900373,142.463974 12.019256,141.907120 
	C10.458809,141.780869 8.993669,140.476852 7.484661,139.714935 
	C7.711739,139.053406 7.938818,138.391876 8.165896,137.730331 
	C12.665857,138.152710 17.165819,138.575073 22.139032,138.998016 
z"/>
<path fill="#FFFFFF" opacity="1.000000" stroke="none" 
	d="
M28.118931,157.000702 
	C21.662672,156.337158 15.670880,155.724808 9.700816,154.945923 
	C8.944587,154.847260 8.302272,153.875473 7.607181,153.308182 
	C7.795582,152.738617 7.983984,152.169037 8.172385,151.599457 
	C24.801050,152.901337 41.429714,154.203217 58.058380,155.505096 
	C58.032402,156.163864 58.006428,156.822617 57.980450,157.481384 
	C53.547287,161.389175 48.520638,157.649780 43.825287,157.872086 
	C38.771961,158.111298 33.670525,157.334290 28.118931,157.000702 
z"/>
<path fill="#FFFFFF" opacity="1.000000" stroke="none" 
	d="
M34.493916,116.005508 
	C40.223244,118.026642 38.765038,122.590523 38.108368,126.192352 
	C37.398277,130.087173 33.315998,129.273056 30.870401,128.755890 
	C29.006863,128.361832 26.652567,126.010056 26.184826,124.117035 
	C24.914747,118.976822 28.106588,116.024040 34.493916,116.005508 
M33.467823,118.080925 
	C33.172344,119.276825 32.876862,120.472725 32.415653,122.339378 
	C32.089481,120.452225 31.880329,119.242126 31.619171,117.731125 
	C28.173357,119.189323 26.976501,121.744370 28.413355,124.476036 
	C29.137011,125.851814 31.822845,126.707870 33.664474,126.786201 
	C34.726326,126.831360 36.883015,124.739716 36.775585,123.815834 
	C36.543552,121.820412 35.169655,119.957779 33.467823,118.080925 
z"/>
<path fill="#FFFFFF" opacity="1.000000" stroke="none" 
	d="
M15.318851,115.260361 
	C20.142542,116.953369 19.922602,119.298431 16.161097,122.107025 
	C13.067355,120.331200 11.435213,118.406929 15.318851,115.260361 
z"/>
<path fill="#FFFFFF" opacity="1.000000" stroke="none" 
	d="
M16.015741,129.997894 
	C11.755797,128.116669 12.794921,126.157539 15.514729,124.165314 
	C20.100956,126.774223 20.219507,127.552444 16.015741,129.997894 
z"/>
<path fill="#000000" opacity="1.000000" stroke="none" 
	d="
M42.110294,39.000031 
	C47.277283,39.313961 51.967323,39.627853 56.814919,39.952293 
	C56.814919,44.763489 56.814919,49.171024 56.814919,54.330494 
	C40.832581,53.263161 25.079145,52.211117 9.192403,51.150166 
	C9.192403,46.220276 9.192403,41.813900 9.192403,36.549858 
	C20.169662,37.378925 30.901505,38.189461 42.110294,39.000031 
z"/>
<path fill="#000000" opacity="1.000000" stroke="none" 
	d="
M42.315483,77.978561 
	C40.094917,77.641777 38.360687,77.151482 36.600731,77.028046 
	C27.507656,76.390266 18.407997,75.846375 9.186115,75.261856 
	C9.186115,70.241394 9.186115,65.829811 9.186115,60.663059 
	C25.051073,61.754154 40.686512,62.829468 56.655334,63.927708 
	C56.655334,68.572739 56.655334,73.085228 56.655334,77.994278 
	C52.004543,77.994278 47.397247,77.994278 42.315483,77.978561 
z"/>
<path fill="#000000" opacity="1.000000" stroke="none" 
	d="
M33.865364,118.060867 
	C35.169655,119.957779 36.543552,121.820412 36.775585,123.815834 
	C36.883015,124.739716 34.726326,126.831360 33.664474,126.786201 
	C31.822845,126.707870 29.137011,125.851814 28.413355,124.476036 
	C26.976501,121.744370 28.173357,119.189323 31.619171,117.731125 
	C31.880329,119.242126 32.089481,120.452225 32.415653,122.339378 
	C32.876862,120.472725 33.172344,119.276825 33.865364,118.060867 
z"/>
</svg>