<svg version="1.1" id="Layer_1" xmlns="http://www.w3.org/2000/svg" xmlns:xlink="http://www.w3.org/1999/xlink" x="0px" y="0px"
	 width="100%" viewBox="0 0 256 151" enable-background="new 0 0 256 151" xml:space="preserve">
<path fill="#FFFFFF" opacity="1.000000" stroke="none" 
	d="
M1.000000,60.000000 
	C1.000000,40.000004 1.000000,20.500008 1.000000,1.000008 
	C86.333313,1.000005 171.666626,1.000005 256.999939,1.000003 
	C256.999969,51.333309 256.999969,101.666618 257.000000,151.999939 
	C171.666702,151.999969 86.333420,151.999969 1.000065,151.999985 
	C1.000000,121.500000 1.000000,91.000000 1.000000,60.000000 
M56.500000,1.999999 
	C40.501331,2.000009 24.502308,2.059039 8.504227,1.962154 
	C4.014600,1.934965 1.854817,3.797364 1.984958,8.328382 
	C2.066265,11.159145 1.988058,13.994207 2.002434,16.827234 
	C2.034720,23.189651 3.830109,24.999323 10.101845,24.999395 
	C89.261978,25.000315 168.422104,25.000000 247.582245,24.999964 
	C248.582153,24.999964 249.582748,25.023193 250.581863,24.994890 
	C254.080963,24.895769 255.930786,23.085892 255.986969,19.585646 
	C256.043121,16.086832 255.790680,12.571052 256.046570,9.090134 
	C256.484619,3.131556 254.557922,1.912663 248.984039,1.923200 
	C185.156204,2.043866 121.328064,2.000000 56.500000,1.999999 
M25.000000,74.500000 
	C25.000000,99.593063 25.000000,124.686134 25.000000,149.712708 
	C31.643723,149.712708 37.715832,149.712708 43.715973,149.712708 
	C43.715973,110.024323 43.715973,70.623894 43.715973,31.287264 
	C37.356342,31.287264 31.284233,31.287264 25.000000,31.287264 
	C25.000000,45.549026 25.000000,59.524513 25.000000,74.500000 
M213.000427,61.500000 
	C213.000427,90.922386 213.000427,120.344772 213.000427,149.718826 
	C219.632629,149.718826 225.703659,149.718826 231.728546,149.718826 
	C231.728546,110.040794 231.728546,70.644554 231.728546,31.000151 
	C226.653473,31.000151 221.843201,31.123446 217.043152,30.955296 
	C214.018738,30.849346 212.900330,31.949881 212.951370,35.009304 
	C213.093094,43.504112 213.000473,52.002827 213.000427,61.500000 
z"/>
<path fill="#000000" opacity="1.000000" stroke="none" 
	d="
M57.000000,1.999999 
	C121.328064,2.000000 185.156204,2.043866 248.984039,1.923200 
	C254.557922,1.912663 256.484619,3.131556 256.046570,9.090134 
	C255.790680,12.571052 256.043121,16.086832 255.986969,19.585646 
	C255.930786,23.085892 254.080963,24.895769 250.581863,24.994890 
	C249.582748,25.023193 248.582153,24.999964 247.582245,24.999964 
	C168.422104,25.000000 89.261978,25.000315 10.101845,24.999395 
	C3.830109,24.999323 2.034720,23.189651 2.002434,16.827234 
	C1.988058,13.994207 2.066265,11.159145 1.984958,8.328382 
	C1.854817,3.797364 4.014600,1.934965 8.504227,1.962154 
	C24.502308,2.059039 40.501331,2.000009 57.000000,1.999999 
z"/>
<path fill="#000000" opacity="1.000000" stroke="none" 
	d="
M25.000000,74.000000 
	C25.000000,59.524513 25.000000,45.549026 25.000000,31.287264 
	C31.284233,31.287264 37.356342,31.287264 43.715973,31.287264 
	C43.715973,70.623894 43.715973,110.024323 43.715973,149.712708 
	C37.715832,149.712708 31.643723,149.712708 25.000000,149.712708 
	C25.000000,124.686134 25.000000,99.593063 25.000000,74.000000 
z"/>
<path fill="#000000" opacity="1.000000" stroke="none" 
	d="
M213.000427,61.000000 
	C213.000473,52.002827 213.093094,43.504112 212.951370,35.009304 
	C212.900330,31.949881 214.018738,30.849346 217.043152,30.955296 
	C221.843201,31.123446 226.653473,31.000151 231.728546,31.000151 
	C231.728546,70.644554 231.728546,110.040794 231.728546,149.718826 
	C225.703659,149.718826 219.632629,149.718826 213.000427,149.718826 
	C213.000427,120.344772 213.000427,90.922386 213.000427,61.000000 
z"/>
</svg>