<svg version="1.1" id="Layer_1" xmlns="http://www.w3.org/2000/svg" xmlns:xlink="http://www.w3.org/1999/xlink" x="0px" y="0px"
	 width="100%" viewBox="0 0 256 116" enable-background="new 0 0 256 116" xml:space="preserve">
<path fill="#FFFFFF" opacity="1.000000" stroke="none" 
	d="
M1.000000,41.000000 
	C1.000000,27.676470 1.000000,14.352940 0.999998,1.022057 
	C86.260788,1.014704 171.521591,1.014704 256.891174,1.014704 
	C256.891174,39.565422 256.891174,78.131256 256.891174,116.848541 
	C171.666901,116.848541 86.333458,116.848541 1.000000,116.848541 
	C1.000000,114.992928 1.000000,112.994370 1.373759,110.619843 
	C1.668754,115.121529 4.441374,116.070930 8.778575,116.066025 
	C88.438202,115.975861 168.097977,116.000313 247.757706,115.999634 
	C254.305618,115.999573 255.994476,114.264809 255.997116,107.468071 
	C256.005188,86.636551 256.002106,65.805031 255.998917,44.973507 
	C255.997818,37.701683 254.310043,36.001747 247.081329,36.001217 
	C209.251297,35.998451 171.421249,35.999916 133.591217,35.999916 
	C131.785385,35.999912 129.979553,35.999916 128.433151,35.999916 
	C126.899742,31.221582 126.118378,26.868446 130.723724,23.859121 
	C132.575180,22.649292 134.691666,21.772938 136.787430,21.024477 
	C140.838409,19.577744 145.195099,18.798187 148.999222,16.892136 
	C155.116943,13.826866 157.534027,6.461812 154.279419,2.196717 
	C153.858261,2.737751 153.158432,3.220365 153.109009,3.762291 
	C152.280075,12.852776 145.736664,15.436788 138.230362,17.007710 
	C132.711594,18.162683 127.411537,19.991209 125.035820,25.641729 
	C123.707558,28.800936 123.370987,32.377090 122.533318,35.999916 
	C120.869148,35.999916 119.217552,35.999916 117.565964,35.999916 
	C81.569099,35.999916 45.571957,36.065010 9.575733,35.912640 
	C5.357549,35.894787 2.597584,37.170856 1.000000,41.000000 
z"/>
<path fill="#000000" opacity="1.000000" stroke="none" 
	d="
M1.000000,41.250000 
	C2.597584,37.170856 5.357549,35.894787 9.575733,35.912640 
	C45.571957,36.065010 81.569099,35.999916 117.565964,35.999916 
	C119.217552,35.999916 120.869148,35.999916 122.533318,35.999916 
	C123.370987,32.377090 123.707558,28.800936 125.035820,25.641729 
	C127.411537,19.991209 132.711594,18.162683 138.230362,17.007710 
	C145.736664,15.436788 152.280075,12.852776 153.109009,3.762291 
	C153.158432,3.220365 153.858261,2.737751 154.279419,2.196717 
	C157.534027,6.461812 155.116943,13.826866 148.999222,16.892136 
	C145.195099,18.798187 140.838409,19.577744 136.787430,21.024477 
	C134.691666,21.772938 132.575180,22.649292 130.723724,23.859121 
	C126.118378,26.868446 126.899742,31.221582 128.433151,35.999916 
	C129.979553,35.999916 131.785385,35.999912 133.591217,35.999916 
	C171.421249,35.999916 209.251297,35.998451 247.081329,36.001217 
	C254.310043,36.001747 255.997818,37.701683 255.998917,44.973507 
	C256.002106,65.805031 256.005188,86.636551 255.997116,107.468071 
	C255.994476,114.264809 254.305618,115.999573 247.757706,115.999634 
	C168.097977,116.000313 88.438202,115.975861 8.778575,116.066025 
	C4.441374,116.070930 1.668754,115.121529 1.373759,110.121948 
	C1.000000,110.000000 1.000000,109.500000 1.300824,108.959213 
	C1.732607,107.775345 1.977358,107.132362 1.978015,106.489143 
	C1.998725,86.216995 2.012980,65.944778 1.953658,45.672798 
	C1.950073,44.447613 1.332096,43.224224 1.000000,42.000000 
	C1.000000,42.000000 1.000000,41.500000 1.000000,41.250000 
M130.500000,58.000084 
	C89.741089,58.000084 48.982185,58.000084 8.286261,58.000084 
	C8.286261,75.640358 8.286261,92.711502 8.286261,109.716072 
	C62.640373,109.716072 116.707840,109.716072 170.713776,109.716072 
	C170.713776,92.359604 170.713776,75.288513 170.713776,58.000084 
	C157.452515,58.000084 144.476257,58.000084 130.500000,58.000084 
M248.995987,108.290421 
	C248.995987,91.547081 248.995987,74.803749 248.995987,58.364876 
	C237.200302,58.364876 226.124939,58.364876 215.368317,58.364876 
	C215.368317,75.803070 215.368317,92.875626 215.368317,109.999924 
	C222.235321,109.999924 228.735916,110.091614 235.232437,109.968712 
	C239.805634,109.882187 244.373306,109.503944 248.995987,108.290421 
M185.533600,78.999931 
	C193.627625,78.999931 201.721649,78.999931 209.700500,78.999931 
	C209.700500,71.662056 209.700500,64.922539 209.700500,58.299644 
	C198.328247,58.299644 187.257660,58.299644 176.300949,58.299644 
	C176.300949,65.342072 176.300949,72.081581 176.300949,78.999954 
	C179.247269,78.999954 181.895630,78.999954 185.533600,78.999931 
M101.495911,53.999916 
	C106.262978,53.999916 111.030037,53.999916 115.999916,53.999916 
	C115.999916,51.306999 115.797318,49.141838 116.043541,47.028984 
	C116.506760,43.054100 114.973892,41.733707 110.980591,41.919086 
	C104.502853,42.219791 97.998947,41.896679 91.509689,42.022526 
	C79.557045,42.254318 81.043167,39.520962 81.069099,53.014214 
	C81.069595,53.273731 81.399040,53.532619 81.716309,53.999916 
	C87.887970,53.999916 94.192535,53.999916 101.495911,53.999916 
M74.999611,51.362194 
	C74.999611,48.617443 74.999611,45.872692 74.999611,43.253555 
	C59.324066,43.253555 44.297386,43.253555 29.240841,43.253555 
	C29.240841,46.907757 29.240841,50.301971 29.240841,53.998360 
	C43.881519,53.998360 58.283859,54.024265 72.685364,53.926888 
	C73.459030,53.921658 74.225708,52.880398 74.999611,51.362194 
M203.425018,109.999924 
	C205.530991,109.999924 207.636948,109.999924 209.746719,109.999924 
	C209.746719,106.069336 209.746719,102.660645 209.746719,99.280968 
	C199.976532,98.552750 199.976532,98.552750 198.467072,89.256577 
	C194.721375,89.256577 190.975693,89.256577 187.550140,89.256577 
	C186.976166,92.562332 187.454941,96.872650 185.676361,98.234245 
	C183.521164,99.884148 179.458176,99.042000 176.272110,99.274429 
	C176.272110,102.953484 176.272110,106.357933 176.272110,109.999924 
	C185.174545,109.999924 193.806732,109.999924 203.425018,109.999924 
M135.533813,42.998886 
	C132.424591,42.998886 129.315369,42.998886 126.276482,42.998886 
	C126.276482,46.959644 126.276482,50.364712 126.276482,53.724312 
	C141.295029,53.724312 156.034378,53.724312 170.720886,53.724312 
	C170.720886,50.035995 170.720886,46.629494 170.720886,42.998886 
	C159.136673,42.998886 147.829910,42.998886 135.533813,42.998886 
M188.510742,53.999916 
	C192.507645,53.999916 196.505798,54.064720 200.501205,53.987316 
	C210.956909,53.784756 210.049530,56.173855 209.927475,43.963615 
	C209.924911,43.705803 209.590286,43.451309 209.477768,43.291008 
	C198.328766,43.291008 187.259033,43.291008 176.294052,43.291008 
	C176.294052,46.996712 176.294052,50.403019 176.294052,53.999916 
	C180.228775,53.999916 183.872864,53.999916 188.510742,53.999916 
M15.435537,42.998886 
	C13.028255,42.998886 10.620974,42.998886 8.240882,42.998886 
	C8.240882,46.943417 8.240882,50.323833 8.240882,53.800842 
	C12.194473,53.800842 15.904936,53.800842 19.999826,53.800842 
	C19.999826,51.180130 19.787603,48.727921 20.053177,46.328598 
	C20.390322,43.282673 18.968515,42.611843 15.435537,42.998886 
z"/>
<path fill="#131313" opacity="1.000000" stroke="none" 
	d="
M1.000000,42.468658 
	C1.332096,43.224224 1.950073,44.447613 1.953658,45.672798 
	C2.012980,65.944778 1.998725,86.216995 1.978015,106.489143 
	C1.977358,107.132362 1.732607,107.775345 1.300824,108.709213 
	C1.000000,86.979103 1.000000,64.958214 1.000000,42.468658 
z"/>
<path fill="#FFFFFF" opacity="1.000000" stroke="none" 
	d="
M131.000000,58.000084 
	C144.476257,58.000084 157.452515,58.000084 170.713776,58.000084 
	C170.713776,75.288513 170.713776,92.359604 170.713776,109.716072 
	C116.707840,109.716072 62.640373,109.716072 8.286261,109.716072 
	C8.286261,92.711502 8.286261,75.640358 8.286261,58.000084 
	C48.982185,58.000084 89.741089,58.000084 131.000000,58.000084 
M106.465027,99.999924 
	C87.697762,99.999924 68.930496,99.999924 50.298943,99.999924 
	C50.298943,102.996384 50.298943,105.404297 50.298943,107.707275 
	C72.344795,107.707275 94.090828,107.707275 115.697891,107.707275 
	C115.697891,104.999306 115.697891,102.591537 115.697891,99.999924 
	C112.750381,99.999924 110.102196,99.999924 106.465027,99.999924 
M169.000061,84.353462 
	C169.000061,79.725845 169.000061,75.098236 169.000061,69.884926 
	C163.860886,69.884926 158.963821,69.884926 153.656265,69.884926 
	C154.127625,73.776985 154.487259,76.746468 154.891632,80.085510 
	C151.480621,80.085510 148.397491,80.085510 145.209976,80.085510 
	C145.209976,82.846748 145.209976,85.243454 145.209976,87.998459 
	C152.504959,87.998459 159.599548,88.082771 166.685989,87.880913 
	C167.480896,87.858276 168.229660,86.214958 169.000061,84.353462 
M140.065231,90.666656 
	C140.065231,93.068741 140.065231,95.470818 140.065231,97.740738 
	C150.029037,97.740738 159.397369,97.740738 168.755737,97.740738 
	C168.755737,95.079811 168.755737,92.687973 168.755737,90.049850 
	C159.272293,90.049850 150.030533,90.049850 140.065231,90.666656 
M23.504827,98.000076 
	C27.935946,98.000076 32.367062,98.000076 36.733894,98.000076 
	C36.733894,95.053009 36.733894,92.651672 36.733894,90.132393 
	C27.864710,90.132393 19.260229,90.132393 10.666023,90.132393 
	C7.857056,97.958580 7.885190,97.999596 16.033953,98.000053 
	C18.193991,98.000175 20.354027,98.000076 23.504827,98.000076 
M160.471756,59.999916 
	C156.724243,59.999916 152.976746,59.999916 149.231781,59.999916 
	C149.231781,62.906418 149.231781,65.296799 149.231781,67.657928 
	C155.959991,67.657928 162.450974,67.657928 168.672104,67.657928 
	C168.672104,64.914391 168.672104,62.528816 168.672104,59.999916 
	C166.045883,59.999916 163.746719,59.999916 160.471756,59.999916 
M16.624336,78.000076 
	C20.378811,78.000076 24.133286,78.000076 27.689426,78.000076 
	C27.689426,74.970337 27.689426,72.566383 27.689426,70.000053 
	C22.578470,70.000053 17.772102,69.884415 12.978880,70.084175 
	C11.830334,70.132042 10.071779,70.993774 9.746762,71.896378 
	C9.195935,73.426071 8.907598,76.293999 9.680852,76.796700 
	C11.268847,77.829048 13.631893,77.669189 16.624336,78.000076 
M9.999824,103.310272 
	C9.728698,104.786423 9.457571,106.262573 9.188188,107.729233 
	C14.628036,107.729233 19.709564,107.729233 24.729403,107.729233 
	C24.729403,105.047684 24.729403,102.644585 24.729403,100.000511 
	C20.495958,100.000511 16.520151,99.856293 12.569839,100.109634 
	C11.668159,100.167458 10.854511,101.597992 9.999824,103.310272 
M162.485840,108.000076 
	C164.573242,108.000076 166.660645,108.000076 168.779877,108.000076 
	C168.779877,105.106285 168.779877,102.719688 168.779877,100.336876 
	C164.053711,100.336876 159.555588,100.336876 155.316437,100.336876 
	C155.316437,103.069572 155.316437,105.460945 155.316437,108.000076 
	C157.593796,108.000076 159.555695,108.000076 162.485840,108.000076 
M22.998848,63.384033 
	C23.080746,61.528919 23.372942,59.688046 20.397451,59.951729 
	C17.753855,60.185997 15.068727,60.096684 12.409868,59.975739 
	C9.303563,59.834442 8.475791,61.743252 9.121754,64.093063 
	C9.525711,65.562546 10.905862,67.490601 12.206770,67.827522 
	C14.547610,68.433777 17.262033,68.418694 19.615601,67.836014 
	C20.953102,67.504883 21.884487,65.533348 22.998848,63.384033 
M15.570309,88.000076 
	C17.325775,88.000076 19.081242,88.000076 20.730282,88.000076 
	C20.730282,84.997940 20.730282,82.587517 20.730282,80.507950 
	C17.886049,79.972305 15.341540,79.067825 12.850034,79.195740 
	C11.520205,79.264015 9.477013,80.909981 9.148860,82.198631 
	C8.036258,86.567841 9.874559,88.844559 15.570309,88.000076 
M131.666641,107.999832 
	C134.731308,107.999832 137.795990,107.999832 140.729340,107.999832 
	C140.729340,105.008492 140.729340,102.619751 140.729340,100.223038 
	C136.742569,100.223038 133.030457,100.223038 128.147934,100.223038 
	C129.116638,103.149887 129.918671,105.573204 131.666641,107.999832 
M98.000015,72.851891 
	C98.000015,74.457245 98.000015,76.062599 98.000015,77.796524 
	C101.491745,77.796524 104.564140,77.796524 107.811623,77.796524 
	C107.811623,75.187538 107.811623,72.782433 107.811623,70.320938 
	C105.070038,70.030907 102.503845,69.580780 99.943443,69.611626 
	C99.286583,69.619537 98.648010,71.145256 98.000015,72.851891 
M40.633839,100.000343 
	C35.007057,101.080856 39.537762,105.188141 37.765278,107.686287 
	C41.544662,107.686287 44.710197,107.686287 47.718727,107.686287 
	C47.718727,104.975784 47.718727,102.590538 47.718727,99.999977 
	C45.488365,99.999977 43.537434,99.999977 40.633839,100.000343 
M109.738251,77.943428 
	C112.790718,77.943428 115.843193,77.943428 118.711075,77.943428 
	C118.711075,74.967926 118.711075,72.579437 118.711075,70.243462 
	C115.368042,70.243462 112.318657,70.243462 109.060150,70.243462 
	C109.060150,72.750969 109.060150,75.022545 109.738251,77.943428 
M70.521263,79.999924 
	C69.099228,79.999924 67.677193,79.999924 66.215874,79.999924 
	C66.215874,82.894501 66.215874,85.277992 66.215874,87.656891 
	C69.610176,87.656891 72.774193,87.656891 75.866768,87.656891 
	C75.866768,85.041008 75.866768,82.771019 75.866768,79.999947 
	C74.318588,79.999947 72.896378,79.999947 70.521263,79.999924 
M75.003975,75.346352 
	C77.175446,80.603638 81.448570,76.779572 84.810486,78.125542 
	C84.810486,75.175446 84.810486,72.772896 84.810486,69.796944 
	C81.690498,69.796944 78.745949,69.796944 75.237518,69.796944 
	C75.160553,71.319885 75.080925,72.895500 75.003975,75.346352 
M78.999100,65.413429 
	C78.999100,63.675873 78.999100,61.938316 78.999100,60.243465 
	C75.369644,60.243465 72.320747,60.243465 69.208725,60.243465 
	C69.208725,62.875717 69.208725,65.260277 69.208725,68.748695 
	C72.745155,67.882172 75.870178,67.116455 78.999100,65.413429 
M115.995232,91.649918 
	C112.758476,90.911873 109.521713,90.173820 106.321754,89.444168 
	C106.321754,93.097458 106.321754,95.485481 106.321754,97.725693 
	C109.698647,97.725693 112.750183,97.725693 115.999100,97.725693 
	C115.999100,95.831009 115.999100,94.209068 115.995232,91.649918 
M64.413239,67.999908 
	C71.847809,68.124260 66.236443,62.792309 68.243767,60.328667 
	C64.424751,60.328667 61.259312,60.328667 58.299107,60.328667 
	C58.299107,63.051144 58.299107,65.439613 58.299107,68.000038 
	C60.221962,68.000038 61.848118,68.000038 64.413239,67.999908 
M28.522081,59.999958 
	C27.100115,59.999958 25.678146,59.999958 24.217331,59.999958 
	C24.217331,62.895332 24.217331,65.279419 24.217331,67.656616 
	C27.611839,67.656616 30.775728,67.656616 33.867325,67.656616 
	C33.867325,65.040428 33.867325,62.770412 33.867325,59.999920 
	C32.333557,59.999920 30.904240,59.999920 28.522081,59.999958 
M109.998482,82.465782 
	C107.746925,77.055763 103.465782,81.470512 100.194176,79.825775 
	C100.194176,82.851547 100.194176,85.237350 100.194176,87.598663 
	C109.514191,88.611649 109.590446,88.578056 109.998482,82.465782 
M42.920189,77.971230 
	C45.504551,77.971230 48.088917,77.971230 50.644730,77.971230 
	C50.644730,75.060104 50.644730,72.565453 50.644730,70.292152 
	C47.225185,70.292152 44.164799,70.292152 40.510551,70.292152 
	C41.092506,72.991508 41.588947,75.294197 42.920189,77.971230 
M30.062344,70.689476 
	C30.062344,73.084114 30.062344,75.478760 30.062344,77.829140 
	C40.621647,78.285461 40.621647,78.285461 39.497341,70.054901 
	C36.607952,70.054901 33.680782,70.054901 30.062344,70.689476 
M37.334805,88.000061 
	C44.213249,88.569260 41.446899,83.638374 42.057537,79.999954 
	C40.066315,79.999954 38.463062,79.999954 36.859810,79.999954 
	C35.286827,79.999954 33.713844,79.999954 32.269608,79.999954 
	C32.269608,83.004837 32.269608,85.393944 32.269608,88.000046 
	C33.828930,88.000046 35.120682,88.000046 37.334805,88.000061 
M72.005280,91.646332 
	C72.005280,93.711578 72.005280,95.776833 72.005280,97.801903 
	C82.572166,98.322212 82.572166,98.322212 81.484695,89.750160 
	C78.367729,90.064919 75.214088,90.383369 72.005280,91.646332 
M63.570202,97.999443 
	C71.624878,98.000381 71.624878,98.000381 70.501305,90.201492 
	C67.462898,90.201492 64.414658,90.201492 60.213455,90.201492 
	C61.128490,93.140877 61.884079,95.568085 63.570202,97.999443 
M112.998856,63.386742 
	C111.737770,55.697338 106.208824,62.469368 103.220016,59.301132 
	C103.220016,62.903885 103.220016,65.291107 103.220016,67.998749 
	C105.534676,67.998749 107.781883,68.455261 109.686012,67.843658 
	C111.031052,67.411636 111.911118,65.531975 112.998856,63.386742 
M145.223679,60.003052 
	C142.605698,60.003052 139.987732,60.003052 137.192291,60.003052 
	C137.192291,62.802456 137.192291,65.207039 137.192291,67.805710 
	C140.137863,67.805710 142.894638,67.805710 146.148102,67.805710 
	C146.148102,65.129417 146.148102,62.584213 145.223679,60.003052 
M42.703354,89.999939 
	C37.225822,90.384972 37.181252,90.493210 39.495911,97.744095 
	C42.259483,97.744095 45.006142,97.744095 47.754929,97.744095 
	C47.754929,95.075226 47.754929,92.668488 47.754929,89.999939 
	C46.219746,89.999939 44.916870,89.999939 42.703354,89.999939 
M124.383827,97.999634 
	C129.967804,96.886612 125.475479,92.812187 127.219551,90.321518 
	C123.776436,90.321518 120.944969,90.321518 118.285835,90.321518 
	C118.285835,93.036575 118.285835,95.424202 118.285835,98.000008 
	C120.193382,98.000008 121.816475,98.000008 124.383827,97.999634 
M95.261658,77.944443 
	C95.558365,75.355118 95.855072,72.765793 96.138878,70.289017 
	C92.608360,70.289017 89.889595,70.289017 87.252380,70.289017 
	C87.252380,72.970825 87.252380,75.356934 87.252380,77.995972 
	C89.774269,77.995972 92.046783,77.995972 95.261658,77.944443 
M129.728607,97.945396 
	C132.450256,97.945396 135.171906,97.945396 137.716064,97.945396 
	C137.716064,94.968758 137.716064,92.580963 137.716064,90.241508 
	C134.709747,90.241508 131.992859,90.241508 129.056793,90.241508 
	C129.056793,92.748238 129.056793,95.016487 129.728607,97.945396 
M52.999790,85.408440 
	C52.999790,83.670982 52.999790,81.933525 52.999790,80.245178 
	C49.701611,80.245178 46.984722,80.245178 44.207710,80.245178 
	C44.207710,82.879051 44.207710,85.263359 44.207710,88.779259 
	C47.428005,87.887894 50.211998,87.117294 52.999790,85.408440 
M63.999790,85.408424 
	C63.999790,83.670982 63.999790,81.933540 63.999790,80.245125 
	C60.701675,80.245125 57.984806,80.245125 55.207794,80.245125 
	C55.207794,82.878914 55.207794,85.263184 55.207794,88.779099 
	C58.407284,87.893532 61.201633,87.120102 63.999790,85.408424 
M95.000359,95.411217 
	C96.538277,101.385612 100.894203,96.296143 103.665619,98.200104 
	C103.665619,95.097649 103.665619,92.601036 103.665619,90.290573 
	C100.607430,90.290573 97.888962,90.290573 94.999985,90.290573 
	C94.999985,91.876259 94.999985,93.172256 95.000359,95.411217 
M89.439690,98.000069 
	C96.871933,98.086784 91.224838,92.779381 93.229012,90.336853 
	C89.743248,90.336853 86.912056,90.336853 84.125061,90.336853 
	C84.125061,92.945641 84.125061,95.215164 84.125061,97.802475 
	C85.644562,97.871101 87.072281,97.935593 89.439690,98.000069 
M81.559837,79.999931 
	C74.128578,79.912827 79.775406,85.220520 77.770012,87.663033 
	C81.254433,87.663033 84.085785,87.663033 86.873734,87.663033 
	C86.873734,85.056099 86.873734,82.787064 86.873734,80.198990 
	C85.345016,80.129433 83.922203,80.064705 81.559837,79.999931 
M89.056953,87.286476 
	C91.988838,87.579018 94.920723,87.871559 97.699684,88.148849 
	C97.699684,84.936768 97.699684,82.548195 97.699684,80.257484 
	C94.675926,80.257484 91.958359,80.257484 89.004013,80.257484 
	C89.004013,82.453308 89.004013,84.399834 89.056953,87.286476 
M50.000210,92.591560 
	C50.000210,94.329018 50.000210,96.066475 50.000210,97.754822 
	C53.298389,97.754822 56.015278,97.754822 58.792290,97.754822 
	C58.792290,95.120949 58.792290,92.736641 58.792290,89.220734 
	C55.571995,90.112106 52.788002,90.882706 50.000210,92.591560 
M114.615837,80.000206 
	C109.031555,81.112938 113.524445,85.188278 111.779427,87.678635 
	C115.222572,87.678635 118.054222,87.678635 120.714165,87.678635 
	C120.714165,84.963638 120.714165,82.575951 120.714165,79.999924 
	C118.809532,79.999924 117.184853,79.999924 114.615837,80.000206 
M124.680725,80.003731 
	C123.937561,82.541237 123.194405,85.078751 122.428062,87.695435 
	C126.423225,87.695435 129.142883,87.695435 131.731186,87.695435 
	C131.731186,84.997116 131.731186,82.609947 131.731186,80.000191 
	C129.516495,80.000191 127.568413,80.000191 124.680725,80.003731 
M139.439789,88.000069 
	C146.871841,88.086746 141.224808,82.779388 143.229202,80.336746 
	C139.744431,80.336746 136.912704,80.336746 134.125214,80.336746 
	C134.125214,82.943871 134.125214,85.213295 134.125214,87.802017 
	C135.654251,87.871231 137.077194,87.935646 139.439789,88.000069 
M100.262039,67.944771 
	C100.558617,65.355370 100.855202,62.765976 101.138916,60.288902 
	C97.608566,60.288902 94.889793,60.288902 92.252579,60.288902 
	C92.252579,62.971046 92.252579,65.353119 92.252579,67.996216 
	C94.774612,67.996216 97.047127,67.996216 100.262039,67.944771 
M44.995789,66.347046 
	C44.995789,64.285179 44.995789,62.223320 44.995789,60.260834 
	C41.667538,60.260834 38.950268,60.260834 36.223465,60.260834 
	C36.223465,62.911854 36.223465,65.296341 36.223465,68.292633 
	C39.308571,67.937225 42.125610,67.612694 44.995789,66.347046 
M53.376617,60.000179 
	C51.308228,60.000179 49.239834,60.000179 47.256073,60.000179 
	C47.256073,62.977428 47.256073,65.359001 47.256073,67.785187 
	C50.231628,67.785187 52.946838,67.785187 56.821312,67.785187 
	C55.891647,64.893257 55.105740,62.448521 53.376617,60.000179 
M84.559921,68.000076 
	C86.303871,68.000076 88.047813,68.000076 89.761185,68.000076 
	C89.761185,65.057999 89.761185,62.672886 89.761185,60.198074 
	C86.804268,60.198074 84.089088,60.198074 80.687843,60.198074 
	C82.530098,62.811359 78.022774,66.895615 84.559921,68.000076 
M31.495850,99.999931 
	C30.073364,100.064926 28.650877,100.129929 27.223082,100.195168 
	C27.223082,102.910927 27.223082,105.295235 27.223082,107.644836 
	C30.290007,107.644836 33.119122,107.644836 36.560795,107.644836 
	C34.483990,104.997932 39.272209,99.710655 31.495850,99.999931 
M115.058784,60.699425 
	C115.058784,63.090420 115.058784,65.481415 115.058784,67.727768 
	C118.358559,67.727768 121.075394,67.727768 123.764511,67.727768 
	C123.764511,65.063538 123.764511,62.681000 123.764511,60.053959 
	C120.935631,60.053959 118.338776,60.053959 115.058784,60.699425 
M129.560120,68.000023 
	C131.304016,68.000023 133.047913,68.000023 134.761200,68.000023 
	C134.761200,65.057968 134.761200,62.672897 134.761200,60.197998 
	C131.804047,60.197998 129.089050,60.197998 125.688187,60.197998 
	C127.529434,62.811455 123.023720,66.895294 129.560120,68.000023 
M137.439743,78.000069 
	C144.871902,78.086784 139.224792,72.779366 141.229141,70.336792 
	C137.744385,70.336792 134.912643,70.336792 132.125137,70.336792 
	C132.125137,72.945068 132.125137,75.213860 132.125137,77.802208 
	C133.654129,77.871361 135.077103,77.935715 137.439743,78.000069 
M118.056953,107.286469 
	C120.988838,107.579018 123.920723,107.871559 126.699684,108.148849 
	C126.699684,104.936768 126.699684,102.548195 126.699684,100.257484 
	C123.675926,100.257484 120.958359,100.257484 118.004013,100.257484 
	C118.004013,102.453232 118.004013,104.399796 118.056953,107.286469 
M148.439972,78.000069 
	C155.871597,78.086960 150.224701,72.779434 152.229599,70.336853 
	C148.743881,70.336853 145.912750,70.336853 143.125732,70.336853 
	C143.125732,72.943878 143.125732,75.213112 143.125732,77.801514 
	C144.654617,77.870895 146.077499,77.935471 148.439972,78.000069 
M144.676178,107.996162 
	C147.070526,107.996162 149.464859,107.996162 151.729095,107.996162 
	C151.729095,104.993439 151.729095,102.611588 151.729095,100.229416 
	C148.737259,100.229416 146.021301,100.229416 142.723419,100.229416 
	C143.086029,102.987274 143.412003,105.466568 144.676178,107.996162 
M128.323822,70.003838 
	C125.929497,70.003838 123.535179,70.003838 121.270844,70.003838 
	C121.270844,73.005547 121.270844,75.392532 121.270844,77.770523 
	C124.262596,77.770523 126.978508,77.770523 130.276459,77.770523 
	C129.913879,75.012642 129.587936,72.533394 128.323822,70.003838 
M64.003960,71.652565 
	C64.003960,73.714417 64.003960,75.776276 64.003960,77.739021 
	C67.332863,77.739021 70.050064,77.739021 72.776413,77.739021 
	C72.776413,75.087875 72.776413,72.703400 72.776413,69.707481 
	C69.691193,70.062706 66.874100,70.387062 64.003960,71.652565 
M52.999928,73.534668 
	C53.068760,74.951424 53.137596,76.368179 53.205723,77.770454 
	C56.265430,77.770454 58.981369,77.770454 61.808884,77.770454 
	C61.808884,75.155121 61.808884,72.771599 61.808884,70.001259 
	C59.539528,70.001259 57.393734,69.742332 55.365894,70.118790 
	C54.455696,70.287758 53.781498,71.727989 52.999928,73.534668 
M30.237291,80.050369 
	C27.852480,80.050369 25.467667,80.050369 23.282787,80.050369 
	C23.282787,83.064514 23.282787,85.458771 23.282787,87.831657 
	C31.086832,88.188942 31.086832,88.188942 30.237291,80.050369 
z"/>
<path fill="#FFFFFF" opacity="1.000000" stroke="none" 
	d="
M248.969727,108.773186 
	C244.373306,109.503944 239.805634,109.882187 235.232437,109.968712 
	C228.735916,110.091614 222.235321,109.999924 215.368317,109.999924 
	C215.368317,92.875626 215.368317,75.803070 215.368317,58.364876 
	C226.124939,58.364876 237.200302,58.364876 248.995987,58.364876 
	C248.995987,74.803749 248.995987,91.547081 248.969727,108.773186 
M227.483063,99.999924 
	C223.702744,99.999924 219.922440,99.999924 214.982712,99.999924 
	C217.421097,102.908295 213.454239,107.585068 219.044861,107.919174 
	C224.959473,108.272636 230.911606,107.998497 236.700775,107.998497 
	C236.700775,105.002777 236.700775,102.595894 236.700775,99.999924 
	C233.758133,99.999924 231.111862,99.999924 227.483063,99.999924 
M240.605789,107.999367 
	C242.675934,107.999367 244.746078,107.999367 246.754028,107.999367 
	C246.754028,101.684662 246.754028,95.979233 246.754028,90.218521 
	C243.784103,90.218521 241.064392,90.218521 238.004105,90.218521 
	C238.004105,95.677185 237.949509,100.926292 238.076675,106.170982 
	C238.091721,106.791328 239.102417,107.387527 240.605789,107.999367 
M227.000015,82.851891 
	C227.000015,84.457260 227.000015,86.062630 227.000015,87.796646 
	C230.491852,87.796646 233.564285,87.796646 236.811676,87.796646 
	C236.811676,85.187721 236.811676,82.782562 236.811676,80.320915 
	C234.069473,80.030830 231.503555,79.580719 228.943481,79.611649 
	C228.286591,79.619583 227.648026,81.145279 227.000015,82.851891 
M236.998428,92.583389 
	C236.212799,91.722885 235.516876,90.251228 234.624161,90.120163 
	C232.251892,89.771889 229.794724,90.001877 227.337250,90.001877 
	C227.337250,92.902473 227.337250,95.398033 227.337250,97.710632 
	C230.729904,97.710632 233.780884,97.710632 236.998779,97.710632 
	C236.998779,96.128319 236.998779,94.830116 236.998428,92.583389 
M227.004013,61.648361 
	C227.004013,63.710094 227.004013,65.771828 227.004013,67.741753 
	C230.665054,67.741753 233.715240,67.741753 236.775909,67.741753 
	C236.775909,65.092712 236.775909,62.708363 236.775909,59.725842 
	C233.363968,60.068436 230.211578,60.384972 227.004013,61.648361 
M236.931396,70.624573 
	C233.763107,70.348122 230.594803,70.071671 227.319733,69.785904 
	C227.319733,72.885017 227.319733,75.385612 227.319733,77.866623 
	C236.995575,78.218231 236.995575,78.218231 236.931396,70.624573 
M216.786911,87.954544 
	C219.401184,87.954544 222.015457,87.954544 224.811859,87.954544 
	C224.811859,84.914330 224.811859,82.205376 224.811859,79.503304 
	C215.879547,78.586166 215.879547,78.586166 216.786911,87.954544 
M247.947311,76.438293 
	C247.824860,74.353149 247.702423,72.268005 247.582413,70.224411 
	C244.475784,70.224411 241.393066,70.224411 238.203156,70.224411 
	C238.203156,72.848625 238.203156,75.245331 238.203156,78.357658 
	C241.430161,77.908096 244.398758,77.494530 247.947311,76.438293 
M247.422928,80.074585 
	C244.335342,80.074585 241.247742,80.074585 238.287704,80.074585 
	C238.287704,83.014481 238.287704,85.412666 238.287704,87.758438 
	C241.328003,87.758438 244.077484,87.758438 246.634674,87.758438 
	C246.998657,85.279488 247.324036,83.063408 247.422928,80.074585 
M224.943420,77.294571 
	C224.943420,74.999229 224.943420,72.703896 224.943420,69.730652 
	C221.906982,69.730652 219.084656,69.730652 216.314056,69.730652 
	C215.710388,78.062752 215.710388,78.063301 223.308029,77.994408 
	C223.638107,77.991409 223.967911,77.961205 224.943420,77.294571 
M246.999786,65.408379 
	C246.999786,63.671112 246.999786,61.933849 246.999786,60.245445 
	C243.701141,60.245445 240.985519,60.245445 238.209137,60.245445 
	C238.209137,62.879440 238.209137,65.263153 238.209137,68.778358 
	C241.429062,67.887238 244.212524,67.116913 246.999786,65.408379 
M216.729752,67.944397 
	C219.451035,67.944397 222.172318,67.944397 224.716522,67.944397 
	C224.716522,64.969177 224.716522,62.581562 224.716522,60.241745 
	C221.710983,60.241745 218.994446,60.241745 216.057922,60.241745 
	C216.057922,62.748291 216.057922,65.016167 216.729752,67.944397 
M222.480148,97.999725 
	C227.847488,96.713356 223.562515,92.807045 225.107544,90.342453 
	C221.716125,90.342453 218.885223,90.342453 216.076263,90.342453 
	C215.942230,94.588287 214.907181,99.177734 222.480148,97.999725 
z"/>
<path fill="#FFFFFF" opacity="1.000000" stroke="none" 
	d="
M185.038788,78.999939 
	C181.895630,78.999954 179.247269,78.999954 176.300949,78.999954 
	C176.300949,72.081581 176.300949,65.342072 176.300949,58.299644 
	C187.257660,58.299644 198.328247,58.299644 209.700500,58.299644 
	C209.700500,64.922539 209.700500,71.662056 209.700500,78.999931 
	C201.721649,78.999931 193.627625,78.999931 185.038788,78.999939 
M207.995789,76.337219 
	C207.995789,74.275185 207.995789,72.213150 207.995789,70.263962 
	C204.999557,70.263962 202.612808,70.263962 200.225067,70.263962 
	C200.225067,72.918129 200.225067,75.302628 200.225067,78.266678 
	C202.979111,77.914261 205.461060,77.596657 207.995789,76.337219 
M195.337723,70.003769 
	C193.275620,70.003769 191.213501,70.003769 189.264328,70.003769 
	C189.264328,73.000000 189.264328,75.386688 189.264328,77.774414 
	C191.918732,77.774414 194.303162,77.774414 197.266922,77.774414 
	C196.914627,75.020355 196.597137,72.538353 195.337723,70.003769 
M178.058273,77.279282 
	C180.652878,77.565567 183.247498,77.851845 185.704834,78.122986 
	C185.704834,74.939682 185.704834,72.554092 185.704834,70.255333 
	C183.016968,70.255333 180.630722,70.255333 178.004272,70.255333 
	C178.004272,72.447014 178.004272,74.391708 178.058273,77.279282 
M200.708206,67.941666 
	C203.099854,67.941666 205.491501,67.941666 207.723175,67.941666 
	C207.723175,64.975174 207.723175,62.586723 207.723175,60.238453 
	C205.053680,60.238453 202.667328,60.238453 200.056244,60.238453 
	C200.056244,62.741142 200.056244,65.008507 200.708206,67.941666 
M193.465042,68.000069 
	C200.847717,68.028458 195.241791,62.776302 197.189453,60.347641 
	C194.063187,60.347641 191.563324,60.347641 187.321381,60.347641 
	C191.124588,62.705498 185.352219,68.420776 193.465042,68.000069 
M186.000061,63.534946 
	C186.028412,56.152313 180.776321,61.758167 178.347641,59.810574 
	C178.347641,62.936832 178.347641,65.436699 178.347641,68.583290 
	C180.963196,66.419502 186.281906,71.354614 186.000061,63.534946 
z"/>
<path fill="#FFFFFF" opacity="1.000000" stroke="none" 
	d="
M100.996506,53.999916 
	C94.192535,53.999916 87.887970,53.999916 81.716309,53.999916 
	C81.399040,53.532619 81.069595,53.273731 81.069099,53.014214 
	C81.043167,39.520962 79.557045,42.254318 91.509689,42.022526 
	C97.998947,41.896679 104.502853,42.219791 110.980591,41.919086 
	C114.973892,41.733707 116.506760,43.054100 116.043541,47.028984 
	C115.797318,49.141838 115.999916,51.306999 115.999916,53.999916 
	C111.030037,53.999916 106.262978,53.999916 100.996506,53.999916 
M91.993553,46.241688 
	C90.336945,42.917400 86.558449,43.375359 84.873260,44.363979 
	C83.236420,45.324238 83.127930,48.889679 82.209427,51.742386 
	C86.167564,51.742386 89.025261,51.742386 91.999672,51.742386 
	C91.999672,50.017185 91.999672,48.549438 91.993553,46.241688 
M95.619576,51.995987 
	C97.278236,51.992447 99.440079,52.631165 100.469582,51.824581 
	C101.789146,50.790752 102.552971,48.650032 102.833374,46.872223 
	C102.955002,46.101112 101.293159,44.295681 100.405518,44.271397 
	C98.410110,44.216820 96.392296,44.981651 93.820068,45.533947 
	C94.101219,47.581696 94.400658,49.762646 95.619576,51.995987 
M105.061134,51.310547 
	C107.583145,51.612209 110.105156,51.913872 112.831757,52.240002 
	C112.831757,49.180183 112.831757,46.774666 112.831757,44.987701 
	C110.116241,44.681160 107.691185,44.407410 105.004234,44.104092 
	C105.004234,46.413605 105.004234,48.396847 105.061134,51.310547 
z"/>
<path fill="#FFFFFF" opacity="1.000000" stroke="none" 
	d="
M74.997620,51.841805 
	C74.225708,52.880398 73.459030,53.921658 72.685364,53.926888 
	C58.283859,54.024265 43.881519,53.998360 29.240841,53.998360 
	C29.240841,50.301971 29.240841,46.907757 29.240841,43.253555 
	C44.297386,43.253555 59.324066,43.253555 74.999611,43.253555 
	C74.999611,45.872692 74.999611,48.617443 74.997620,51.841805 
M42.000126,47.535416 
	C42.068878,48.951920 42.137630,50.368423 42.205700,51.770893 
	C45.265152,51.770893 47.980812,51.770893 50.808640,51.770893 
	C50.808640,49.156380 50.808640,46.773243 50.808640,44.002472 
	C48.539726,44.002472 46.394249,43.743526 44.366756,44.119984 
	C43.456444,44.289009 42.782120,45.729008 42.000126,47.535416 
M39.941822,44.714802 
	C37.010578,44.422245 34.079338,44.129688 31.300642,43.852360 
	C31.300642,47.064606 31.300642,49.452740 31.300642,51.742493 
	C34.326599,51.742493 37.044033,51.742493 39.995102,51.742493 
	C39.995102,49.543262 39.995102,47.598969 39.941822,44.714802 
M72.995789,50.347408 
	C72.995789,48.285858 72.995789,46.224308 72.995789,44.262421 
	C69.667046,44.262421 66.950317,44.262421 64.223969,44.262421 
	C64.223969,46.913109 64.223969,49.294640 64.223969,52.292568 
	C67.305084,51.937717 70.123856,51.613083 72.995789,50.347408 
M61.999783,49.408932 
	C61.999783,47.671741 61.999783,45.934551 61.999783,44.246933 
	C58.700905,44.246933 55.984562,44.246933 53.208168,44.246933 
	C53.208168,46.881145 53.208168,49.264977 53.208168,52.779480 
	C56.428509,51.888119 59.212246,51.117603 61.999783,49.408932 
z"/>
<path fill="#FFFFFF" opacity="1.000000" stroke="none" 
	d="
M202.931976,109.999924 
	C193.806732,109.999924 185.174545,109.999924 176.272110,109.999924 
	C176.272110,106.357933 176.272110,102.953484 176.272110,99.274429 
	C179.458176,99.042000 183.521164,99.884148 185.676361,98.234245 
	C187.454941,96.872650 186.976166,92.562332 187.550140,89.256577 
	C190.975693,89.256577 194.721375,89.256577 198.469818,89.259064 
	C199.976532,98.552750 199.976532,98.552750 209.746719,99.280968 
	C209.746719,102.660645 209.746719,106.069336 209.746719,109.999924 
	C207.636948,109.999924 205.530991,109.999924 202.931976,109.999924 
M208.961334,101.781792 
	C205.775162,100.982994 202.588989,100.184196 199.278046,99.354118 
	C199.278046,103.025436 199.278046,105.411629 199.278046,107.772392 
	C208.865662,108.356567 208.865662,108.356567 208.961334,101.781792 
M185.999786,105.408401 
	C185.999786,103.671089 185.999786,101.933777 185.999786,100.245422 
	C182.702454,100.245422 179.985901,100.245422 177.208908,100.245422 
	C177.208908,102.879105 177.208908,105.262993 177.208908,108.778542 
	C180.428833,107.887398 183.212402,107.117012 185.999786,105.408401 
M190.664032,90.005020 
	C189.928513,92.549438 189.193008,95.093857 188.443024,97.688309 
	C192.100113,97.688309 194.486511,97.688309 196.726013,97.688309 
	C196.726013,94.982887 196.726013,92.595245 196.726013,90.001427 
	C194.834106,90.001427 193.214447,90.001427 190.664032,90.005020 
M196.999786,105.406326 
	C196.999786,103.667526 196.999786,101.928734 196.999786,100.246933 
	C194.034424,100.246933 191.649231,100.246933 189.208786,100.246933 
	C189.208786,102.883507 189.208786,105.268707 189.208786,108.808228 
	C192.120193,107.884491 194.558182,107.110962 196.999786,105.406326 
z"/>
<path fill="#FFFFFF" opacity="1.000000" stroke="none" 
	d="
M136.028488,42.998886 
	C147.829910,42.998886 159.136673,42.998886 170.720886,42.998886 
	C170.720886,46.629494 170.720886,50.035995 170.720886,53.724312 
	C156.034378,53.724312 141.295029,53.724312 126.276482,53.724312 
	C126.276482,50.364712 126.276482,46.959644 126.276482,42.998886 
	C129.315369,42.998886 132.424591,42.998886 136.028488,42.998886 
M127.059807,44.700432 
	C127.059807,47.090992 127.059807,49.481548 127.059807,51.728085 
	C130.356110,51.728085 133.074036,51.728085 135.764160,51.728085 
	C135.764160,49.064640 135.764160,46.679451 135.764160,44.055073 
	C132.935516,44.055073 130.339127,44.055073 127.059807,44.700432 
M146.999252,46.589550 
	C145.460846,40.616447 141.106323,45.704479 138.334854,43.801605 
	C138.334854,46.903862 138.334854,49.400066 138.334854,51.709476 
	C141.393143,51.709476 144.111359,51.709476 146.999878,51.709476 
	C146.999878,50.127151 146.999878,48.829769 146.999252,46.589550 
M168.999786,49.415981 
	C168.999786,47.672207 168.999786,45.928429 168.999786,44.224194 
	C159.476852,43.689564 159.476852,43.689564 160.532791,52.693123 
	C163.403229,51.898457 166.199600,51.124298 168.999786,49.415981 
M152.579742,51.999943 
	C154.320786,51.999943 156.061813,51.999943 157.761658,51.999943 
	C157.761658,49.048336 157.761658,46.659985 157.761658,44.007050 
	C155.586288,44.007050 153.479797,43.545723 151.763062,44.164955 
	C150.565750,44.596825 149.356216,46.422707 149.140030,47.782902 
	C148.873993,49.456970 147.765625,52.462776 152.579742,51.999943 
z"/>
<path fill="#FFFFFF" opacity="1.000000" stroke="none" 
	d="
M188.013855,53.999916 
	C183.872864,53.999916 180.228775,53.999916 176.294052,53.999916 
	C176.294052,50.403019 176.294052,46.996712 176.294052,43.291008 
	C187.259033,43.291008 198.328766,43.291008 209.477768,43.291008 
	C209.590286,43.451309 209.924911,43.705803 209.927475,43.963615 
	C210.049530,56.173855 210.956909,53.784756 200.501205,53.987316 
	C196.505798,54.064720 192.507645,53.999916 188.013855,53.999916 
M200.944733,44.028133 
	C200.353683,46.166348 199.762619,48.304562 199.171555,50.442776 
	C201.947983,51.139851 204.724426,51.836929 207.808533,52.611252 
	C207.808533,49.148308 207.808533,46.761543 207.808533,44.002934 
	C205.699890,44.002934 203.776123,44.002934 200.944733,44.028133 
M186.000031,48.454659 
	C185.924042,47.022552 185.848053,45.590443 185.775482,44.222645 
	C182.988541,44.222645 180.554306,44.222645 176.815247,44.222645 
	C177.708771,47.182003 178.432877,49.580296 179.156998,51.978588 
	C181.341476,50.861298 185.340424,54.544960 186.000031,48.454659 
M196.996231,50.338085 
	C196.996231,48.276123 196.996231,46.214161 196.996231,44.265697 
	C193.999130,44.265697 191.612701,44.265697 189.225311,44.265697 
	C189.225311,46.920124 189.225311,49.301861 189.225311,52.267326 
	C191.979584,51.914982 194.461594,51.597462 196.996231,50.338085 
z"/>
<path fill="#FFFFFF" opacity="1.000000" stroke="none" 
	d="
M15.912152,42.998901 
	C18.968515,42.611843 20.390322,43.282673 20.053177,46.328598 
	C19.787603,48.727921 19.999826,51.180130 19.999826,53.800842 
	C15.904936,53.800842 12.194473,53.800842 8.240882,53.800842 
	C8.240882,50.323833 8.240882,46.943417 8.240882,42.998886 
	C10.620974,42.998886 13.028255,42.998886 15.912152,42.998901 
M9.039135,50.215294 
	C11.884894,50.999916 14.730654,51.784542 17.999935,52.685940 
	C17.999935,50.229492 18.030142,49.091442 17.991852,47.955700 
	C17.949417,46.696907 17.844391,45.440220 17.769112,44.222904 
	C9.134232,43.710186 9.134232,43.710186 9.039135,50.215294 
z"/>
<path fill="#000000" opacity="1.000000" stroke="none" 
	d="
M106.959518,99.999924 
	C110.102196,99.999924 112.750381,99.999924 115.697891,99.999924 
	C115.697891,102.591537 115.697891,104.999306 115.697891,107.707275 
	C94.090828,107.707275 72.344795,107.707275 50.298943,107.707275 
	C50.298943,105.404297 50.298943,102.996384 50.298943,99.999924 
	C68.930496,99.999924 87.697762,99.999924 106.959518,99.999924 
z"/>
<path fill="#000000" opacity="1.000000" stroke="none" 
	d="
M168.999939,84.838333 
	C168.229660,86.214958 167.480896,87.858276 166.685989,87.880913 
	C159.599548,88.082771 152.504959,87.998459 145.209976,87.998459 
	C145.209976,85.243454 145.209976,82.846748 145.209976,80.085510 
	C148.397491,80.085510 151.480621,80.085510 154.891632,80.085510 
	C154.487259,76.746468 154.127625,73.776985 153.656265,69.884926 
	C158.963821,69.884926 163.860886,69.884926 169.000061,69.884926 
	C169.000061,75.098236 169.000061,79.725845 168.999939,84.838333 
z"/>
<path fill="#000000" opacity="1.000000" stroke="none" 
	d="
M140.427002,90.358253 
	C150.030533,90.049850 159.272293,90.049850 168.755737,90.049850 
	C168.755737,92.687973 168.755737,95.079811 168.755737,97.740738 
	C159.397369,97.740738 150.029037,97.740738 140.065231,97.740738 
	C140.065231,95.470818 140.065231,93.068741 140.427002,90.358253 
z"/>
<path fill="#000000" opacity="1.000000" stroke="none" 
	d="
M23.009445,98.000076 
	C20.354027,98.000076 18.193991,98.000175 16.033953,98.000053 
	C7.885190,97.999596 7.857056,97.958580 10.666023,90.132393 
	C19.260229,90.132393 27.864710,90.132393 36.733894,90.132393 
	C36.733894,92.651672 36.733894,95.053009 36.733894,98.000076 
	C32.367062,98.000076 27.935946,98.000076 23.009445,98.000076 
z"/>
<path fill="#000000" opacity="1.000000" stroke="none" 
	d="
M160.959656,59.999916 
	C163.746719,59.999916 166.045883,59.999916 168.672104,59.999916 
	C168.672104,62.528816 168.672104,64.914391 168.672104,67.657928 
	C162.450974,67.657928 155.959991,67.657928 149.231781,67.657928 
	C149.231781,65.296799 149.231781,62.906418 149.231781,59.999916 
	C152.976746,59.999916 156.724243,59.999916 160.959656,59.999916 
z"/>
<path fill="#000000" opacity="1.000000" stroke="none" 
	d="
M16.150124,78.000076 
	C13.631893,77.669189 11.268847,77.829048 9.680852,76.796700 
	C8.907598,76.293999 9.195935,73.426071 9.746762,71.896378 
	C10.071779,70.993774 11.830334,70.132042 12.978880,70.084175 
	C17.772102,69.884415 22.578470,70.000053 27.689426,70.000053 
	C27.689426,72.566383 27.689426,74.970337 27.689426,78.000076 
	C24.133286,78.000076 20.378811,78.000076 16.150124,78.000076 
z"/>
<path fill="#000000" opacity="1.000000" stroke="none" 
	d="
M10.000085,102.853500 
	C10.854511,101.597992 11.668159,100.167458 12.569839,100.109634 
	C16.520151,99.856293 20.495958,100.000511 24.729403,100.000511 
	C24.729403,102.644585 24.729403,105.047684 24.729403,107.729233 
	C19.709564,107.729233 14.628036,107.729233 9.188188,107.729233 
	C9.457571,106.262573 9.728698,104.786423 10.000085,102.853500 
z"/>
<path fill="#000000" opacity="1.000000" stroke="none" 
	d="
M162.001724,108.000076 
	C159.555695,108.000076 157.593796,108.000076 155.316437,108.000076 
	C155.316437,105.460945 155.316437,103.069572 155.316437,100.336876 
	C159.555588,100.336876 164.053711,100.336876 168.779877,100.336876 
	C168.779877,102.719688 168.779877,105.106285 168.779877,108.000076 
	C166.660645,108.000076 164.573242,108.000076 162.001724,108.000076 
z"/>
<path fill="#000000" opacity="1.000000" stroke="none" 
	d="
M22.998806,63.842293 
	C21.884487,65.533348 20.953102,67.504883 19.615601,67.836014 
	C17.262033,68.418694 14.547610,68.433777 12.206770,67.827522 
	C10.905862,67.490601 9.525711,65.562546 9.121754,64.093063 
	C8.475791,61.743252 9.303563,59.834442 12.409868,59.975739 
	C15.068727,60.096684 17.753855,60.185997 20.397451,59.951729 
	C23.372942,59.688046 23.080746,61.528919 22.998806,63.842293 
z"/>
<path fill="#000000" opacity="1.000000" stroke="none" 
	d="
M15.106878,88.000076 
	C9.874559,88.844559 8.036258,86.567841 9.148860,82.198631 
	C9.477013,80.909981 11.520205,79.264015 12.850034,79.195740 
	C15.341540,79.067825 17.886049,79.972305 20.730282,80.507950 
	C20.730282,82.587517 20.730282,84.997940 20.730282,88.000076 
	C19.081242,88.000076 17.325775,88.000076 15.106878,88.000076 
z"/>
<path fill="#000000" opacity="1.000000" stroke="none" 
	d="
M131.193665,107.998169 
	C129.918671,105.573204 129.116638,103.149887 128.147934,100.223038 
	C133.030457,100.223038 136.742569,100.223038 140.729340,100.223038 
	C140.729340,102.619751 140.729340,105.008492 140.729340,107.999832 
	C137.795990,107.999832 134.731308,107.999832 131.193665,107.998169 
z"/>
<path fill="#000000" opacity="1.000000" stroke="none" 
	d="
M98.000526,72.412788 
	C98.648010,71.145256 99.286583,69.619537 99.943443,69.611626 
	C102.503845,69.580780 105.070038,70.030907 107.811623,70.320938 
	C107.811623,72.782433 107.811623,75.187538 107.811623,77.796524 
	C104.564140,77.796524 101.491745,77.796524 98.000015,77.796524 
	C98.000015,76.062599 98.000015,74.457245 98.000526,72.412788 
z"/>
<path fill="#000000" opacity="1.000000" stroke="none" 
	d="
M41.110168,100.000160 
	C43.537434,99.999977 45.488365,99.999977 47.718727,99.999977 
	C47.718727,102.590538 47.718727,104.975784 47.718727,107.686287 
	C44.710197,107.686287 41.544662,107.686287 37.765278,107.686287 
	C39.537762,105.188141 35.007057,101.080856 41.110168,100.000160 
z"/>
<path fill="#000000" opacity="1.000000" stroke="none" 
	d="
M109.399200,77.618774 
	C109.060150,75.022545 109.060150,72.750969 109.060150,70.243462 
	C112.318657,70.243462 115.368042,70.243462 118.711075,70.243462 
	C118.711075,72.579437 118.711075,74.967926 118.711075,77.943428 
	C115.843193,77.943428 112.790718,77.943428 109.399200,77.618774 
z"/>
<path fill="#000000" opacity="1.000000" stroke="none" 
	d="
M70.997711,79.999939 
	C72.896378,79.999947 74.318588,79.999947 75.866768,79.999947 
	C75.866768,82.771019 75.866768,85.041008 75.866768,87.656891 
	C72.774193,87.656891 69.610176,87.656891 66.215874,87.656891 
	C66.215874,85.277992 66.215874,82.894501 66.215874,79.999924 
	C67.677193,79.999924 69.099228,79.999924 70.997711,79.999939 
z"/>
<path fill="#000000" opacity="1.000000" stroke="none" 
	d="
M75.002640,74.908737 
	C75.080925,72.895500 75.160553,71.319885 75.237518,69.796944 
	C78.745949,69.796944 81.690498,69.796944 84.810486,69.796944 
	C84.810486,72.772896 84.810486,75.175446 84.810486,78.125542 
	C81.448570,76.779572 77.175446,80.603638 75.002640,74.908737 
z"/>
<path fill="#000000" opacity="1.000000" stroke="none" 
	d="
M78.997147,65.882080 
	C75.870178,67.116455 72.745155,67.882172 69.208725,68.748695 
	C69.208725,65.260277 69.208725,62.875717 69.208725,60.243465 
	C72.320747,60.243465 75.369644,60.243465 78.999100,60.243465 
	C78.999100,61.938316 78.999100,63.675873 78.997147,65.882080 
z"/>
<path fill="#000000" opacity="1.000000" stroke="none" 
	d="
M115.997162,92.118530 
	C115.999100,94.209068 115.999100,95.831009 115.999100,97.725693 
	C112.750183,97.725693 109.698647,97.725693 106.321754,97.725693 
	C106.321754,95.485481 106.321754,93.097458 106.321754,89.444168 
	C109.521713,90.173820 112.758476,90.911873 115.997162,92.118530 
z"/>
<path fill="#000000" opacity="1.000000" stroke="none" 
	d="
M63.943756,67.999969 
	C61.848118,68.000038 60.221962,68.000038 58.299107,68.000038 
	C58.299107,65.439613 58.299107,63.051144 58.299107,60.328667 
	C61.259312,60.328667 64.424751,60.328667 68.243767,60.328667 
	C66.236443,62.792309 71.847809,68.124260 63.943756,67.999969 
z"/>
<path fill="#000000" opacity="1.000000" stroke="none" 
	d="
M28.998501,59.999939 
	C30.904240,59.999920 32.333557,59.999920 33.867325,59.999920 
	C33.867325,62.770412 33.867325,65.040428 33.867325,67.656616 
	C30.775728,67.656616 27.611839,67.656616 24.217331,67.656616 
	C24.217331,65.279419 24.217331,62.895332 24.217331,59.999958 
	C25.678146,59.999958 27.100115,59.999958 28.998501,59.999939 
z"/>
<path fill="#000000" opacity="1.000000" stroke="none" 
	d="
M109.998672,82.926178 
	C109.590446,88.578056 109.514191,88.611649 100.194176,87.598663 
	C100.194176,85.237350 100.194176,82.851547 100.194176,79.825775 
	C103.465782,81.470512 107.746925,77.055763 109.998672,82.926178 
z"/>
<path fill="#000000" opacity="1.000000" stroke="none" 
	d="
M42.502789,77.784058 
	C41.588947,75.294197 41.092506,72.991508 40.510551,70.292152 
	C44.164799,70.292152 47.225185,70.292152 50.644730,70.292152 
	C50.644730,72.565453 50.644730,75.060104 50.644730,77.971230 
	C48.088917,77.971230 45.504551,77.971230 42.502789,77.784058 
z"/>
<path fill="#000000" opacity="1.000000" stroke="none" 
	d="
M30.407978,70.372192 
	C33.680782,70.054901 36.607952,70.054901 39.497341,70.054901 
	C40.621647,78.285461 40.621647,78.285461 30.062344,77.829140 
	C30.062344,75.478760 30.062344,73.084114 30.407978,70.372192 
z"/>
<path fill="#000000" opacity="1.000000" stroke="none" 
	d="
M36.873619,88.000053 
	C35.120682,88.000046 33.828930,88.000046 32.269608,88.000046 
	C32.269608,85.393944 32.269608,83.004837 32.269608,79.999954 
	C33.713844,79.999954 35.286827,79.999954 36.859810,79.999954 
	C38.463062,79.999954 40.066315,79.999954 42.057537,79.999954 
	C41.446899,83.638374 44.213249,88.569260 36.873619,88.000053 
z"/>
<path fill="#000000" opacity="1.000000" stroke="none" 
	d="
M72.032867,91.174080 
	C75.214088,90.383369 78.367729,90.064919 81.484695,89.750160 
	C82.572166,98.322212 82.572166,98.322212 72.005280,97.801903 
	C72.005280,95.776833 72.005280,93.711578 72.032867,91.174080 
z"/>
<path fill="#000000" opacity="1.000000" stroke="none" 
	d="
M63.104935,97.997360 
	C61.884079,95.568085 61.128490,93.140877 60.213455,90.201492 
	C64.414658,90.201492 67.462898,90.201492 70.501305,90.201492 
	C71.624878,98.000381 71.624878,98.000381 63.104935,97.997360 
z"/>
<path fill="#000000" opacity="1.000000" stroke="none" 
	d="
M112.998810,63.842663 
	C111.911118,65.531975 111.031052,67.411636 109.686012,67.843658 
	C107.781883,68.455261 105.534676,67.998749 103.220016,67.998749 
	C103.220016,65.291107 103.220016,62.903885 103.220016,59.301132 
	C106.208824,62.469368 111.737770,55.697338 112.998810,63.842663 
z"/>
<path fill="#000000" opacity="1.000000" stroke="none" 
	d="
M145.685883,60.021034 
	C146.148102,62.584213 146.148102,65.129417 146.148102,67.805710 
	C142.894638,67.805710 140.137863,67.805710 137.192291,67.805710 
	C137.192291,65.207039 137.192291,62.802456 137.192291,60.003052 
	C139.987732,60.003052 142.605698,60.003052 145.685883,60.021034 
z"/>
<path fill="#000000" opacity="1.000000" stroke="none" 
	d="
M43.158676,89.999939 
	C44.916870,89.999939 46.219746,89.999939 47.754929,89.999939 
	C47.754929,92.668488 47.754929,95.075226 47.754929,97.744095 
	C45.006142,97.744095 42.259483,97.744095 39.495911,97.744095 
	C37.181252,90.493210 37.225822,90.384972 43.158676,89.999939 
z"/>
<path fill="#000000" opacity="1.000000" stroke="none" 
	d="
M123.911697,97.999817 
	C121.816475,98.000008 120.193382,98.000008 118.285835,98.000008 
	C118.285835,95.424202 118.285835,93.036575 118.285835,90.321518 
	C120.944969,90.321518 123.776436,90.321518 127.219551,90.321518 
	C125.475479,92.812187 129.967804,96.886612 123.911697,97.999817 
z"/>
<path fill="#000000" opacity="1.000000" stroke="none" 
	d="
M94.790482,77.970207 
	C92.046783,77.995972 89.774269,77.995972 87.252380,77.995972 
	C87.252380,75.356934 87.252380,72.970825 87.252380,70.289017 
	C89.889595,70.289017 92.608360,70.289017 96.138878,70.289017 
	C95.855072,72.765793 95.558365,75.355118 94.790482,77.970207 
z"/>
<path fill="#000000" opacity="1.000000" stroke="none" 
	d="
M129.392700,97.615067 
	C129.056793,95.016487 129.056793,92.748238 129.056793,90.241508 
	C131.992859,90.241508 134.709747,90.241508 137.716064,90.241508 
	C137.716064,92.580963 137.716064,94.968758 137.716064,97.945396 
	C135.171906,97.945396 132.450256,97.945396 129.392700,97.615067 
z"/>
<path fill="#000000" opacity="1.000000" stroke="none" 
	d="
M52.997887,85.877563 
	C50.211998,87.117294 47.428005,87.887894 44.207710,88.779259 
	C44.207710,85.263359 44.207710,82.879051 44.207710,80.245178 
	C46.984722,80.245178 49.701611,80.245178 52.999790,80.245178 
	C52.999790,81.933525 52.999790,83.670982 52.997887,85.877563 
z"/>
<path fill="#000000" opacity="1.000000" stroke="none" 
	d="
M63.997887,85.877548 
	C61.201633,87.120102 58.407284,87.893532 55.207794,88.779099 
	C55.207794,85.263184 55.207794,82.878914 55.207794,80.245125 
	C57.984806,80.245125 60.701675,80.245125 63.999790,80.245125 
	C63.999790,81.933540 63.999790,83.670982 63.997887,85.877548 
z"/>
<path fill="#000000" opacity="1.000000" stroke="none" 
	d="
M95.000168,94.939728 
	C94.999985,93.172256 94.999985,91.876259 94.999985,90.290573 
	C97.888962,90.290573 100.607430,90.290573 103.665619,90.290573 
	C103.665619,92.601036 103.665619,95.097649 103.665619,98.200104 
	C100.894203,96.296143 96.538277,101.385612 95.000168,94.939728 
z"/>
<path fill="#000000" opacity="1.000000" stroke="none" 
	d="
M88.969849,98.000076 
	C87.072281,97.935593 85.644562,97.871101 84.125061,97.802475 
	C84.125061,95.215164 84.125061,92.945641 84.125061,90.336853 
	C86.912056,90.336853 89.743248,90.336853 93.229012,90.336853 
	C91.224838,92.779381 96.871933,98.086784 88.969849,98.000076 
z"/>
<path fill="#000000" opacity="1.000000" stroke="none" 
	d="
M82.029617,79.999954 
	C83.922203,80.064705 85.345016,80.129433 86.873734,80.198990 
	C86.873734,82.787064 86.873734,85.056099 86.873734,87.663033 
	C84.085785,87.663033 81.254433,87.663033 77.770012,87.663033 
	C79.775406,85.220520 74.128578,79.912827 82.029617,79.999954 
z"/>
<path fill="#000000" opacity="1.000000" stroke="none" 
	d="
M89.030487,86.816422 
	C89.004013,84.399834 89.004013,82.453308 89.004013,80.257484 
	C91.958359,80.257484 94.675926,80.257484 97.699684,80.257484 
	C97.699684,82.548195 97.699684,84.936768 97.699684,88.148849 
	C94.920723,87.871559 91.988838,87.579018 89.030487,86.816422 
z"/>
<path fill="#000000" opacity="1.000000" stroke="none" 
	d="
M50.002113,92.122437 
	C52.788002,90.882706 55.571995,90.112106 58.792290,89.220734 
	C58.792290,92.736641 58.792290,95.120949 58.792290,97.754822 
	C56.015278,97.754822 53.298389,97.754822 50.000210,97.754822 
	C50.000210,96.066475 50.000210,94.329018 50.002113,92.122437 
z"/>
<path fill="#000000" opacity="1.000000" stroke="none" 
	d="
M115.087997,80.000061 
	C117.184853,79.999924 118.809532,79.999924 120.714165,79.999924 
	C120.714165,82.575951 120.714165,84.963638 120.714165,87.678635 
	C118.054222,87.678635 115.222572,87.678635 111.779427,87.678635 
	C113.524445,85.188278 109.031555,81.112938 115.087997,80.000061 
z"/>
<path fill="#000000" opacity="1.000000" stroke="none" 
	d="
M125.150528,80.001961 
	C127.568413,80.000191 129.516495,80.000191 131.731186,80.000191 
	C131.731186,82.609947 131.731186,84.997116 131.731186,87.695435 
	C129.142883,87.695435 126.423225,87.695435 122.428062,87.695435 
	C123.194405,85.078751 123.937561,82.541237 125.150528,80.001961 
z"/>
<path fill="#000000" opacity="1.000000" stroke="none" 
	d="
M138.969971,88.000061 
	C137.077194,87.935646 135.654251,87.871231 134.125214,87.802017 
	C134.125214,85.213295 134.125214,82.943871 134.125214,80.336746 
	C136.912704,80.336746 139.744431,80.336746 143.229202,80.336746 
	C141.224808,82.779388 146.871841,88.086746 138.969971,88.000061 
z"/>
<path fill="#000000" opacity="1.000000" stroke="none" 
	d="
M99.790840,67.970490 
	C97.047127,67.996216 94.774612,67.996216 92.252579,67.996216 
	C92.252579,65.353119 92.252579,62.971046 92.252579,60.288902 
	C94.889793,60.288902 97.608566,60.288902 101.138916,60.288902 
	C100.855202,62.765976 100.558617,65.355370 99.790840,67.970490 
z"/>
<path fill="#000000" opacity="1.000000" stroke="none" 
	d="
M44.969215,66.817612 
	C42.125610,67.612694 39.308571,67.937225 36.223465,68.292633 
	C36.223465,65.296341 36.223465,62.911854 36.223465,60.260834 
	C38.950268,60.260834 41.667538,60.260834 44.995789,60.260834 
	C44.995789,62.223320 44.995789,64.285179 44.969215,66.817612 
z"/>
<path fill="#000000" opacity="1.000000" stroke="none" 
	d="
M53.848221,60.001980 
	C55.105740,62.448521 55.891647,64.893257 56.821312,67.785187 
	C52.946838,67.785187 50.231628,67.785187 47.256073,67.785187 
	C47.256073,65.359001 47.256073,62.977428 47.256073,60.000179 
	C49.239834,60.000179 51.308228,60.000179 53.848221,60.001980 
z"/>
<path fill="#000000" opacity="1.000000" stroke="none" 
	d="
M84.090057,67.999939 
	C78.022774,66.895615 82.530098,62.811359 80.687843,60.198074 
	C84.089088,60.198074 86.804268,60.198074 89.761185,60.198074 
	C89.761185,62.672886 89.761185,65.057999 89.761185,68.000076 
	C88.047813,68.000076 86.303871,68.000076 84.090057,67.999939 
z"/>
<path fill="#000000" opacity="1.000000" stroke="none" 
	d="
M31.967861,99.999924 
	C39.272209,99.710655 34.483990,104.997932 36.560795,107.644836 
	C33.119122,107.644836 30.290007,107.644836 27.223082,107.644836 
	C27.223082,105.295235 27.223082,102.910927 27.223082,100.195168 
	C28.650877,100.129929 30.073364,100.064926 31.967861,99.999924 
z"/>
<path fill="#000000" opacity="1.000000" stroke="none" 
	d="
M115.400352,60.376694 
	C118.338776,60.053959 120.935631,60.053959 123.764511,60.053959 
	C123.764511,62.681000 123.764511,65.063538 123.764511,67.727768 
	C121.075394,67.727768 118.358559,67.727768 115.058784,67.727768 
	C115.058784,65.481415 115.058784,63.090420 115.400352,60.376694 
z"/>
<path fill="#000000" opacity="1.000000" stroke="none" 
	d="
M129.090271,67.999847 
	C123.023720,66.895294 127.529434,62.811455 125.688187,60.197998 
	C129.089050,60.197998 131.804047,60.197998 134.761200,60.197998 
	C134.761200,62.672897 134.761200,65.057968 134.761200,68.000023 
	C133.047913,68.000023 131.304016,68.000023 129.090271,67.999847 
z"/>
<path fill="#000000" opacity="1.000000" stroke="none" 
	d="
M136.969910,78.000076 
	C135.077103,77.935715 133.654129,77.871361 132.125137,77.802208 
	C132.125137,75.213860 132.125137,72.945068 132.125137,70.336792 
	C134.912643,70.336792 137.744385,70.336792 141.229141,70.336792 
	C139.224792,72.779366 144.871902,78.086784 136.969910,78.000076 
z"/>
<path fill="#000000" opacity="1.000000" stroke="none" 
	d="
M118.030487,106.816414 
	C118.004013,104.399796 118.004013,102.453232 118.004013,100.257484 
	C120.958359,100.257484 123.675926,100.257484 126.699684,100.257484 
	C126.699684,102.548195 126.699684,104.936768 126.699684,108.148849 
	C123.920723,107.871559 120.988838,107.579018 118.030487,106.816414 
z"/>
<path fill="#000000" opacity="1.000000" stroke="none" 
	d="
M147.970184,78.000061 
	C146.077499,77.935471 144.654617,77.870895 143.125732,77.801514 
	C143.125732,75.213112 143.125732,72.943878 143.125732,70.336853 
	C145.912750,70.336853 148.743881,70.336853 152.229599,70.336853 
	C150.224701,72.779434 155.871597,78.086960 147.970184,78.000061 
z"/>
<path fill="#000000" opacity="1.000000" stroke="none" 
	d="
M144.207092,107.971008 
	C143.412003,105.466568 143.086029,102.987274 142.723419,100.229416 
	C146.021301,100.229416 148.737259,100.229416 151.729095,100.229416 
	C151.729095,102.611588 151.729095,104.993439 151.729095,107.996162 
	C149.464859,107.996162 147.070526,107.996162 144.207092,107.971008 
z"/>
<path fill="#000000" opacity="1.000000" stroke="none" 
	d="
M128.792908,70.028992 
	C129.587936,72.533394 129.913879,75.012642 130.276459,77.770523 
	C126.978508,77.770523 124.262596,77.770523 121.270844,77.770523 
	C121.270844,75.392532 121.270844,73.005547 121.270844,70.003838 
	C123.535179,70.003838 125.929497,70.003838 128.792908,70.028992 
z"/>
<path fill="#000000" opacity="1.000000" stroke="none" 
	d="
M64.030487,71.181992 
	C66.874100,70.387062 69.691193,70.062706 72.776413,69.707481 
	C72.776413,72.703400 72.776413,75.087875 72.776413,77.739021 
	C70.050064,77.739021 67.332863,77.739021 64.003960,77.739021 
	C64.003960,75.776276 64.003960,73.714417 64.030487,71.181992 
z"/>
<path fill="#000000" opacity="1.000000" stroke="none" 
	d="
M53.000069,73.063011 
	C53.781498,71.727989 54.455696,70.287758 55.365894,70.118790 
	C57.393734,69.742332 59.539528,70.001259 61.808884,70.001259 
	C61.808884,72.771599 61.808884,75.155121 61.808884,77.770454 
	C58.981369,77.770454 56.265430,77.770454 53.205723,77.770454 
	C53.137596,76.368179 53.068760,74.951424 53.000069,73.063011 
z"/>
<path fill="#000000" opacity="1.000000" stroke="none" 
	d="
M30.586590,80.349380 
	C31.086832,88.188942 31.086832,88.188942 23.282787,87.831657 
	C23.282787,85.458771 23.282787,83.064514 23.282787,80.050369 
	C25.467667,80.050369 27.852480,80.050369 30.586590,80.349380 
z"/>
<path fill="#000000" opacity="1.000000" stroke="none" 
	d="
M227.974319,99.999924 
	C231.111862,99.999924 233.758133,99.999924 236.700775,99.999924 
	C236.700775,102.595894 236.700775,105.002777 236.700775,107.998497 
	C230.911606,107.998497 224.959473,108.272636 219.044861,107.919174 
	C213.454239,107.585068 217.421097,102.908295 214.982712,99.999924 
	C219.922440,99.999924 223.702744,99.999924 227.974319,99.999924 
z"/>
<path fill="#000000" opacity="1.000000" stroke="none" 
	d="
M240.128693,107.997147 
	C239.102417,107.387527 238.091721,106.791328 238.076675,106.170982 
	C237.949509,100.926292 238.004105,95.677185 238.004105,90.218521 
	C241.064392,90.218521 243.784103,90.218521 246.754028,90.218521 
	C246.754028,95.979233 246.754028,101.684662 246.754028,107.999367 
	C244.746078,107.999367 242.675934,107.999367 240.128693,107.997147 
z"/>
<path fill="#000000" opacity="1.000000" stroke="none" 
	d="
M227.000519,82.412796 
	C227.648026,81.145279 228.286591,79.619583 228.943481,79.611649 
	C231.503555,79.580719 234.069473,80.030830 236.811676,80.320915 
	C236.811676,82.782562 236.811676,85.187721 236.811676,87.796646 
	C233.564285,87.796646 230.491852,87.796646 227.000015,87.796646 
	C227.000015,86.062630 227.000015,84.457260 227.000519,82.412796 
z"/>
<path fill="#000000" opacity="1.000000" stroke="none" 
	d="
M236.998596,93.057655 
	C236.998779,94.830116 236.998779,96.128319 236.998779,97.710632 
	C233.780884,97.710632 230.729904,97.710632 227.337250,97.710632 
	C227.337250,95.398033 227.337250,92.902473 227.337250,90.001877 
	C229.794724,90.001877 232.251892,89.771889 234.624161,90.120163 
	C235.516876,90.251228 236.212799,91.722885 236.998596,93.057655 
z"/>
<path fill="#000000" opacity="1.000000" stroke="none" 
	d="
M227.031586,61.174934 
	C230.211578,60.384972 233.363968,60.068436 236.775909,59.725842 
	C236.775909,62.708363 236.775909,65.092712 236.775909,67.741753 
	C233.715240,67.741753 230.665054,67.741753 227.004013,67.741753 
	C227.004013,65.771828 227.004013,63.710094 227.031586,61.174934 
z"/>
<path fill="#000000" opacity="1.000000" stroke="none" 
	d="
M236.962585,71.087341 
	C236.995575,78.218231 236.995575,78.218231 227.319733,77.866623 
	C227.319733,75.385612 227.319733,72.885017 227.319733,69.785904 
	C230.594803,70.071671 233.763107,70.348122 236.962585,71.087341 
z"/>
<path fill="#000000" opacity="1.000000" stroke="none" 
	d="
M216.428406,87.667511 
	C215.879547,78.586166 215.879547,78.586166 224.811859,79.503304 
	C224.811859,82.205376 224.811859,84.914330 224.811859,87.954544 
	C222.015457,87.954544 219.401184,87.954544 216.428406,87.667511 
z"/>
<path fill="#000000" opacity="1.000000" stroke="none" 
	d="
M247.657349,76.759628 
	C244.398758,77.494530 241.430161,77.908096 238.203156,78.357658 
	C238.203156,75.245331 238.203156,72.848625 238.203156,70.224411 
	C241.393066,70.224411 244.475784,70.224411 247.582413,70.224411 
	C247.702423,72.268005 247.824860,74.353149 247.657349,76.759628 
z"/>
<path fill="#000000" opacity="1.000000" stroke="none" 
	d="
M247.536163,80.460953 
	C247.324036,83.063408 246.998657,85.279488 246.634674,87.758438 
	C244.077484,87.758438 241.328003,87.758438 238.287704,87.758438 
	C238.287704,85.412666 238.287704,83.014481 238.287704,80.074585 
	C241.247742,80.074585 244.335342,80.074585 247.536163,80.460953 
z"/>
<path fill="#000000" opacity="1.000000" stroke="none" 
	d="
M224.620636,77.619125 
	C223.967911,77.961205 223.638107,77.991409 223.308029,77.994408 
	C215.710388,78.063301 215.710388,78.062752 216.314056,69.730652 
	C219.084656,69.730652 221.906982,69.730652 224.943420,69.730652 
	C224.943420,72.703896 224.943420,74.999229 224.620636,77.619125 
z"/>
<path fill="#000000" opacity="1.000000" stroke="none" 
	d="
M246.997894,65.877487 
	C244.212524,67.116913 241.429062,67.887238 238.209137,68.778358 
	C238.209137,65.263153 238.209137,62.879440 238.209137,60.245445 
	C240.985519,60.245445 243.701141,60.245445 246.999786,60.245445 
	C246.999786,61.933849 246.999786,63.671112 246.997894,65.877487 
z"/>
<path fill="#000000" opacity="1.000000" stroke="none" 
	d="
M216.393829,67.614220 
	C216.057922,65.016167 216.057922,62.748291 216.057922,60.241745 
	C218.994446,60.241745 221.710983,60.241745 224.716522,60.241745 
	C224.716522,62.581562 224.716522,64.969177 224.716522,67.944397 
	C222.172318,67.944397 219.451035,67.944397 216.393829,67.614220 
z"/>
<path fill="#000000" opacity="1.000000" stroke="none" 
	d="
M222.017365,97.999893 
	C214.907181,99.177734 215.942230,94.588287 216.076263,90.342453 
	C218.885223,90.342453 221.716125,90.342453 225.107544,90.342453 
	C223.562515,92.807045 227.847488,96.713356 222.017365,97.999893 
z"/>
<path fill="#000000" opacity="1.000000" stroke="none" 
	d="
M207.969406,76.808136 
	C205.461060,77.596657 202.979111,77.914261 200.225067,78.266678 
	C200.225067,75.302628 200.225067,72.918129 200.225067,70.263962 
	C202.612808,70.263962 204.999557,70.263962 207.995789,70.263962 
	C207.995789,72.213150 207.995789,74.275185 207.969406,76.808136 
z"/>
<path fill="#000000" opacity="1.000000" stroke="none" 
	d="
M195.808685,70.030060 
	C196.597137,72.538353 196.914627,75.020355 197.266922,77.774414 
	C194.303162,77.774414 191.918732,77.774414 189.264328,77.774414 
	C189.264328,75.386688 189.264328,73.000000 189.264328,70.003769 
	C191.213501,70.003769 193.275620,70.003769 195.808685,70.030060 
z"/>
<path fill="#000000" opacity="1.000000" stroke="none" 
	d="
M178.031281,76.807846 
	C178.004272,74.391708 178.004272,72.447014 178.004272,70.255333 
	C180.630722,70.255333 183.016968,70.255333 185.704834,70.255333 
	C185.704834,72.554092 185.704834,74.939682 185.704834,78.122986 
	C183.247498,77.851845 180.652878,77.565567 178.031281,76.807846 
z"/>
<path fill="#000000" opacity="1.000000" stroke="none" 
	d="
M200.382233,67.608772 
	C200.056244,65.008507 200.056244,62.741142 200.056244,60.238453 
	C202.667328,60.238453 205.053680,60.238453 207.723175,60.238453 
	C207.723175,62.586723 207.723175,64.975174 207.723175,67.941666 
	C205.491501,67.941666 203.099854,67.941666 200.382233,67.608772 
z"/>
<path fill="#000000" opacity="1.000000" stroke="none" 
	d="
M192.999725,68.000076 
	C185.352219,68.420776 191.124588,62.705498 187.321381,60.347641 
	C191.563324,60.347641 194.063187,60.347641 197.189453,60.347641 
	C195.241791,62.776302 200.847717,68.028458 192.999725,68.000076 
z"/>
<path fill="#000000" opacity="1.000000" stroke="none" 
	d="
M186.000061,64.000267 
	C186.281906,71.354614 180.963196,66.419502 178.347641,68.583290 
	C178.347641,65.436699 178.347641,62.936832 178.347641,59.810574 
	C180.776321,61.758167 186.028412,56.152313 186.000061,64.000267 
z"/>
<path fill="#000000" opacity="1.000000" stroke="none" 
	d="
M91.996613,46.661690 
	C91.999672,48.549438 91.999672,50.017185 91.999672,51.742386 
	C89.025261,51.742386 86.167564,51.742386 82.209427,51.742386 
	C83.127930,48.889679 83.236420,45.324238 84.873260,44.363979 
	C86.558449,43.375359 90.336945,42.917400 91.996613,46.661690 
z"/>
<path fill="#000000" opacity="1.000000" stroke="none" 
	d="
M95.159836,51.969788 
	C94.400658,49.762646 94.101219,47.581696 93.820068,45.533947 
	C96.392296,44.981651 98.410110,44.216820 100.405518,44.271397 
	C101.293159,44.295681 102.955002,46.101112 102.833374,46.872223 
	C102.552971,48.650032 101.789146,50.790752 100.469582,51.824581 
	C99.440079,52.631165 97.278236,51.992447 95.159836,51.969788 
z"/>
<path fill="#000000" opacity="1.000000" stroke="none" 
	d="
M105.032684,50.845314 
	C105.004234,48.396847 105.004234,46.413605 105.004234,44.104092 
	C107.691185,44.407410 110.116241,44.681160 112.831757,44.987701 
	C112.831757,46.774666 112.831757,49.180183 112.831757,52.240002 
	C110.105156,51.913872 107.583145,51.612209 105.032684,50.845314 
z"/>
<path fill="#000000" opacity="1.000000" stroke="none" 
	d="
M42.000420,47.063843 
	C42.782120,45.729008 43.456444,44.289009 44.366756,44.119984 
	C46.394249,43.743526 48.539726,44.002472 50.808640,44.002472 
	C50.808640,46.773243 50.808640,49.156380 50.808640,51.770893 
	C47.980812,51.770893 45.265152,51.770893 42.205700,51.770893 
	C42.137630,50.368423 42.068878,48.951920 42.000420,47.063843 
z"/>
<path fill="#000000" opacity="1.000000" stroke="none" 
	d="
M39.968460,45.184738 
	C39.995102,47.598969 39.995102,49.543262 39.995102,51.742493 
	C37.044033,51.742493 34.326599,51.742493 31.300642,51.742493 
	C31.300642,49.452740 31.300642,47.064606 31.300642,43.852360 
	C34.079338,44.129688 37.010578,44.422245 39.968460,45.184738 
z"/>
<path fill="#000000" opacity="1.000000" stroke="none" 
	d="
M72.969208,50.817924 
	C70.123856,51.613083 67.305084,51.937717 64.223969,52.292568 
	C64.223969,49.294640 64.223969,46.913109 64.223969,44.262421 
	C66.950317,44.262421 69.667046,44.262421 72.995789,44.262421 
	C72.995789,46.224308 72.995789,48.285858 72.969208,50.817924 
z"/>
<path fill="#000000" opacity="1.000000" stroke="none" 
	d="
M61.997883,49.878010 
	C59.212246,51.117603 56.428509,51.888119 53.208168,52.779480 
	C53.208168,49.264977 53.208168,46.881145 53.208168,44.246933 
	C55.984562,44.246933 58.700905,44.246933 61.999783,44.246933 
	C61.999783,45.934551 61.999783,47.671741 61.997883,49.878010 
z"/>
<path fill="#000000" opacity="1.000000" stroke="none" 
	d="
M208.979065,102.227478 
	C208.865662,108.356567 208.865662,108.356567 199.278046,107.772392 
	C199.278046,105.411629 199.278046,103.025436 199.278046,99.354118 
	C202.588989,100.184196 205.775162,100.982994 208.979065,102.227478 
z"/>
<path fill="#000000" opacity="1.000000" stroke="none" 
	d="
M185.997894,105.877518 
	C183.212402,107.117012 180.428833,107.887398 177.208908,108.778542 
	C177.208908,105.262993 177.208908,102.879105 177.208908,100.245422 
	C179.985901,100.245422 182.702454,100.245422 185.999786,100.245422 
	C185.999786,101.933777 185.999786,103.671089 185.997894,105.877518 
z"/>
<path fill="#000000" opacity="1.000000" stroke="none" 
	d="
M191.129410,90.003220 
	C193.214447,90.001427 194.834106,90.001427 196.726013,90.001427 
	C196.726013,92.595245 196.726013,94.982887 196.726013,97.688309 
	C194.486511,97.688309 192.100113,97.688309 188.443024,97.688309 
	C189.193008,95.093857 189.928513,92.549438 191.129410,90.003220 
z"/>
<path fill="#000000" opacity="1.000000" stroke="none" 
	d="
M196.997986,105.871880 
	C194.558182,107.110962 192.120193,107.884491 189.208786,108.808228 
	C189.208786,105.268707 189.208786,102.883507 189.208786,100.246933 
	C191.649231,100.246933 194.034424,100.246933 196.999786,100.246933 
	C196.999786,101.928734 196.999786,103.667526 196.997986,105.871880 
z"/>
<path fill="#000000" opacity="1.000000" stroke="none" 
	d="
M127.401276,44.377754 
	C130.339127,44.055073 132.935516,44.055073 135.764160,44.055073 
	C135.764160,46.679451 135.764160,49.064640 135.764160,51.728085 
	C133.074036,51.728085 130.356110,51.728085 127.059807,51.728085 
	C127.059807,49.481548 127.059807,47.090992 127.401276,44.377754 
z"/>
<path fill="#000000" opacity="1.000000" stroke="none" 
	d="
M146.999573,47.060966 
	C146.999878,48.829769 146.999878,50.127151 146.999878,51.709476 
	C144.111359,51.709476 141.393143,51.709476 138.334854,51.709476 
	C138.334854,49.400066 138.334854,46.903862 138.334854,43.801605 
	C141.106323,45.704479 145.460846,40.616447 146.999573,47.060966 
z"/>
<path fill="#000000" opacity="1.000000" stroke="none" 
	d="
M168.997879,49.883060 
	C166.199600,51.124298 163.403229,51.898457 160.532791,52.693123 
	C159.476852,43.689564 159.476852,43.689564 168.999786,44.224194 
	C168.999786,45.928429 168.999786,47.672207 168.997879,49.883060 
z"/>
<path fill="#000000" opacity="1.000000" stroke="none" 
	d="
M152.115021,51.999741 
	C147.765625,52.462776 148.873993,49.456970 149.140030,47.782902 
	C149.356216,46.422707 150.565750,44.596825 151.763062,44.164955 
	C153.479797,43.545723 155.586288,44.007050 157.761658,44.007050 
	C157.761658,46.659985 157.761658,49.048336 157.761658,51.999943 
	C156.061813,51.999943 154.320786,51.999943 152.115021,51.999741 
z"/>
<path fill="#000000" opacity="1.000000" stroke="none" 
	d="
M201.398544,44.015533 
	C203.776123,44.002934 205.699890,44.002934 207.808533,44.002934 
	C207.808533,46.761543 207.808533,49.148308 207.808533,52.611252 
	C204.724426,51.836929 201.947983,51.139851 199.171555,50.442772 
	C199.762619,48.304562 200.353683,46.166348 201.398544,44.015533 
z"/>
<path fill="#000000" opacity="1.000000" stroke="none" 
	d="
M185.999924,48.923538 
	C185.340424,54.544960 181.341476,50.861298 179.156998,51.978588 
	C178.432877,49.580296 177.708771,47.182003 176.815247,44.222645 
	C180.554306,44.222645 182.988541,44.222645 185.775482,44.222645 
	C185.848053,45.590443 185.924042,47.022552 185.999924,48.923538 
z"/>
<path fill="#000000" opacity="1.000000" stroke="none" 
	d="
M196.969925,50.809013 
	C194.461594,51.597462 191.979584,51.914982 189.225311,52.267326 
	C189.225311,49.301861 189.225311,46.920124 189.225311,44.265697 
	C191.612701,44.265697 193.999130,44.265697 196.996231,44.265697 
	C196.996231,46.214161 196.996231,48.276123 196.969925,50.809013 
z"/>
<path fill="#000000" opacity="1.000000" stroke="none" 
	d="
M9.021183,49.768738 
	C9.134232,43.710186 9.134232,43.710186 17.769112,44.222904 
	C17.844391,45.440220 17.949417,46.696907 17.991852,47.955700 
	C18.030142,49.091442 17.999935,50.229492 17.999935,52.685940 
	C14.730654,51.784542 11.884894,50.999916 9.021183,49.768738 
z"/>
</svg>