<svg version="1.1" id="Layer_1" xmlns="http://www.w3.org/2000/svg" xmlns:xlink="http://www.w3.org/1999/xlink" x="0px" y="0px"
	 width="100%" viewBox="0 0 143 253" enable-background="new 0 0 143 253" xml:space="preserve">
<path fill="#FFFFFF" opacity="1.000000" stroke="none" 
	d="
M144.000000,120.000000 
	C144.000000,164.618958 144.000000,209.237930 144.000000,253.928436 
	C96.432045,253.928436 48.863949,253.928436 1.000000,253.928436 
	C1.000000,209.979553 1.000000,165.958435 1.384903,121.584618 
	C7.392190,122.739693 7.962001,122.369225 7.994869,117.062843 
	C8.020547,112.917259 8.005523,108.771378 7.998705,104.625641 
	C7.988835,98.624336 6.734892,97.798248 1.000000,100.000000 
	C1.000000,67.089905 1.000000,34.179806 1.000000,1.000000 
	C21.353434,1.000000 41.708057,1.000000 62.406834,1.375873 
	C48.068062,4.158429 38.846691,13.243741 34.213676,26.715782 
	C32.255108,32.410976 32.247715,38.910427 32.089855,45.063213 
	C31.784264,56.973961 32.000561,68.898102 32.000561,80.717880 
	C58.992630,80.717880 85.383018,80.717880 112.000008,80.717880 
	C112.000008,65.972031 111.719818,51.500126 112.082108,37.044323 
	C112.416405,23.705378 106.387001,14.004725 95.684761,7.116207 
	C91.295868,4.291289 85.924461,2.992838 81.000000,1.000000 
	C101.943489,1.000000 122.886971,1.000000 144.000000,1.000000 
	C144.000000,34.020702 144.000000,67.041695 143.635742,100.433136 
	C141.695877,100.226158 140.120270,99.648727 138.544678,99.071304 
	C138.029785,100.510529 137.128448,101.934502 137.070923,103.391777 
	C136.882233,108.172859 136.871338,112.971619 137.078949,117.751129 
	C137.140686,119.172707 138.214722,121.763329 138.707870,121.735611 
	C140.498764,121.634949 142.240021,120.650879 144.000000,120.000000 
M65.000450,221.496597 
	C65.000450,226.263809 65.000450,231.031036 65.000450,236.000000 
	C56.950226,236.000000 49.466694,236.195114 41.997654,235.949448 
	C33.125000,235.657608 22.051554,241.773682 20.182373,252.762543 
	C54.772202,252.762543 89.327461,252.762543 124.326141,252.762543 
	C123.926003,250.897232 123.970566,249.119278 123.197327,247.832916 
	C119.141716,241.085815 113.563782,236.285797 105.299667,236.052475 
	C96.891876,235.815079 88.472168,236.000000 79.999763,236.000000 
	C79.999763,227.621231 79.999580,219.958298 79.999825,212.295364 
	C80.000099,203.632629 79.952301,203.436951 88.218246,201.411179 
	C101.735657,198.098343 112.668716,191.046692 121.400452,180.195450 
	C128.489243,171.385956 133.170563,161.361847 133.768082,150.343399 
	C134.660095,133.893982 134.075089,117.359489 133.881485,100.863968 
	C133.862473,99.245224 132.581894,97.071350 131.215637,96.142181 
	C126.588654,92.995445 122.424339,96.381752 121.627274,104.245346 
	C118.448334,103.926567 115.218658,103.787666 112.072754,103.200180 
	C110.732254,102.949844 109.570496,101.104240 108.321342,101.097336 
	C84.491936,100.965530 60.661427,100.965668 36.831879,101.084503 
	C35.386826,101.091705 33.757313,102.073196 32.545029,103.023941 
	C29.882452,105.112030 23.500788,104.204681 23.069880,101.336823 
	C22.472326,97.359894 20.474092,94.563347 16.496628,95.174789 
	C12.696847,95.758919 10.843313,98.637558 10.922068,102.938393 
	C11.144751,115.099358 11.322156,127.277718 10.919709,139.429428 
	C10.398318,155.172638 14.323498,169.114166 24.651545,181.354568 
	C34.281811,192.767975 45.945724,200.086349 60.831642,201.975739 
	C63.627525,202.330582 65.252800,203.204651 65.066490,206.504044 
	C64.803856,211.155258 65.000328,215.832367 65.000450,221.496597 
z"/>
<path fill="#000000" opacity="1.000000" stroke="none" 
	d="
M80.532059,1.000000 
	C85.924461,2.992838 91.295868,4.291289 95.684761,7.116207 
	C106.387001,14.004725 112.416405,23.705378 112.082108,37.044323 
	C111.719818,51.500126 112.000008,65.972031 112.000008,80.717880 
	C85.383018,80.717880 58.992630,80.717880 32.000561,80.717880 
	C32.000561,68.898102 31.784264,56.973961 32.089855,45.063213 
	C32.247715,38.910427 32.255108,32.410976 34.213676,26.715782 
	C38.846691,13.243741 48.068062,4.158429 62.875492,1.375873 
	C68.688042,1.000000 74.376083,1.000000 80.532059,1.000000 
z"/>
<path fill="#000000" opacity="1.000000" stroke="none" 
	d="
M1.000000,100.468536 
	C6.734892,97.798248 7.988835,98.624336 7.998705,104.625641 
	C8.005523,108.771378 8.020547,112.917259 7.994869,117.062843 
	C7.962001,122.369225 7.392190,122.739693 1.384903,121.115959 
	C1.000000,114.312355 1.000000,107.624710 1.000000,100.468536 
z"/>
<path fill="#000000" opacity="1.000000" stroke="none" 
	d="
M144.000000,119.531738 
	C142.240021,120.650879 140.498764,121.634949 138.707870,121.735611 
	C138.214722,121.763329 137.140686,119.172707 137.078949,117.751129 
	C136.871338,112.971619 136.882233,108.172859 137.070923,103.391777 
	C137.128448,101.934502 138.029785,100.510529 138.544678,99.071304 
	C140.120270,99.648727 141.695877,100.226158 143.635742,100.901794 
	C144.000000,107.021156 144.000000,113.042305 144.000000,119.531738 
z"/>
<path fill="#000000" opacity="1.000000" stroke="none" 
	d="
M65.000473,220.997498 
	C65.000328,215.832367 64.803856,211.155258 65.066490,206.504044 
	C65.252800,203.204651 63.627525,202.330582 60.831642,201.975739 
	C45.945724,200.086349 34.281811,192.767975 24.651545,181.354568 
	C14.323498,169.114166 10.398318,155.172638 10.919709,139.429428 
	C11.322156,127.277718 11.144751,115.099358 10.922068,102.938393 
	C10.843313,98.637558 12.696847,95.758919 16.496628,95.174789 
	C20.474092,94.563347 22.472326,97.359894 23.069880,101.336823 
	C23.500788,104.204681 29.882452,105.112030 32.545029,103.023941 
	C33.757313,102.073196 35.386826,101.091705 36.831879,101.084503 
	C60.661427,100.965668 84.491936,100.965530 108.321342,101.097336 
	C109.570496,101.104240 110.732254,102.949844 112.072754,103.200180 
	C115.218658,103.787666 118.448334,103.926567 121.627274,104.245346 
	C122.424339,96.381752 126.588654,92.995445 131.215637,96.142181 
	C132.581894,97.071350 133.862473,99.245224 133.881485,100.863968 
	C134.075089,117.359489 134.660095,133.893982 133.768082,150.343399 
	C133.170563,161.361847 128.489243,171.385956 121.400452,180.195450 
	C112.668716,191.046692 101.735657,198.098343 88.218246,201.411179 
	C79.952301,203.436951 80.000099,203.632629 79.999825,212.295364 
	C79.999580,219.958298 79.999763,227.621231 79.999763,236.000000 
	C88.472168,236.000000 96.891876,235.815079 105.299667,236.052475 
	C113.563782,236.285797 119.141716,241.085815 123.197327,247.832916 
	C123.970566,249.119278 123.926003,250.897232 124.326141,252.762543 
	C89.327461,252.762543 54.772202,252.762543 20.182373,252.762543 
	C22.051554,241.773682 33.125000,235.657608 41.997654,235.949448 
	C49.466694,236.195114 56.950226,236.000000 65.000450,236.000000 
	C65.000450,231.031036 65.000450,226.263809 65.000473,220.997498 
M120.333824,118.004303 
	C117.585068,118.004303 114.836319,118.004303 112.000008,118.004303 
	C112.000008,127.851402 111.709496,137.020050 112.082352,146.161621 
	C112.449417,155.161209 108.273422,162.320114 102.810684,168.430191 
	C92.061554,180.453140 78.147301,182.748993 62.683670,180.111557 
	C46.239876,177.306946 32.352306,161.602890 32.965721,144.490997 
	C33.180470,138.500320 33.035435,132.495193 32.991764,126.497131 
	C32.924675,117.282684 34.444427,117.984070 24.452038,118.034836 
	C24.019632,118.037025 23.588673,118.323395 22.548813,118.694389 
	C23.030327,128.681808 23.297482,138.749481 24.049028,148.780869 
	C25.263021,164.984833 34.066914,176.529587 47.489834,184.760010 
	C56.820786,190.481400 67.361549,190.217545 77.877266,190.064590 
	C88.827606,189.905319 97.870438,185.472443 105.917450,178.559647 
	C115.781532,170.085861 120.666649,158.797089 121.784515,146.273483 
	C122.616013,136.958115 121.525887,127.471214 120.333824,118.004303 
z"/>
<path fill="#FFFFFF" opacity="1.000000" stroke="none" 
	d="
M120.812729,118.032501 
	C121.525887,127.471214 122.616013,136.958115 121.784515,146.273483 
	C120.666649,158.797089 115.781532,170.085861 105.917450,178.559647 
	C97.870438,185.472443 88.827606,189.905319 77.877266,190.064590 
	C67.361549,190.217545 56.820786,190.481400 47.489834,184.760010 
	C34.066914,176.529587 25.263021,164.984833 24.049028,148.780869 
	C23.297482,138.749481 23.030327,128.681808 22.548813,118.694389 
	C23.588673,118.323395 24.019632,118.037025 24.452038,118.034836 
	C34.444427,117.984070 32.924675,117.282684 32.991764,126.497131 
	C33.035435,132.495193 33.180470,138.500320 32.965721,144.490997 
	C32.352306,161.602890 46.239876,177.306946 62.683670,180.111557 
	C78.147301,182.748993 92.061554,180.453140 102.810684,168.430191 
	C108.273422,162.320114 112.449417,155.161209 112.082352,146.161621 
	C111.709496,137.020050 112.000008,127.851402 112.000008,118.004303 
	C114.836319,118.004303 117.585068,118.004303 120.812729,118.032501 
z"/>
</svg>