<svg version="1.1" id="Layer_1" xmlns="http://www.w3.org/2000/svg" xmlns:xlink="http://www.w3.org/1999/xlink" x="0px" y="0px"
	 width="100%" viewBox="0 0 256 217" enable-background="new 0 0 256 217" xml:space="preserve">
<path fill="#FFFFFF" opacity="1.000000" stroke="none" 
	d="
M113.000000,218.000000 
	C75.684563,218.000000 38.369125,218.000000 1.026843,218.000000 
	C1.026843,145.719238 1.026843,73.438477 1.026843,1.078851 
	C86.239792,1.078851 171.479691,1.078851 256.859802,1.078851 
	C256.859802,73.333160 256.859802,145.666534 256.859802,218.000000 
	C220.235550,218.000000 183.586441,218.000000 146.628418,217.596588 
	C147.811050,217.128784 149.324570,217.204895 150.790268,216.975479 
	C156.842331,216.028198 162.921555,215.176437 168.894302,213.853836 
	C170.439850,213.511597 171.634979,211.586929 172.991074,210.389145 
	C171.653732,209.410370 170.352097,208.376022 168.960419,207.481781 
	C168.446442,207.151535 167.727112,207.110443 167.090195,207.006592 
	C159.580688,205.781967 152.069046,204.570465 144.098740,203.281235 
	C142.800064,196.735550 141.514160,189.633514 139.867981,182.615982 
	C139.616592,181.544281 137.737167,180.186768 136.545563,180.119736 
	C131.568588,179.839722 126.554031,179.808807 121.582932,180.136581 
	C120.332939,180.218994 118.450584,181.773010 118.127808,182.987885 
	C116.518669,189.044250 115.435287,195.238937 113.900566,201.317734 
	C113.633286,202.376404 112.190407,203.711441 111.119057,203.889999 
	C107.423103,204.505875 103.569649,204.292953 99.927734,205.089035 
	C94.651245,206.242401 88.616669,205.892090 83.798996,212.231400 
	C89.434608,213.642578 94.103912,215.012512 98.858948,215.945480 
	C103.527290,216.861404 108.282761,217.333267 113.000000,218.000000 
M111.500000,1.999949 
	C78.679138,1.999961 45.858269,1.989606 13.037419,2.008059 
	C5.807210,2.012124 2.000855,5.876085 2.000663,13.080829 
	C1.999322,63.395126 1.999882,113.709427 2.000012,164.023727 
	C2.000035,172.886673 6.190695,176.998627 15.234429,176.998734 
	C90.705879,176.999603 166.177322,176.999008 241.648773,176.998871 
	C242.481796,176.998871 243.323059,177.075470 244.146530,176.986786 
	C251.301147,176.216217 256.202606,172.343414 256.155853,164.627457 
	C255.852158,114.481598 255.882919,64.332436 256.126373,14.185926 
	C256.162842,6.676194 251.286804,1.838506 243.949600,1.879314 
	C200.134201,2.123005 156.316757,1.999951 111.500000,1.999949 
z"/>
<path fill="#000000" opacity="1.000000" stroke="none" 
	d="
M113.468658,218.000000 
	C108.282761,217.333267 103.527290,216.861404 98.858948,215.945480 
	C94.103912,215.012512 89.434608,213.642578 83.798996,212.231400 
	C88.616669,205.892090 94.651245,206.242401 99.927734,205.089035 
	C103.569649,204.292953 107.423103,204.505875 111.119057,203.889999 
	C112.190407,203.711441 113.633286,202.376404 113.900566,201.317734 
	C115.435287,195.238937 116.518669,189.044250 118.127808,182.987885 
	C118.450584,181.773010 120.332939,180.218994 121.582932,180.136581 
	C126.554031,179.808807 131.568588,179.839722 136.545563,180.119736 
	C137.737167,180.186768 139.616592,181.544281 139.867981,182.615982 
	C141.514160,189.633514 142.800064,196.735550 144.098740,203.281235 
	C152.069046,204.570465 159.580688,205.781967 167.090195,207.006592 
	C167.727112,207.110443 168.446442,207.151535 168.960419,207.481781 
	C170.352097,208.376022 171.653732,209.410370 172.991074,210.389145 
	C171.634979,211.586929 170.439850,213.511597 168.894302,213.853836 
	C162.921555,215.176437 156.842331,216.028198 150.790268,216.975479 
	C149.324570,217.204895 147.811050,217.128784 146.159760,217.596588 
	C135.312439,218.000000 124.624878,218.000000 113.468658,218.000000 
z"/>
<path fill="#000000" opacity="1.000000" stroke="none" 
	d="
M112.000000,1.999949 
	C156.316757,1.999951 200.134201,2.123005 243.949600,1.879314 
	C251.286804,1.838506 256.162842,6.676194 256.126373,14.185926 
	C255.882919,64.332436 255.852158,114.481598 256.155853,164.627457 
	C256.202606,172.343414 251.301147,176.216217 244.146530,176.986786 
	C243.323059,177.075470 242.481796,176.998871 241.648773,176.998871 
	C166.177322,176.999008 90.705879,176.999603 15.234429,176.998734 
	C6.190695,176.998627 2.000035,172.886673 2.000012,164.023727 
	C1.999882,113.709427 1.999322,63.395126 2.000663,13.080829 
	C2.000855,5.876085 5.807210,2.012124 13.037419,2.008059 
	C45.858269,1.989606 78.679138,1.999961 112.000000,1.999949 
M13.000050,56.500000 
	C13.000050,85.261375 13.000050,114.022743 13.000050,142.714325 
	C90.642365,142.714325 167.710464,142.714325 244.713074,142.714325 
	C244.713074,99.358131 244.713074,56.288200 244.713074,13.285635 
	C167.357742,13.285635 90.289642,13.285635 13.000050,13.285635 
	C13.000050,27.546803 13.000050,41.523403 13.000050,56.500000 
M124.651161,164.955185 
	C126.034554,165.303665 127.544563,166.176712 128.772308,165.880341 
	C130.718887,165.410477 133.410980,164.586578 134.078323,163.129562 
	C134.915573,161.301590 134.814728,158.084839 133.665070,156.572525 
	C132.487656,155.023712 129.490982,154.014221 127.402122,154.179352 
	C123.185265,154.512680 121.934151,158.880844 124.651161,164.955185 
z"/>
<path fill="#FFFFFF" opacity="1.000000" stroke="none" 
	d="
M13.000050,56.000000 
	C13.000050,41.523403 13.000050,27.546803 13.000050,13.285635 
	C90.289642,13.285635 167.357742,13.285635 244.713074,13.285635 
	C244.713074,56.288200 244.713074,99.358131 244.713074,142.714325 
	C167.710464,142.714325 90.642365,142.714325 13.000050,142.714325 
	C13.000050,114.022743 13.000050,85.261375 13.000050,56.000000 
z"/>
<path fill="#FFFFFF" opacity="1.000000" stroke="none" 
	d="
M124.349640,164.660324 
	C121.934151,158.880844 123.185265,154.512680 127.402122,154.179352 
	C129.490982,154.014221 132.487656,155.023712 133.665070,156.572525 
	C134.814728,158.084839 134.915573,161.301590 134.078323,163.129562 
	C133.410980,164.586578 130.718887,165.410477 128.772308,165.880341 
	C127.544563,166.176712 126.034554,165.303665 124.349640,164.660324 
z"/>
</svg>