<svg version="1.1" id="Layer_1" xmlns="http://www.w3.org/2000/svg" xmlns:xlink="http://www.w3.org/1999/xlink" x="0px" y="0px"
	 width="100%" viewBox="0 0 126 256" enable-background="new 0 0 126 256" xml:space="preserve">
<path fill="#000000" opacity="1.000000" stroke="none" 
	d="
M1.000000,205.000000 
	C1.000000,140.979111 1.000000,76.958206 1.345756,12.377552 
	C4.504044,5.070559 9.380738,1.896651 16.871387,1.933835 
	C48.339970,2.090044 79.812943,2.240863 111.276848,1.826465 
	C118.923454,1.725755 126.071030,9.766218 126.058105,16.744104 
	C125.944901,77.851044 125.954735,138.958359 126.048683,200.065369 
	C126.059570,207.144577 120.012856,215.291519 111.061081,215.163742 
	C80.929901,214.733658 50.784241,214.709442 20.654240,215.179031 
	C11.728232,215.318130 5.166055,213.019058 1.000000,205.000000 
M89.415817,179.054779 
	C91.188698,177.624481 93.058403,176.297836 94.718796,174.747101 
	C105.847664,164.353149 111.002365,151.545410 109.992455,136.325195 
	C109.181236,124.099464 103.786964,113.766975 94.995880,105.771118 
	C85.465172,97.102547 73.858887,93.138252 60.592880,93.901123 
	C43.328094,94.893936 30.382526,103.417717 22.430397,117.769897 
	C14.867023,131.420441 14.454283,146.327072 21.897184,160.996521 
	C30.251448,177.462158 43.895042,185.482117 61.681705,186.893997 
	C71.433434,187.668091 80.417961,184.221375 89.415817,179.054779 
M52.685913,75.003273 
	C58.582836,77.557831 64.544930,77.509491 70.757530,76.054214 
	C88.367706,71.929115 98.330353,50.968403 87.785355,34.310474 
	C81.556007,24.469975 72.639595,20.296293 60.913662,20.894114 
	C47.452084,21.580420 36.092850,32.983288 35.051819,46.232399 
	C34.003220,59.577831 40.356907,68.855713 52.685913,75.003273 
M12.970366,12.550035 
	C10.940149,15.877892 11.467740,18.729280 15.286268,19.813805 
	C16.726620,20.222889 19.420315,19.168840 20.253319,17.921036 
	C21.055548,16.719326 20.819738,13.331089 19.928431,12.811944 
	C18.219404,11.816517 15.723010,12.172897 12.970366,12.550035 
M113.449730,11.970551 
	C110.121628,9.939386 107.270691,10.468668 106.185867,14.286337 
	C105.776657,15.726456 106.830902,18.420315 108.078720,19.253242 
	C109.280602,20.055513 112.668953,19.819899 113.188026,18.928661 
	C114.183403,17.219612 113.826927,14.723217 113.449730,11.970551 
M14.115499,197.357635 
	C13.468479,199.394653 12.445330,201.416855 12.364129,203.476181 
	C12.332734,204.272430 14.343486,205.667145 15.586284,205.892136 
	C18.531866,206.425385 20.808222,205.346390 20.986984,201.893890 
	C21.215805,197.474533 18.424118,196.745605 14.115499,197.357635 
M110.493057,197.000290 
	C107.056664,196.955154 105.428932,198.996902 106.173210,202.002213 
	C106.559639,203.562576 108.663857,205.637756 110.113297,205.738632 
	C111.661591,205.846420 114.254723,204.232071 114.784653,202.782104 
	C115.745560,200.152863 114.707550,197.593658 110.493057,197.000290 
z"/>
<path fill="#FFFFFF" opacity="1.000000" stroke="none" 
	d="
M1.000000,205.468658 
	C5.166055,213.019058 11.728232,215.318130 20.654240,215.179031 
	C50.784241,214.709442 80.929901,214.733658 111.061081,215.163742 
	C120.012856,215.291519 126.059570,207.144577 126.048683,200.065369 
	C125.954735,138.958359 125.944901,77.851044 126.058105,16.744104 
	C126.071030,9.766218 118.923454,1.725755 111.276848,1.826465 
	C79.812943,2.240863 48.339970,2.090044 16.871387,1.933835 
	C9.380738,1.896651 4.504044,5.070559 1.345756,11.908894 
	C1.000000,8.336144 1.000000,4.672289 1.000000,1.006325 
	C42.964993,1.004216 84.929985,1.004216 126.947487,1.004216 
	C126.947487,86.232872 126.947487,171.465790 126.947487,256.849365 
	C85.000374,256.849365 43.000267,256.849365 1.000000,256.849365 
	C1.000000,239.911270 1.000000,222.924301 1.000000,205.468658 
M12.213279,255.990067 
	C46.762325,255.990067 81.311371,255.990067 115.832321,255.990067 
	C116.192284,246.588226 111.806358,242.005524 103.070015,242.001007 
	C93.246574,241.995911 83.423134,241.999802 73.599693,241.999832 
	C56.616791,241.999863 39.633774,241.962830 22.651041,242.016495 
	C14.805052,242.041290 9.223805,248.977722 12.213279,255.990067 
M73.313721,237.999588 
	C75.399559,237.999588 77.485405,237.999588 79.493546,237.999588 
	C78.248405,232.684738 77.382118,227.577759 75.730667,222.738739 
	C75.187500,221.147171 72.624794,219.238083 70.962845,219.216400 
	C65.052032,219.139313 59.131432,219.813065 52.062943,220.278275 
	C50.625961,225.312851 48.861534,231.494659 47.004890,237.999573 
	C55.727306,237.999573 64.041687,237.999573 73.313721,237.999588 
z"/>
<path fill="#FFFFFF" opacity="1.000000" stroke="none" 
	d="
M89.165596,179.331284 
	C80.417961,184.221375 71.433434,187.668091 61.681705,186.893997 
	C43.895042,185.482117 30.251448,177.462158 21.897184,160.996521 
	C14.454283,146.327072 14.867023,131.420441 22.430397,117.769897 
	C30.382526,103.417717 43.328094,94.893936 60.592880,93.901123 
	C73.858887,93.138252 85.465172,97.102547 94.995880,105.771118 
	C103.786964,113.766975 109.181236,124.099464 109.992455,136.325195 
	C111.002365,151.545410 105.847664,164.353149 94.718796,174.747101 
	C93.058403,176.297836 91.188698,177.624481 89.165596,179.331284 
M76.144432,105.023705 
	C68.390701,102.518494 60.567043,102.011139 52.789070,104.713936 
	C39.662991,109.275154 31.208881,117.809181 27.405846,131.711761 
	C24.530252,142.223907 26.727367,151.704987 31.850864,159.922791 
	C40.283894,173.448898 53.185970,179.881134 69.522995,176.958115 
	C88.799820,173.509109 99.757469,159.782608 100.630005,141.500381 
	C101.427086,124.799240 92.281380,112.502312 76.144432,105.023705 
z"/>
<path fill="#FFFFFF" opacity="1.000000" stroke="none" 
	d="
M52.281601,74.991135 
	C40.356907,68.855713 34.003220,59.577831 35.051819,46.232399 
	C36.092850,32.983288 47.452084,21.580420 60.913662,20.894114 
	C72.639595,20.296293 81.556007,24.469975 87.785355,34.310474 
	C98.330353,50.968403 88.367706,71.929115 70.757530,76.054214 
	C64.544930,77.509491 58.582836,77.557831 52.281601,74.991135 
M58.219833,68.744904 
	C60.704517,68.829956 63.213654,69.177452 65.669090,68.948624 
	C71.906090,68.367371 77.062340,65.826225 80.369614,60.175152 
	C84.392311,53.301620 85.297363,45.953312 81.392738,39.108479 
	C76.700813,30.883493 69.216629,27.281668 59.442055,28.947962 
	C51.131237,30.364723 43.497654,38.624607 42.960846,46.934208 
	C42.333466,56.645794 48.898861,66.592995 58.219833,68.744904 
z"/>
<path fill="#FFFFFF" opacity="1.000000" stroke="none" 
	d="
M13.261827,12.259230 
	C15.723010,12.172897 18.219404,11.816517 19.928431,12.811944 
	C20.819738,13.331089 21.055548,16.719326 20.253319,17.921036 
	C19.420315,19.168840 16.726620,20.222889 15.286268,19.813805 
	C11.467740,18.729280 10.940149,15.877892 13.261827,12.259230 
z"/>
<path fill="#FFFFFF" opacity="1.000000" stroke="none" 
	d="
M113.740524,12.262017 
	C113.826927,14.723217 114.183403,17.219612 113.188026,18.928661 
	C112.668953,19.819899 109.280602,20.055513 108.078720,19.253242 
	C106.830902,18.420315 105.776657,15.726456 106.185867,14.286337 
	C107.270691,10.468668 110.121628,9.939386 113.740524,12.262017 
z"/>
<path fill="#FFFFFF" opacity="1.000000" stroke="none" 
	d="
M14.492351,197.191925 
	C18.424118,196.745605 21.215805,197.474533 20.986984,201.893890 
	C20.808222,205.346390 18.531866,206.425385 15.586284,205.892136 
	C14.343486,205.667145 12.332734,204.272430 12.364129,203.476181 
	C12.445330,201.416855 13.468479,199.394653 14.492351,197.191925 
z"/>
<path fill="#FFFFFF" opacity="1.000000" stroke="none" 
	d="
M110.904541,197.001129 
	C114.707550,197.593658 115.745560,200.152863 114.784653,202.782104 
	C114.254723,204.232071 111.661591,205.846420 110.113297,205.738632 
	C108.663857,205.637756 106.559639,203.562576 106.173210,202.002213 
	C105.428932,198.996902 107.056664,196.955154 110.904541,197.001129 
z"/>
<path fill="#000000" opacity="1.000000" stroke="none" 
	d="
M11.789955,255.925629 
	C9.223805,248.977722 14.805052,242.041290 22.651041,242.016495 
	C39.633774,241.962830 56.616791,241.999863 73.599693,241.999832 
	C83.423134,241.999802 93.246574,241.995911 103.070015,242.001007 
	C111.806358,242.005524 116.192284,246.588226 115.832321,255.990067 
	C81.311371,255.990067 46.762325,255.990067 11.789955,255.925629 
z"/>
<path fill="#000000" opacity="1.000000" stroke="none" 
	d="
M72.834892,237.999573 
	C64.041687,237.999573 55.727306,237.999573 47.004890,237.999573 
	C48.861534,231.494659 50.625961,225.312851 52.062943,220.278275 
	C59.131432,219.813065 65.052032,219.139313 70.962845,219.216400 
	C72.624794,219.238083 75.187500,221.147171 75.730667,222.738739 
	C77.382118,227.577759 78.248405,232.684738 79.493546,237.999588 
	C77.485405,237.999588 75.399559,237.999588 72.834892,237.999573 
z"/>
<path fill="#000000" opacity="1.000000" stroke="none" 
	d="
M76.513565,105.190414 
	C92.281380,112.502312 101.427086,124.799240 100.630005,141.500381 
	C99.757469,159.782608 88.799820,173.509109 69.522995,176.958115 
	C53.185970,179.881134 40.283894,173.448898 31.850864,159.922791 
	C26.727367,151.704987 24.530252,142.223907 27.405846,131.711761 
	C31.208881,117.809181 39.662991,109.275154 52.789070,104.713936 
	C60.567043,102.011139 68.390701,102.518494 76.513565,105.190414 
M52.613750,126.926056 
	C48.195446,130.373993 45.802174,135.395218 46.229916,140.485748 
	C47.011665,149.789185 54.323692,157.854965 64.708450,157.218964 
	C71.028221,156.831909 79.109024,150.806870 79.955521,144.174530 
	C81.448135,132.479675 76.311729,126.589256 68.303162,123.946228 
	C62.701630,122.097565 57.938164,124.036560 52.613750,126.926056 
z"/>
<path fill="#000000" opacity="1.000000" stroke="none" 
	d="
M57.925568,68.435211 
	C48.898861,66.592995 42.333466,56.645794 42.960846,46.934208 
	C43.497654,38.624607 51.131237,30.364723 59.442055,28.947962 
	C69.216629,27.281668 76.700813,30.883493 81.392738,39.108479 
	C85.297363,45.953312 84.392311,53.301620 80.369614,60.175152 
	C77.062340,65.826225 71.906090,68.367371 65.669090,68.948624 
	C63.213654,69.177452 60.704517,68.829956 57.925568,68.435211 
M55.007961,43.910980 
	C54.671963,46.127495 54.021046,48.350452 54.066223,50.559170 
	C54.157280,55.010708 59.043152,59.140335 63.646404,58.989742 
	C67.740044,58.855824 72.701523,54.558056 72.982895,50.777050 
	C73.299042,46.528732 72.874352,42.680565 68.203094,40.616631 
	C63.496819,38.537243 59.723469,38.236340 55.007961,43.910980 
z"/>
<path fill="#FFFFFF" opacity="1.000000" stroke="none" 
	d="
M52.867149,126.638344 
	C57.938164,124.036560 62.701630,122.097565 68.303162,123.946228 
	C76.311729,126.589256 81.448135,132.479675 79.955521,144.174530 
	C79.109024,150.806870 71.028221,156.831909 64.708450,157.218964 
	C54.323692,157.854965 47.011665,149.789185 46.229916,140.485748 
	C45.802174,135.395218 48.195446,130.373993 52.867149,126.638344 
z"/>
<path fill="#FFFFFF" opacity="1.000000" stroke="none" 
	d="
M55.158638,43.535400 
	C59.723469,38.236340 63.496819,38.537243 68.203094,40.616631 
	C72.874352,42.680565 73.299042,46.528732 72.982895,50.777050 
	C72.701523,54.558056 67.740044,58.855824 63.646404,58.989742 
	C59.043152,59.140335 54.157280,55.010708 54.066223,50.559170 
	C54.021046,48.350452 54.671963,46.127495 55.158638,43.535400 
z"/>
</svg>