<svg version="1.1" id="Layer_1" xmlns="http://www.w3.org/2000/svg" xmlns:xlink="http://www.w3.org/1999/xlink" x="0px" y="0px"
	 width="100%" viewBox="0 0 154 256" enable-background="new 0 0 154 256" xml:space="preserve">
<path fill="#FFFFFF" opacity="0.000000" stroke="none" 
	d="
M1.000000,77.000000 
	C1.000000,51.333340 1.000000,26.166679 1.000000,1.000014 
	C52.333313,1.000009 103.666626,1.000009 154.999954,1.000005 
	C154.999969,86.333290 154.999969,171.666580 154.999985,256.999908 
	C103.666718,256.999939 52.333435,256.999939 1.000076,256.999969 
	C1.000000,197.166672 1.000000,137.333328 1.000000,77.000000 
M10.217247,18.997417 
	C7.811864,22.283669 3.630424,25.417454 3.332783,28.884644 
	C2.425421,39.454384 2.064742,50.259995 3.252837,60.774761 
	C4.883723,75.208282 8.130013,89.459282 10.676288,103.744743 
	C12.929579,103.375656 15.421542,102.967476 18.439329,102.473167 
	C17.828295,99.616455 17.476755,96.886963 16.655693,94.306885 
	C10.356813,74.513512 5.593723,54.434116 7.181199,33.492630 
	C7.539486,28.766218 10.183183,24.213049 12.220259,19.197557 
	C12.352232,18.862276 12.484205,18.526997 12.616179,18.191715 
	C12.052618,18.434614 11.489058,18.677513 10.217247,18.997417 
M147.159348,159.001984 
	C135.018173,164.730392 121.940155,166.970764 108.803513,167.829239 
	C90.617584,169.017670 72.513268,167.561935 54.640091,163.410248 
	C48.218002,161.918472 41.488041,161.752106 34.995541,160.262680 
	C38.021832,155.751602 41.013599,151.216415 44.121990,146.762619 
	C44.475353,146.256302 45.483742,146.207138 46.011131,146.674728 
	C43.657871,150.616867 41.304607,154.558990 38.952057,158.499939 
	C49.745338,160.549881 60.257668,162.546463 71.641243,164.708511 
	C70.589287,160.760208 69.690041,157.385056 68.790794,154.009918 
	C69.235138,153.878906 69.679489,153.747879 70.123840,153.616867 
	C71.341003,157.309906 72.558159,161.002960 73.916611,165.124710 
	C78.713112,165.399948 83.944572,165.992706 89.168854,165.935135 
	C98.248390,165.835098 107.342888,165.597443 116.395569,164.933167 
	C127.721329,164.102066 138.631348,161.376877 148.738876,156.004623 
	C153.024628,153.726700 153.724533,150.713333 152.128525,146.274857 
	C150.439682,141.578201 146.760330,139.255127 142.564072,138.125488 
	C135.907928,136.333694 129.023804,135.406006 122.268936,133.959610 
	C112.256393,131.815628 102.481300,132.801910 92.871452,135.996201 
	C80.509140,140.105408 67.884491,141.972351 54.845032,141.035294 
	C49.432674,140.646362 49.420097,140.821396 48.576958,143.789581 
	C54.909035,146.138596 61.176277,148.463562 67.443520,150.788513 
	C67.311096,151.084213 67.178680,151.379898 67.046257,151.675598 
	C60.053497,149.798813 53.060738,147.922028 45.382206,145.498306 
	C46.839077,142.541656 48.215683,139.540634 49.808346,136.659042 
	C50.214695,135.923828 51.305779,135.567078 52.005585,135.805450 
	C51.026951,138.829010 52.262978,140.012833 55.292351,140.017975 
	C66.427605,140.036865 77.384872,138.745392 88.032059,135.431808 
	C91.016365,134.503021 95.064819,133.784515 96.483482,131.586975 
	C102.782448,121.829758 105.272484,110.852867 101.946770,99.524353 
	C98.891708,89.117767 94.159340,79.200821 91.154182,68.783073 
	C87.555099,56.306454 85.207497,43.473362 81.865479,30.915054 
	C80.960892,27.515905 78.421112,24.551916 76.631874,21.388195 
	C74.044296,26.788887 73.832527,32.605549 67.304222,32.914089 
	C54.416065,33.523201 41.507114,33.798126 28.603952,33.924786 
	C24.285923,33.967171 20.552338,32.772327 19.846575,27.213873 
	C19.484566,24.362762 17.661516,21.697165 15.824144,17.352589 
	C13.440740,21.345360 10.706246,24.104740 10.150674,27.249113 
	C9.103906,33.173500 8.833838,39.342766 9.122983,45.367908 
	C9.473066,52.662827 10.211906,60.025639 11.728392,67.157951 
	C14.062632,78.136322 17.106064,88.970261 20.124104,99.788628 
	C20.490553,101.102188 22.467072,102.694328 23.856785,102.865837 
	C29.222286,103.528008 34.838818,102.915230 40.009258,104.198273 
	C45.893410,105.658417 51.400772,108.636963 56.490242,111.628273 
	C41.969574,103.839890 26.333736,103.368416 10.542712,105.225212 
	C7.643198,105.566154 1.213065,104.572922 3.450602,111.997063 
	C4.339996,111.997063 5.349391,112.172798 6.275403,111.969231 
	C13.617204,110.355286 21.035917,108.750778 28.426519,111.085808 
	C33.464172,112.677437 38.245892,115.079132 42.473434,117.701508 
	C36.260998,114.065575 29.499390,112.491745 23.210459,112.024788 
	C21.764160,121.428581 20.296049,130.369125 19.104269,139.346344 
	C18.915819,140.765869 19.974813,142.350983 20.457052,143.859543 
	C21.720919,143.327866 22.993006,142.814789 24.246899,142.260544 
	C26.677849,141.185989 29.054693,139.296097 31.532303,139.158890 
	C37.359234,138.836212 41.006157,136.407913 42.691929,130.805206 
	C43.641735,127.648521 44.904480,124.585999 45.770718,122.188347 
	C44.609589,120.026665 43.781921,118.485794 43.693485,116.999207 
	C48.156719,120.831047 53.048912,122.532219 58.793144,120.059891 
	C61.478123,118.904282 61.696854,117.391624 59.771450,115.200050 
	C58.643620,113.916290 57.890282,112.303528 57.685860,110.990944 
	C63.315960,114.837929 64.372978,118.195168 61.126617,121.050148 
	C59.401852,122.566978 58.075188,124.611320 56.832817,126.583824 
	C55.085377,129.358246 53.583252,132.287155 51.329140,134.499939 
	C52.812794,130.762177 54.296448,127.024406 55.893898,122.999954 
	C54.709396,122.999954 53.630562,123.262634 52.751160,122.955070 
	C48.666279,121.526466 47.521030,123.485191 45.785393,127.066208 
	C41.674694,135.547531 36.829494,143.729431 31.581511,151.563690 
	C30.247648,153.554901 26.051384,154.968491 23.627304,154.461700 
	C21.720192,154.062988 19.620165,150.471329 19.152212,148.004608 
	C16.918728,136.231247 15.213096,124.357750 13.321819,112.532890 
	C11.628275,112.845802 9.517344,113.235832 7.541100,113.600975 
	C7.725986,115.712532 7.825997,117.281548 8.005911,118.841362 
	C9.328726,130.309814 10.277234,141.839554 12.119233,153.224518 
	C13.722067,163.131271 27.336342,167.421219 35.648930,161.467316 
	C35.193565,162.488297 34.738197,163.509277 34.061218,165.027130 
	C38.154495,165.906799 42.170368,166.929398 46.243160,167.612762 
	C55.487282,169.163773 64.727150,171.477661 74.027084,171.800339 
	C91.738510,172.414871 109.610207,173.185715 127.042252,168.891296 
	C134.702087,167.004257 143.031357,166.156677 149.221069,159.197220 
	C149.352798,158.861893 149.484512,158.526566 149.616241,158.191238 
	C149.052567,158.434204 148.488876,158.677170 147.159348,159.001984 
M20.562296,5.353628 
	C27.963602,12.826683 26.859512,22.548473 27.074772,31.903934 
	C33.925320,32.286568 40.303570,32.829853 46.688667,32.928196 
	C50.423660,32.985718 54.179588,32.418976 57.908791,31.984503 
	C71.149033,30.441946 72.855835,33.021702 72.999374,16.534376 
	C73.003716,16.035852 73.040993,15.533157 72.992516,15.039318 
	C72.485931,9.879151 68.545731,4.182313 64.963203,4.050417 
	C52.424370,3.588780 39.877644,3.147997 27.334597,3.166271 
	C24.974239,3.169710 21.446503,2.564265 19.330946,6.002890 
	C16.678463,4.747544 16.218212,5.939302 15.918768,8.464053 
	C15.175647,14.729672 19.586880,19.238512 21.032219,24.736961 
	C21.625769,26.994989 22.827454,29.093159 23.752510,31.264046 
	C24.248735,31.170351 24.744961,31.076656 25.241186,30.982960 
	C25.241186,28.520401 25.725832,25.936712 25.146551,23.618933 
	C23.655481,17.652964 21.693209,11.804763 20.562296,5.353628 
M147.578995,231.353149 
	C148.294220,232.447815 149.009430,233.542465 149.724655,234.637115 
	C150.781525,233.365036 150.983673,232.844009 150.813278,232.517288 
	C148.493866,228.070053 141.990891,227.040588 141.445023,221.096329 
	C141.436478,221.003220 140.841751,220.980423 140.528152,220.896469 
	C131.604645,218.507507 123.561028,213.235367 113.986481,212.891830 
	C112.596024,212.841949 111.244194,211.715363 109.874489,211.087006 
	C109.990685,210.786148 110.106873,210.485275 110.223061,210.184402 
	C112.009171,210.490646 113.795273,210.796875 115.573715,211.101791 
	C116.630554,207.691559 116.054222,205.425888 112.598907,205.051132 
	C108.038681,204.556580 103.453362,204.215729 98.869926,204.035583 
	C94.621651,203.868637 90.361641,204.000000 87.208580,204.000000 
	C85.634560,196.450012 84.240646,189.763947 82.893280,183.301117 
	C79.618889,183.301117 76.867973,183.301117 74.088562,183.301117 
	C73.124634,190.305603 72.200348,197.022034 71.304604,203.531021 
	C62.722221,204.016205 54.016281,204.503418 45.311035,205.002823 
	C41.609543,205.215164 40.633739,207.355652 41.199833,211.104828 
	C43.524021,210.737045 45.597839,210.408875 47.671658,210.080719 
	C47.728271,210.632156 47.784882,211.183594 47.841492,211.735031 
	C44.948490,211.948196 41.877247,211.612259 39.197407,212.482132 
	C32.387306,214.692688 25.719847,217.362106 19.072119,220.038681 
	C17.562656,220.646439 16.210510,221.881500 15.062721,223.090561 
	C13.653708,224.574738 12.584538,226.375259 11.278150,227.964798 
	C9.809540,229.751740 8.240210,231.455887 6.714697,233.196045 
	C9.540916,232.314301 11.162335,230.519745 13.167171,229.431564 
	C15.623085,228.098541 17.944807,228.967911 18.167393,231.001007 
	C17.167961,231.000931 16.158342,230.908569 15.170948,231.017548 
	C11.775029,231.392395 9.170259,234.838181 10.051952,237.989868 
	C11.085475,241.684341 13.971464,242.611893 17.288839,241.843140 
	C22.123571,240.722778 22.701899,236.069092 19.469650,230.244446 
	C19.978861,229.831009 20.703323,229.517944 20.952623,228.983292 
	C21.477261,227.858170 21.521664,225.731247 22.166845,225.562943 
	C27.435143,224.188629 33.789707,220.843140 37.894997,222.594681 
	C43.937897,225.172943 47.006680,224.971222 50.031422,219.545258 
	C50.209469,219.225861 50.871254,219.098831 51.330822,219.025284 
	C57.714901,218.003693 64.085373,216.864288 70.498589,216.073441 
	C73.132095,215.748672 74.933838,216.710678 75.102379,220.138260 
	C75.405228,226.297256 76.151390,232.454895 77.141022,238.543411 
	C77.352539,239.844727 79.392914,240.848770 80.590767,241.989746 
	C81.393814,240.627518 82.771385,239.317429 82.900612,237.894028 
	C83.465118,231.676102 83.479988,225.404541 84.165512,219.204544 
	C84.296211,218.022507 86.609772,216.125168 87.824440,216.193344 
	C91.993530,216.427322 96.205086,217.078781 100.240440,218.165344 
	C103.725121,219.103622 108.078697,218.585510 109.941223,223.221115 
	C110.340614,224.215103 113.476273,225.323837 114.105293,224.820969 
	C119.552811,220.466003 125.128922,223.197861 130.719528,223.963257 
	C134.788452,224.520294 138.045959,225.596161 137.123032,230.832047 
	C143.179291,228.087173 145.298813,228.392151 146.272125,232.000565 
	C145.547195,231.675369 144.702377,230.931320 144.118332,231.098465 
	C141.752731,231.775467 138.324631,232.135895 137.478012,233.756760 
	C136.653381,235.335526 137.856583,238.968109 139.381470,240.460571 
	C140.573151,241.626923 144.438217,241.827347 145.634216,240.774475 
	C147.111908,239.473633 147.149673,236.449890 147.605728,234.130478 
	C147.737411,233.460663 147.167633,232.652939 147.578995,231.353149 
M31.177893,176.290207 
	C28.356485,178.454697 25.502449,180.578308 22.723661,182.796188 
	C20.364035,184.679489 20.094782,186.399002 23.298229,187.728165 
	C26.483980,189.050003 28.820316,189.057892 30.504025,185.202515 
	C31.800924,182.232880 34.308975,177.327515 36.044907,177.425400 
	C45.362877,177.950790 55.216812,170.925903 64.057373,178.951141 
	C64.587517,179.432404 65.508392,179.516464 66.267036,179.707733 
	C75.710037,182.088577 85.287613,182.517120 94.847137,180.898148 
	C100.458733,179.947800 106.545769,179.353241 109.236168,174.000000 
	C104.218597,174.000000 98.797997,173.428955 93.539658,174.110260 
	C79.434776,175.937729 65.637016,169.854141 51.498844,172.932022 
	C45.055721,174.334671 38.452843,175.003510 31.177893,176.290207 
M142.930450,100.413841 
	C130.414291,96.582451 117.791557,97.705772 105.253708,98.981270 
	C105.253708,101.383667 105.253708,103.151375 105.253708,104.441551 
	C108.241905,104.279373 111.009239,104.322334 113.718590,103.946846 
	C122.771675,102.692177 131.550110,103.691780 138.918961,109.176300 
	C142.683990,111.978554 146.334106,112.119347 150.371155,111.935982 
	C151.543106,111.882751 153.580826,111.173622 153.653503,110.574806 
	C153.826096,109.153160 153.544098,106.968231 152.581787,106.250961 
	C149.800339,104.177750 146.592346,102.676781 142.930450,100.413841 
M131.963547,128.391586 
	C130.893188,129.708313 129.822830,131.025040 128.377396,132.803177 
	C132.093475,133.130463 136.640366,134.632751 137.540329,133.422699 
	C141.827087,127.658859 145.122314,121.157578 149.307983,113.999214 
	C146.465805,113.999214 145.169525,114.350243 144.199310,113.936539 
	C140.601059,112.402229 139.430878,114.140572 138.117584,117.248787 
	C136.568604,120.914810 134.100601,124.192520 131.963547,128.391586 
M22.592360,152.052917 
	C27.632713,153.837677 31.773867,151.104965 33.227798,145.000092 
	C30.908939,145.000092 28.599054,144.962769 26.290791,145.008072 
	C21.895882,145.094330 20.582275,147.116348 22.592360,152.052917 
M74.763786,255.944290 
	C75.283501,251.682495 75.803215,247.420685 76.322922,243.158890 
	C75.736412,243.126465 75.149902,243.094025 74.563393,243.061600 
	C72.132362,247.023148 72.585953,251.178802 74.763786,255.944290 
M81.393921,243.066956 
	C74.156570,243.259766 79.790672,248.329132 77.805725,250.785782 
	C79.544632,250.785782 80.609993,250.785782 81.951813,250.785782 
	C81.951813,248.316467 81.951813,246.052139 81.393921,243.066956 
M84.967773,243.522491 
	C84.541183,247.505447 84.114594,251.488419 83.688011,255.471375 
	C87.369347,251.909256 88.321732,248.148148 84.967773,243.522491 
z"/>
<path fill="#000000" opacity="1.000000" stroke="none" 
	d="
M51.976212,135.149994 
	C53.583252,132.287155 55.085377,129.358246 56.832817,126.583824 
	C58.075188,124.611320 59.401852,122.566978 61.126617,121.050148 
	C64.372978,118.195168 63.315960,114.837929 57.338295,110.957092 
	C56.990734,110.923241 57.071907,110.955536 57.071907,110.955536 
	C51.400772,108.636963 45.893410,105.658417 40.009258,104.198273 
	C34.838818,102.915230 29.222286,103.528008 23.856785,102.865837 
	C22.467072,102.694328 20.490553,101.102188 20.124104,99.788628 
	C17.106064,88.970261 14.062632,78.136322 11.728392,67.157951 
	C10.211906,60.025639 9.473066,52.662827 9.122983,45.367908 
	C8.833838,39.342766 9.103906,33.173500 10.150674,27.249113 
	C10.706246,24.104740 13.440740,21.345360 15.824144,17.352589 
	C17.661516,21.697165 19.484566,24.362762 19.846575,27.213873 
	C20.552338,32.772327 24.285923,33.967171 28.603952,33.924786 
	C41.507114,33.798126 54.416065,33.523201 67.304222,32.914089 
	C73.832527,32.605549 74.044296,26.788887 76.631874,21.388195 
	C78.421112,24.551916 80.960892,27.515905 81.865479,30.915054 
	C85.207497,43.473362 87.555099,56.306454 91.154182,68.783073 
	C94.159340,79.200821 98.891708,89.117767 101.946770,99.524353 
	C105.272484,110.852867 102.782448,121.829758 96.483482,131.586975 
	C95.064819,133.784515 91.016365,134.503021 88.032059,135.431808 
	C77.384872,138.745392 66.427605,140.036865 55.292351,140.017975 
	C52.262978,140.012833 51.026951,138.829010 52.003040,135.435242 
	C52.000496,135.065048 51.976212,135.149994 51.976212,135.149994 
z"/>
<path fill="#000000" opacity="1.000000" stroke="none" 
	d="
M46.067978,146.045258 
	C53.060738,147.922028 60.053497,149.798813 67.046257,151.675598 
	C67.178680,151.379898 67.311096,151.084213 67.443520,150.788513 
	C61.176277,148.463562 54.909035,146.138596 48.576958,143.789581 
	C49.420097,140.821396 49.432674,140.646362 54.845032,141.035294 
	C67.884491,141.972351 80.509140,140.105408 92.871452,135.996201 
	C102.481300,132.801910 112.256393,131.815628 122.268936,133.959610 
	C129.023804,135.406006 135.907928,136.333694 142.564072,138.125488 
	C146.760330,139.255127 150.439682,141.578201 152.128525,146.274857 
	C153.724533,150.713333 153.024628,153.726700 148.738876,156.004623 
	C138.631348,161.376877 127.721329,164.102066 116.395569,164.933167 
	C107.342888,165.597443 98.248390,165.835098 89.168854,165.935135 
	C83.944572,165.992706 78.713112,165.399948 73.916611,165.124710 
	C72.558159,161.002960 71.341003,157.309906 70.123840,153.616867 
	C69.679489,153.747879 69.235138,153.878906 68.790794,154.009918 
	C69.690041,157.385056 70.589287,160.760208 71.641243,164.708511 
	C60.257668,162.546463 49.745338,160.549881 38.952057,158.499939 
	C41.304607,154.558990 43.657871,150.616867 46.057514,146.320435 
	C46.103897,145.966141 46.067978,146.045258 46.067978,146.045258 
z"/>
<path fill="#000000" opacity="1.000000" stroke="none" 
	d="
M18.989632,231.000671 
	C17.944807,228.967911 15.623085,228.098541 13.167171,229.431564 
	C11.162335,230.519745 9.540916,232.314301 6.714697,233.196045 
	C8.240210,231.455887 9.809540,229.751740 11.278150,227.964798 
	C12.584538,226.375259 13.653708,224.574738 15.062721,223.090561 
	C16.210510,221.881500 17.562656,220.646439 19.072119,220.038681 
	C25.719847,217.362106 32.387306,214.692688 39.197407,212.482132 
	C41.877247,211.612259 44.948490,211.948196 47.841492,211.735031 
	C47.784882,211.183594 47.728271,210.632156 47.671658,210.080719 
	C45.597839,210.408875 43.524021,210.737045 41.199833,211.104828 
	C40.633739,207.355652 41.609543,205.215164 45.311035,205.002823 
	C54.016281,204.503418 62.722221,204.016205 71.304604,203.531021 
	C72.200348,197.022034 73.124634,190.305603 74.088562,183.301117 
	C76.867973,183.301117 79.618889,183.301117 82.893280,183.301117 
	C84.240646,189.763947 85.634560,196.450012 87.208580,204.000000 
	C90.361641,204.000000 94.621651,203.868637 98.869926,204.035583 
	C103.453362,204.215729 108.038681,204.556580 112.598907,205.051132 
	C116.054222,205.425888 116.630554,207.691559 115.573715,211.101791 
	C113.795273,210.796875 112.009171,210.490646 110.223061,210.184402 
	C110.106873,210.485275 109.990685,210.786148 109.874489,211.087006 
	C111.244194,211.715363 112.596024,212.841949 113.986481,212.891830 
	C123.561028,213.235367 131.604645,218.507507 140.528152,220.896469 
	C140.841751,220.980423 141.436478,221.003220 141.445023,221.096329 
	C141.990891,227.040588 148.493866,228.070053 150.813278,232.517288 
	C150.983673,232.844009 150.781525,233.365036 149.724655,234.637115 
	C149.009430,233.542465 148.294220,232.447815 147.290771,231.674637 
	C147.002533,231.996124 147.090179,232.079224 147.090179,232.079224 
	C145.298813,228.392151 143.179291,228.087173 137.123032,230.832047 
	C138.045959,225.596161 134.788452,224.520294 130.719528,223.963257 
	C125.128922,223.197861 119.552811,220.466003 114.105293,224.820969 
	C113.476273,225.323837 110.340614,224.215103 109.941223,223.221115 
	C108.078697,218.585510 103.725121,219.103622 100.240440,218.165344 
	C96.205086,217.078781 91.993530,216.427322 87.824440,216.193344 
	C86.609772,216.125168 84.296211,218.022507 84.165512,219.204544 
	C83.479988,225.404541 83.465118,231.676102 82.900612,237.894028 
	C82.771385,239.317429 81.393814,240.627518 80.590767,241.989746 
	C79.392914,240.848770 77.352539,239.844727 77.141022,238.543411 
	C76.151390,232.454895 75.405228,226.297256 75.102379,220.138260 
	C74.933838,216.710678 73.132095,215.748672 70.498589,216.073441 
	C64.085373,216.864288 57.714901,218.003693 51.330822,219.025284 
	C50.871254,219.098831 50.209469,219.225861 50.031422,219.545258 
	C47.006680,224.971222 43.937897,225.172943 37.894997,222.594681 
	C33.789707,220.843140 27.435143,224.188629 22.166845,225.562943 
	C21.521664,225.731247 21.477261,227.858170 20.952623,228.983292 
	C20.703323,229.517944 19.978861,229.831009 19.186703,230.579498 
	C18.903755,230.914551 18.989632,231.000671 18.989632,231.000671 
z"/>
<path fill="#000000" opacity="1.000000" stroke="none" 
	d="
M20.090530,6.080801 
	C21.446503,2.564265 24.974239,3.169710 27.334597,3.166271 
	C39.877644,3.147997 52.424370,3.588780 64.963203,4.050417 
	C68.545731,4.182313 72.485931,9.879151 72.992516,15.039318 
	C73.040993,15.533157 73.003716,16.035852 72.999374,16.534376 
	C72.855835,33.021702 71.149033,30.441946 57.908791,31.984503 
	C54.179588,32.418976 50.423660,32.985718 46.688667,32.928196 
	C40.303570,32.829853 33.925320,32.286568 27.074772,31.903934 
	C26.859512,22.548473 27.963602,12.826683 20.282570,5.675406 
	C20.002844,5.997184 20.090530,6.080801 20.090530,6.080801 
z"/>
<path fill="#000000" opacity="1.000000" stroke="none" 
	d="
M46.146152,145.956070 
	C45.483742,146.207138 44.475353,146.256302 44.121990,146.762619 
	C41.013599,151.216415 38.021832,155.751602 34.989372,160.607407 
	C34.983204,160.952133 35.009277,160.867386 35.009277,160.867386 
	C27.336342,167.421219 13.722067,163.131271 12.119233,153.224518 
	C10.277234,141.839554 9.328726,130.309814 8.005911,118.841362 
	C7.825997,117.281548 7.725986,115.712532 7.541100,113.600975 
	C9.517344,113.235832 11.628275,112.845802 13.321819,112.532890 
	C15.213096,124.357750 16.918728,136.231247 19.152212,148.004608 
	C19.620165,150.471329 21.720192,154.062988 23.627304,154.461700 
	C26.051384,154.968491 30.247648,153.554901 31.581511,151.563690 
	C36.829494,143.729431 41.674694,135.547531 45.785393,127.066208 
	C47.521030,123.485191 48.666279,121.526466 52.751160,122.955070 
	C53.630562,123.262634 54.709396,122.999954 55.893898,122.999954 
	C54.296448,127.024406 52.812794,130.762177 51.652676,134.824966 
	C51.976212,135.149994 52.000496,135.065048 52.041378,135.050751 
	C51.305779,135.567078 50.214695,135.923828 49.808346,136.659042 
	C48.215683,139.540634 46.839077,142.541656 45.725090,145.771790 
	C46.067978,146.045258 46.103897,145.966141 46.146152,145.956070 
z"/>
<path fill="#000000" opacity="1.000000" stroke="none" 
	d="
M42.954254,116.944916 
	C43.781921,118.485794 44.609589,120.026665 45.770718,122.188347 
	C44.904480,124.585999 43.641735,127.648521 42.691929,130.805206 
	C41.006157,136.407913 37.359234,138.836212 31.532303,139.158890 
	C29.054693,139.296097 26.677849,141.185989 24.246899,142.260544 
	C22.993006,142.814789 21.720919,143.327866 20.457054,143.859543 
	C19.974813,142.350983 18.915819,140.765869 19.104269,139.346344 
	C20.296049,130.369125 21.764160,121.428581 23.210459,112.024788 
	C29.499390,112.491745 36.260998,114.065575 42.758945,117.367386 
	C43.044456,117.033264 42.954254,116.944916 42.954254,116.944916 
z"/>
<path fill="#000000" opacity="1.000000" stroke="none" 
	d="
M148.775513,159.579773 
	C143.031357,166.156677 134.702087,167.004257 127.042252,168.891296 
	C109.610207,173.185715 91.738510,172.414871 74.027084,171.800339 
	C64.727150,171.477661 55.487282,169.163773 46.243160,167.612762 
	C42.170368,166.929398 38.154495,165.906799 34.061218,165.027130 
	C34.738197,163.509277 35.193565,162.488297 35.329102,161.167358 
	C35.009277,160.867386 34.983204,160.952133 34.940895,160.966492 
	C41.488041,161.752106 48.218002,161.918472 54.640091,163.410248 
	C72.513268,167.561935 90.617584,169.017670 108.803513,167.829239 
	C121.940155,166.970764 135.018173,164.730392 147.747437,159.135544 
	C148.482178,159.372665 148.628845,159.476212 148.775513,159.579773 
z"/>
<path fill="#000000" opacity="1.000000" stroke="none" 
	d="
M31.550159,176.147705 
	C38.452843,175.003510 45.055721,174.334671 51.498844,172.932022 
	C65.637016,169.854141 79.434776,175.937729 93.539658,174.110260 
	C98.797997,173.428955 104.218597,174.000000 109.236168,174.000000 
	C106.545769,179.353241 100.458733,179.947800 94.847137,180.898148 
	C85.287613,182.517120 75.710037,182.088577 66.267036,179.707733 
	C65.508392,179.516464 64.587517,179.432404 64.057373,178.951141 
	C55.216812,170.925903 45.362877,177.950790 36.044907,177.425400 
	C34.308975,177.327515 31.800924,182.232880 30.504025,185.202515 
	C28.820316,189.057892 26.483980,189.050003 23.298229,187.728165 
	C20.094782,186.399002 20.364035,184.679489 22.723661,182.796188 
	C25.502449,180.578308 28.356485,178.454697 31.550159,176.147705 
z"/>
<path fill="#000000" opacity="1.000000" stroke="none" 
	d="
M11.774839,19.580132 
	C10.183183,24.213049 7.539486,28.766218 7.181199,33.492630 
	C5.593723,54.434116 10.356813,74.513512 16.655693,94.306885 
	C17.476755,96.886963 17.828295,99.616455 18.439329,102.473167 
	C15.421542,102.967476 12.929579,103.375656 10.676288,103.744743 
	C8.130013,89.459282 4.883723,75.208282 3.252837,60.774761 
	C2.064742,50.259995 2.425421,39.454384 3.332783,28.884644 
	C3.630424,25.417454 7.811864,22.283669 10.776289,19.133394 
	C11.481835,19.372957 11.628338,19.476545 11.774839,19.580132 
z"/>
<path fill="#000000" opacity="1.000000" stroke="none" 
	d="
M56.979607,110.880997 
	C57.890282,112.303528 58.643620,113.916290 59.771450,115.200050 
	C61.696854,117.391624 61.478123,118.904282 58.793144,120.059891 
	C53.048912,122.532219 48.156719,120.831047 43.323868,116.972061 
	C42.954254,116.944916 43.044456,117.033264 43.093254,117.075943 
	C38.245892,115.079132 33.464172,112.677437 28.426519,111.085808 
	C21.035917,108.750778 13.617204,110.355286 6.275403,111.969231 
	C5.349391,112.172798 4.339996,111.997063 3.450602,111.997063 
	C1.213065,104.572922 7.643198,105.566154 10.542712,105.225212 
	C26.333736,103.368416 41.969574,103.839890 56.781075,111.291901 
	C57.071907,110.955536 56.990734,110.923241 56.979607,110.880997 
z"/>
<path fill="#000000" opacity="1.000000" stroke="none" 
	d="
M143.241150,100.682495 
	C146.592346,102.676781 149.800339,104.177750 152.581787,106.250961 
	C153.544098,106.968231 153.826096,109.153160 153.653503,110.574806 
	C153.580826,111.173622 151.543106,111.882751 150.371155,111.935982 
	C146.334106,112.119347 142.683990,111.978554 138.918961,109.176300 
	C131.550110,103.691780 122.771675,102.692177 113.718590,103.946846 
	C111.009239,104.322334 108.241905,104.279373 105.253708,104.441551 
	C105.253708,103.151375 105.253708,101.383667 105.253708,98.981270 
	C117.791557,97.705772 130.414291,96.582451 143.241150,100.682495 
z"/>
<path fill="#000000" opacity="1.000000" stroke="none" 
	d="
M131.997299,128.015091 
	C134.100601,124.192520 136.568604,120.914810 138.117584,117.248787 
	C139.430878,114.140572 140.601059,112.402229 144.199310,113.936539 
	C145.169525,114.350243 146.465805,113.999214 149.307983,113.999214 
	C145.122314,121.157578 141.827087,127.658859 137.540329,133.422699 
	C136.640366,134.632751 132.093475,133.130463 128.377396,132.803177 
	C129.822830,131.025040 130.893188,129.708313 131.997299,128.015091 
z"/>
<path fill="#000000" opacity="1.000000" stroke="none" 
	d="
M19.961031,5.953344 
	C21.693209,11.804763 23.655481,17.652964 25.146551,23.618933 
	C25.725832,25.936712 25.241186,28.520401 25.241186,30.982960 
	C24.744961,31.076656 24.248735,31.170351 23.752510,31.264046 
	C22.827454,29.093159 21.625769,26.994989 21.032219,24.736961 
	C19.586880,19.238512 15.175647,14.729672 15.918768,8.464053 
	C16.218212,5.939302 16.678463,4.747544 19.710739,6.041845 
	C20.090530,6.080801 20.002844,5.997184 19.961031,5.953344 
z"/>
<path fill="#000000" opacity="1.000000" stroke="none" 
	d="
M18.858818,230.873581 
	C22.701899,236.069092 22.123571,240.722778 17.288839,241.843140 
	C13.971464,242.611893 11.085475,241.684341 10.051952,237.989868 
	C9.170259,234.838181 11.775029,231.392395 15.170948,231.017548 
	C16.158342,230.908569 17.167961,231.000931 18.578512,231.000839 
	C18.989632,231.000671 18.903755,230.914551 18.858818,230.873581 
z"/>
<path fill="#000000" opacity="1.000000" stroke="none" 
	d="
M146.960999,231.952271 
	C147.167633,232.652939 147.737411,233.460663 147.605728,234.130478 
	C147.149673,236.449890 147.111908,239.473633 145.634216,240.774475 
	C144.438217,241.827347 140.573151,241.626923 139.381470,240.460571 
	C137.856583,238.968109 136.653381,235.335526 137.478012,233.756760 
	C138.324631,232.135895 141.752731,231.775467 144.118332,231.098465 
	C144.702377,230.931320 145.547195,231.675369 146.681152,232.039886 
	C147.090179,232.079224 147.002533,231.996124 146.960999,231.952271 
z"/>
<path fill="#000000" opacity="1.000000" stroke="none" 
	d="
M22.317802,151.762817 
	C20.582275,147.116348 21.895882,145.094330 26.290791,145.008072 
	C28.599054,144.962769 30.908939,145.000092 33.227798,145.000092 
	C31.773867,151.104965 27.632713,153.837677 22.317802,151.762817 
z"/>
<path fill="#000000" opacity="1.000000" stroke="none" 
	d="
M74.411469,255.673691 
	C72.585953,251.178802 72.132362,247.023148 74.563393,243.061600 
	C75.149902,243.094025 75.736412,243.126465 76.322922,243.158890 
	C75.803215,247.420685 75.283501,251.682495 74.411469,255.673691 
z"/>
<path fill="#000000" opacity="1.000000" stroke="none" 
	d="
M81.672867,243.427399 
	C81.951813,246.052139 81.951813,248.316467 81.951813,250.785782 
	C80.609993,250.785782 79.544632,250.785782 77.805725,250.785782 
	C79.790672,248.329132 74.156570,243.259766 81.672867,243.427399 
z"/>
<path fill="#000000" opacity="1.000000" stroke="none" 
	d="
M85.285583,243.796127 
	C88.321732,248.148148 87.369347,251.909256 83.688011,255.471375 
	C84.114594,251.488419 84.541183,247.505447 85.285583,243.796127 
z"/>
<path fill="#000000" opacity="1.000000" stroke="none" 
	d="
M148.130356,159.094620 
	C148.488876,158.677170 149.052567,158.434204 149.616241,158.191238 
	C149.484512,158.526566 149.352798,158.861893 148.998291,159.388489 
	C148.628845,159.476212 148.482178,159.372665 148.130356,159.094620 
z"/>
<path fill="#000000" opacity="1.000000" stroke="none" 
	d="
M11.130415,19.094891 
	C11.489058,18.677513 12.052618,18.434614 12.616179,18.191715 
	C12.484205,18.526997 12.352232,18.862276 11.997549,19.388844 
	C11.628338,19.476545 11.481835,19.372957 11.130415,19.094891 
z"/>
</svg>