<?xml version="1.0" encoding="UTF-8"?>
<!DOCTYPE svg PUBLIC "-//W3C//DTD SVG 1.1//EN" "http://www.w3.org/Graphics/SVG/1.1/DTD/svg11.dtd">
<svg xmlns="http://www.w3.org/2000/svg" version="1.1" width="344px" height="575px" style="shape-rendering:geometricPrecision; text-rendering:geometricPrecision; image-rendering:optimizeQuality; fill-rule:evenodd; clip-rule:evenodd" xmlns:xlink="http://www.w3.org/1999/xlink">
<g><path style="opacity:1" fill="#000000" d="M 127.5,-0.5 C 157.833,-0.5 188.167,-0.5 218.5,-0.5C 252.798,5.29816 277.965,23.6315 294,54.5C 328.871,126.321 326.205,196.654 286,265.5C 268.882,289.251 245.715,303.084 216.5,307C 187.5,307.667 158.5,307.667 129.5,307C 91.7817,301.278 64.9484,281.111 49,246.5C 19.2126,181.187 20.5459,116.52 53,52.5C 69.578,23.136 94.4113,5.46938 127.5,-0.5 Z"/></g>
<g><path style="opacity:1" fill="#000000" d="M 9.5,314.5 C 15.1052,313.908 20.4386,314.741 25.5,317C 27.0412,318.579 28.2078,320.413 29,322.5C 29.6667,343.5 29.6667,364.5 29,385.5C 28.214,388.583 26.3807,390.749 23.5,392C 17.8333,392.667 12.1667,392.667 6.5,392C 3.61931,390.749 1.78597,388.583 1,385.5C 0.333333,364.833 0.333333,344.167 1,323.5C 2.68784,319.315 5.52117,316.315 9.5,314.5 Z"/></g>
<g><path style="opacity:1" fill="#000000" d="M 343.5,322.5 C 343.5,343.5 343.5,364.5 343.5,385.5C 342.314,388.34 340.314,390.506 337.5,392C 331.833,392.667 326.167,392.667 320.5,392C 317.619,390.749 315.786,388.583 315,385.5C 314.333,364.833 314.333,344.167 315,323.5C 319.348,315.085 326.181,312.252 335.5,315C 339.35,316.353 342.017,318.853 343.5,322.5 Z"/></g>
<g><path style="opacity:1" fill="#000000" d="M 165.5,319.5 C 201.328,319.718 236.994,322.218 272.5,327C 287.445,330.944 296.611,340.444 300,355.5C 300.667,364.833 300.667,374.167 300,383.5C 299.5,385.333 298.333,386.5 296.5,387C 213.496,395.64 130.496,395.64 47.5,387C 45.3333,386.167 43.8333,384.667 43,382.5C 37.3863,347.834 51.8863,328.668 86.5,325C 112.919,322.121 139.253,320.287 165.5,319.5 Z"/></g>
<g><path style="opacity:1" fill="#000000" d="M 167.5,405.5 C 177.027,403.87 183.527,407.537 187,416.5C 188.272,428.43 188.938,440.43 189,452.5C 221,483.833 253,515.167 285,546.5C 289.236,555.222 288.069,563.055 281.5,570C 273.752,573.78 266.419,573.114 259.5,568C 236.333,544.833 213.167,521.667 190,498.5C 189.667,518.167 189.333,537.833 189,557.5C 184.363,571.83 175.696,575.163 163,567.5C 160.806,564.446 159.139,561.112 158,557.5C 157.667,537.5 157.333,517.5 157,497.5C 132.833,521.667 108.667,545.833 84.5,570C 75.4777,574.456 67.6443,572.956 61,565.5C 57.6667,559.5 57.6667,553.5 61,547.5C 92.6667,515.833 124.333,484.167 156,452.5C 156.333,441.5 156.667,430.5 157,419.5C 158.844,413.429 162.344,408.763 167.5,405.5 Z"/></g>
</svg>
