<svg version="1.1" id="Layer_1" xmlns="http://www.w3.org/2000/svg" xmlns:xlink="http://www.w3.org/1999/xlink" x="0px" y="0px"
	 width="100%" viewBox="0 0 249 256" enable-background="new 0 0 249 256" xml:space="preserve">
<path fill="#FFFFFF" opacity="0.000000" stroke="none" 
	d="
M138.000000,1.000000 
	C175.316742,1.000000 212.633484,1.000000 249.975113,1.000000 
	C249.975113,86.278801 249.975113,171.557617 249.975113,256.918213 
	C167.091492,256.918213 84.182861,256.918213 1.137120,256.918213 
	C1.137120,171.666809 1.137120,86.333435 1.137120,1.000000 
	C38.095398,1.000000 75.079041,1.000000 112.375168,1.400837 
	C107.206558,2.534718 101.664780,2.967561 96.256508,4.060860 
	C83.457993,6.648123 71.072128,10.678847 59.765633,17.253973 
	C57.427082,18.613924 56.479195,22.450302 55.024551,25.215893 
	C54.017548,27.130426 53.661007,29.544598 52.281528,31.075768 
	C48.359310,35.429264 43.464951,39.009724 40.051193,43.694523 
	C34.872952,50.800762 29.647615,58.166691 26.227575,66.183884 
	C22.172272,75.690262 19.255270,85.856735 17.268232,96.015526 
	C15.686237,104.103500 16.241859,112.609589 15.809562,121.754196 
	C4.240785,125.930641 1.279747,135.748260 1.909103,147.881592 
	C2.374529,156.854523 1.896117,165.872604 2.034885,174.867523 
	C2.138814,181.604156 3.639735,188.184006 9.685848,191.950043 
	C15.977223,195.868866 22.886814,198.795181 30.000021,202.395340 
	C30.000021,186.357513 30.468813,171.344986 29.865383,156.375671 
	C29.286442,142.013779 30.977131,127.726532 28.531811,113.195915 
	C26.864506,103.288422 28.866058,92.155190 31.638323,82.244476 
	C36.377457,65.302284 45.983959,50.837143 59.622551,39.151775 
	C63.826286,44.183750 69.386154,45.844009 75.180008,42.850319 
	C92.028557,34.144680 109.708847,30.327951 128.700378,30.843416 
	C144.229584,31.264910 158.939941,34.378735 172.632858,41.415295 
	C179.468521,44.928036 185.201431,44.898373 191.436752,39.397934 
	C194.781723,42.925831 198.118256,46.256676 201.244629,49.774319 
	C215.835938,66.191719 222.535797,85.674225 222.887009,107.383888 
	C222.975311,112.841751 221.138794,118.317612 221.091049,123.793083 
	C220.880356,147.950058 220.659500,172.116333 221.116501,196.266495 
	C221.435333,213.114914 208.794113,225.971130 196.331833,232.077942 
	C184.437729,237.906326 171.837830,236.997559 159.281509,236.913452 
	C158.348511,236.907196 157.240997,235.830872 156.527100,234.987488 
	C153.602356,231.532288 150.270599,229.575516 145.429535,229.903366 
	C139.458878,230.307709 133.439560,229.955383 127.442070,230.013046 
	C121.848824,230.066833 116.140060,236.033905 116.002602,241.860153 
	C115.863564,247.753128 121.780388,253.948227 127.662056,253.990479 
	C133.659790,254.033554 139.676758,253.709396 145.650131,254.093323 
	C150.302643,254.392349 153.402725,252.423447 156.361984,249.241577 
	C157.451721,248.069901 159.390213,247.208466 161.007050,247.088562 
	C168.235306,246.552582 175.530304,246.723541 182.721802,245.924545 
	C199.139755,244.100418 212.331131,236.216171 222.267456,223.131256 
	C226.851028,217.095276 230.318268,210.228287 230.821075,202.574478 
	C231.075500,198.701431 232.315048,196.529602 235.631027,195.013428 
	C244.529343,190.944794 248.706497,184.355209 248.143280,174.191376 
	C247.517395,162.896423 247.645935,151.524261 248.149368,140.217041 
	C248.401093,134.563049 246.062622,130.315796 242.756317,126.626251 
	C240.621460,124.243904 237.109421,123.095695 234.000000,121.268341 
	C234.000000,116.157928 234.370300,110.799492 233.909134,105.513611 
	C233.290131,98.418701 232.478897,91.277557 230.904877,84.348274 
	C229.567444,78.460541 227.185181,72.785736 224.995865,67.120827 
	C219.914780,53.973526 211.668320,43.053196 201.257614,33.628338 
	C199.164749,31.733669 196.463272,29.212749 196.259903,26.794125 
	C195.807236,21.410334 192.790329,18.292274 188.766357,16.059372 
	C177.879410,10.018211 166.120728,6.289790 153.899323,3.997227 
	C148.598663,3.002895 143.299728,1.999356 138.000000,1.000000 
M61.999428,145.500000 
	C61.672482,135.949921 61.692455,126.371506 60.915272,116.858215 
	C60.220074,108.348473 52.991199,106.439545 46.376972,106.982491 
	C40.119293,107.496170 35.717865,113.160782 35.816990,119.211700 
	C36.244789,145.325790 36.283485,171.455368 35.872219,197.569977 
	C35.685684,209.414307 45.576920,211.658035 54.083046,209.375549 
	C59.023857,208.049774 61.892223,203.727966 61.957813,195.913437 
	C62.096054,179.443329 61.999584,162.971268 61.999428,145.500000 
M190.000000,143.500000 
	C190.000000,162.294952 189.956665,181.090149 190.062759,199.884506 
	C190.074188,201.906708 190.501572,204.198639 191.525696,205.886230 
	C193.637680,209.366455 202.553894,211.362289 207.465881,209.868942 
	C211.417053,208.667679 214.997574,203.258240 214.998245,198.452759 
	C215.001907,171.840439 215.108505,145.227036 214.844467,118.617340 
	C214.815750,115.723503 213.316711,112.203972 211.316147,110.100037 
	C206.814484,105.365753 200.874603,106.315567 195.448029,108.327759 
	C191.265076,109.878830 189.821655,113.525291 189.939896,118.051498 
	C190.152664,126.195961 190.000000,134.349976 190.000000,143.500000 
z"/>
<path fill="#000000" opacity="1.000000" stroke="none" 
	d="
M137.531357,1.000000 
	C143.299728,1.999356 148.598663,3.002895 153.899323,3.997227 
	C166.120728,6.289790 177.879410,10.018211 188.766357,16.059372 
	C192.790329,18.292274 195.807236,21.410334 196.259903,26.794125 
	C196.463272,29.212749 199.164749,31.733669 201.257614,33.628338 
	C211.668320,43.053196 219.914780,53.973526 224.995865,67.120827 
	C227.185181,72.785736 229.567444,78.460541 230.904877,84.348274 
	C232.478897,91.277557 233.290131,98.418701 233.909134,105.513611 
	C234.370300,110.799492 234.000000,116.157928 234.000000,121.268341 
	C237.109421,123.095695 240.621460,124.243904 242.756317,126.626251 
	C246.062622,130.315796 248.401093,134.563049 248.149368,140.217041 
	C247.645935,151.524261 247.517395,162.896423 248.143280,174.191376 
	C248.706497,184.355209 244.529343,190.944794 235.631027,195.013428 
	C232.315048,196.529602 231.075500,198.701431 230.821075,202.574478 
	C230.318268,210.228287 226.851028,217.095276 222.267456,223.131256 
	C212.331131,236.216171 199.139755,244.100418 182.721802,245.924545 
	C175.530304,246.723541 168.235306,246.552582 161.007050,247.088562 
	C159.390213,247.208466 157.451721,248.069901 156.361984,249.241577 
	C153.402725,252.423447 150.302643,254.392349 145.650131,254.093323 
	C139.676758,253.709396 133.659790,254.033554 127.662056,253.990479 
	C121.780388,253.948227 115.863564,247.753128 116.002602,241.860153 
	C116.140060,236.033905 121.848824,230.066833 127.442070,230.013046 
	C133.439560,229.955383 139.458878,230.307709 145.429535,229.903366 
	C150.270599,229.575516 153.602356,231.532288 156.527100,234.987488 
	C157.240997,235.830872 158.348511,236.907196 159.281509,236.913452 
	C171.837830,236.997559 184.437729,237.906326 196.331833,232.077942 
	C208.794113,225.971130 221.435333,213.114914 221.116501,196.266495 
	C220.659500,172.116333 220.880356,147.950058 221.091049,123.793083 
	C221.138794,118.317612 222.975311,112.841751 222.887009,107.383888 
	C222.535797,85.674225 215.835938,66.191719 201.244629,49.774319 
	C198.118256,46.256676 194.781723,42.925831 191.436752,39.397934 
	C185.201431,44.898373 179.468521,44.928036 172.632858,41.415295 
	C158.939941,34.378735 144.229584,31.264910 128.700378,30.843416 
	C109.708847,30.327951 92.028557,34.144680 75.180008,42.850319 
	C69.386154,45.844009 63.826286,44.183750 59.622551,39.151775 
	C45.983959,50.837143 36.377457,65.302284 31.638323,82.244476 
	C28.866058,92.155190 26.864506,103.288422 28.531811,113.195915 
	C30.977131,127.726532 29.286442,142.013779 29.865383,156.375671 
	C30.468813,171.344986 30.000021,186.357513 30.000021,202.395340 
	C22.886814,198.795181 15.977223,195.868866 9.685848,191.950043 
	C3.639735,188.184006 2.138814,181.604156 2.034885,174.867523 
	C1.896117,165.872604 2.374529,156.854523 1.909103,147.881592 
	C1.279747,135.748260 4.240785,125.930641 15.809562,121.754196 
	C16.241859,112.609589 15.686237,104.103500 17.268232,96.015526 
	C19.255270,85.856735 22.172272,75.690262 26.227575,66.183884 
	C29.647615,58.166691 34.872952,50.800762 40.051193,43.694523 
	C43.464951,39.009724 48.359310,35.429264 52.281528,31.075768 
	C53.661007,29.544598 54.017548,27.130426 55.024551,25.215893 
	C56.479195,22.450302 57.427082,18.613924 59.765633,17.253973 
	C71.072128,10.678847 83.457993,6.648123 96.256508,4.060860 
	C101.664780,2.967561 107.206558,2.534718 112.843826,1.400837 
	C121.020905,1.000000 129.041809,1.000000 137.531357,1.000000 
z"/>
<path fill="#000000" opacity="1.000000" stroke="none" 
	d="
M61.999428,146.000000 
	C61.999584,162.971268 62.096054,179.443329 61.957813,195.913437 
	C61.892223,203.727966 59.023857,208.049774 54.083046,209.375549 
	C45.576920,211.658035 35.685684,209.414307 35.872219,197.569977 
	C36.283485,171.455368 36.244789,145.325790 35.816990,119.211700 
	C35.717865,113.160782 40.119293,107.496170 46.376972,106.982491 
	C52.991199,106.439545 60.220074,108.348473 60.915272,116.858215 
	C61.692455,126.371506 61.672482,135.949921 61.999428,146.000000 
z"/>
<path fill="#000000" opacity="1.000000" stroke="none" 
	d="
M190.000000,143.000000 
	C190.000000,134.349976 190.152664,126.195961 189.939896,118.051498 
	C189.821655,113.525291 191.265076,109.878830 195.448029,108.327759 
	C200.874603,106.315567 206.814484,105.365753 211.316147,110.100037 
	C213.316711,112.203972 214.815750,115.723503 214.844467,118.617340 
	C215.108505,145.227036 215.001907,171.840439 214.998245,198.452759 
	C214.997574,203.258240 211.417053,208.667679 207.465881,209.868942 
	C202.553894,211.362289 193.637680,209.366455 191.525696,205.886230 
	C190.501572,204.198639 190.074188,201.906708 190.062759,199.884506 
	C189.956665,181.090149 190.000000,162.294952 190.000000,143.000000 
z"/>
</svg>