<?xml version="1.0" encoding="UTF-8"?>
<!DOCTYPE svg PUBLIC "-//W3C//DTD SVG 1.1//EN" "http://www.w3.org/Graphics/SVG/1.1/DTD/svg11.dtd">
<svg xmlns="http://www.w3.org/2000/svg" version="1.1" width="526px" height="490px" style="shape-rendering:geometricPrecision; text-rendering:geometricPrecision; image-rendering:optimizeQuality; fill-rule:evenodd; clip-rule:evenodd" xmlns:xlink="http://www.w3.org/1999/xlink">
<g><path style="opacity:1" fill="#000000" d="M 88.5,-0.5 C 92.1667,-0.5 95.8333,-0.5 99.5,-0.5C 105.48,1.98203 109.647,6.31536 112,12.5C 112.333,33.1667 112.667,53.8333 113,74.5C 114.5,85.3333 120.667,91.5 131.5,93C 217.877,93.0105 304.21,93.6771 390.5,95C 412.84,102.338 426.34,117.504 431,140.5C 431.5,156.163 431.667,171.83 431.5,187.5C 418.833,187.5 406.167,187.5 393.5,187.5C 393.932,172.775 393.432,158.108 392,143.5C 389.341,137.508 384.841,133.675 378.5,132C 293.5,131.667 208.5,131.333 123.5,131C 96.3333,125.833 80.1667,109.667 75,82.5C 74.3333,59.5 74.3333,36.5 75,13.5C 77.0166,6.31845 81.5166,1.65179 88.5,-0.5 Z"/></g>
<g><path style="opacity:1" fill="#000000" d="M 525.5,238.5 C 525.5,316.833 525.5,395.167 525.5,473.5C 523.348,480.483 518.682,484.983 511.5,487C 345.5,487.667 179.5,487.667 13.5,487C 6.31845,484.983 1.65179,480.483 -0.5,473.5C -0.5,395.167 -0.5,316.833 -0.5,238.5C 1.55503,231.942 5.88836,227.442 12.5,225C 179.167,224.333 345.833,224.333 512.5,225C 519.112,227.442 523.445,231.942 525.5,238.5 Z M 91.5,262.5 C 113.22,262.044 134.887,262.544 156.5,264C 166.41,268.986 169.91,276.819 167,287.5C 164.227,293.94 159.394,297.774 152.5,299C 130.783,299.955 109.116,299.622 87.5,298C 75.7969,291.558 72.9636,282.392 79,270.5C 82.3779,266.406 86.5446,263.739 91.5,262.5 Z M 222.5,262.5 C 249.169,262.333 275.835,262.5 302.5,263C 317.188,267.876 321.354,277.376 315,291.5C 311.835,295.666 307.668,298.166 302.5,299C 275.833,299.667 249.167,299.667 222.5,299C 207.812,294.124 203.646,284.624 210,270.5C 213.378,266.406 217.545,263.739 222.5,262.5 Z M 372.5,262.5 C 394.22,262.044 415.887,262.544 437.5,264C 449.203,270.442 452.036,279.608 446,291.5C 442.835,295.666 438.668,298.166 433.5,299C 411.783,299.955 390.116,299.622 368.5,298C 356.927,291.54 354.093,282.374 360,270.5C 363.378,266.406 367.545,263.739 372.5,262.5 Z M 91.5,337.5 C 113.22,337.044 134.887,337.544 156.5,339C 166.41,343.986 169.91,351.819 167,362.5C 164.227,368.94 159.394,372.774 152.5,374C 130.783,374.955 109.116,374.622 87.5,373C 75.7969,366.558 72.9636,357.392 79,345.5C 82.3779,341.406 86.5446,338.739 91.5,337.5 Z M 222.5,337.5 C 249.169,337.333 275.835,337.5 302.5,338C 317.188,342.876 321.354,352.376 315,366.5C 311.835,370.666 307.668,373.166 302.5,374C 275.833,374.667 249.167,374.667 222.5,374C 207.812,369.124 203.646,359.624 210,345.5C 213.378,341.406 217.545,338.739 222.5,337.5 Z M 372.5,337.5 C 394.22,337.044 415.887,337.544 437.5,339C 449.203,345.442 452.036,354.608 446,366.5C 442.835,370.666 438.668,373.166 433.5,374C 411.783,374.955 390.116,374.622 368.5,373C 356.927,366.54 354.093,357.374 360,345.5C 363.378,341.406 367.545,338.739 372.5,337.5 Z M 91.5,412.5 C 99.5069,412.334 107.507,412.5 115.5,413C 129.296,417.761 133.463,426.927 128,440.5C 124.908,444.928 120.741,447.761 115.5,449C 107.5,449.667 99.5,449.667 91.5,449C 80.1249,446.294 74.9583,439.127 76,427.5C 78.4548,419.543 83.6215,414.543 91.5,412.5 Z M 184.5,412.5 C 236.501,412.333 288.501,412.5 340.5,413C 354.296,417.761 358.463,426.927 353,440.5C 349.908,444.928 345.741,447.761 340.5,449C 288.5,449.667 236.5,449.667 184.5,449C 170.704,444.239 166.537,435.073 172,421.5C 175.261,417.131 179.427,414.131 184.5,412.5 Z M 409.5,412.5 C 417.507,412.334 425.507,412.5 433.5,413C 444.875,415.706 450.042,422.873 449,434.5C 446.723,442.444 441.556,447.278 433.5,449C 425.5,449.667 417.5,449.667 409.5,449C 398.175,445.676 393.342,438.176 395,426.5C 397.419,419.247 402.252,414.58 409.5,412.5 Z"/></g>
</svg>
