<svg version="1.1" id="Layer_1" xmlns="http://www.w3.org/2000/svg" xmlns:xlink="http://www.w3.org/1999/xlink" x="0px" y="0px"
	 width="100%" viewBox="0 0 154 124" enable-background="new 0 0 154 124" xml:space="preserve">
<path fill="#FFFFFF" opacity="0.000000" stroke="none" 
	d="
M155.000000,41.000000 
	C155.000000,69.308281 155.000000,97.116570 155.000000,124.962425 
	C103.737938,124.962425 52.475842,124.962425 1.106871,124.962425 
	C1.106871,83.775360 1.106871,42.550350 1.106871,1.162670 
	C52.332905,1.162670 103.666420,1.162670 155.000000,1.162670 
	C155.000000,14.190411 155.000000,27.345205 155.000000,41.000000 
M150.040985,111.423615 
	C146.733261,104.128189 143.200745,96.923439 140.207092,89.501343 
	C138.566071,85.432846 136.381790,83.865425 131.831833,83.890602 
	C96.208633,84.087769 60.582333,84.164421 24.961021,83.838043 
	C19.012266,83.783539 16.413776,86.429192 14.357908,91.119446 
	C11.333922,98.018364 8.375453,104.961731 4.973416,111.675537 
	C-0.104037,121.695709 1.127796,123.444260 12.332708,123.089928 
	C19.099604,122.875923 25.892622,123.618729 32.677437,123.797104 
	C37.646809,123.927750 42.622978,123.908699 47.594250,123.833145 
	C55.501888,123.712959 63.408203,123.499664 71.314568,123.305000 
	C73.789085,123.244072 76.265953,122.975662 78.734810,123.046036 
	C85.628204,123.242508 92.517540,123.765076 99.409294,123.779831 
	C105.313560,123.792465 111.217926,123.078522 117.124069,123.048904 
	C126.143120,123.003662 135.163635,123.370941 144.183716,123.380531 
	C155.431122,123.392502 154.584381,120.758797 150.040985,111.423615 
M122.493698,82.000198 
	C125.991402,82.000191 129.513657,81.740067 132.980484,82.067276 
	C137.137268,82.459602 138.021332,80.312363 138.016556,76.849419 
	C137.984848,53.864456 137.991516,30.879423 138.008209,7.894428 
	C138.011124,3.878823 136.065277,1.990161 132.067688,1.991890 
	C96.091156,2.007454 60.114620,2.006430 24.138090,1.994084 
	C19.700972,1.992561 17.858116,3.789696 17.903482,8.559303 
	C18.118919,31.209145 18.116919,53.863293 17.899693,76.513100 
	C17.856911,80.973816 19.212671,82.115204 23.559690,82.092606 
	C56.204182,81.922966 88.849953,82.000198 122.493698,82.000198 
z"/>
<path fill="#000000" opacity="1.000000" stroke="none" 
	d="
M150.293427,111.729660 
	C154.584381,120.758797 155.431122,123.392502 144.183716,123.380531 
	C135.163635,123.370941 126.143120,123.003662 117.124069,123.048904 
	C111.217926,123.078522 105.313560,123.792465 99.409294,123.779831 
	C92.517540,123.765076 85.628204,123.242508 78.734810,123.046036 
	C76.265953,122.975662 73.789085,123.244072 71.314568,123.305000 
	C63.408203,123.499664 55.501888,123.712959 47.594250,123.833145 
	C42.622978,123.908699 37.646809,123.927750 32.677437,123.797104 
	C25.892622,123.618729 19.099604,122.875923 12.332708,123.089928 
	C1.127796,123.444260 -0.104037,121.695709 4.973416,111.675537 
	C8.375453,104.961731 11.333922,98.018364 14.357908,91.119446 
	C16.413776,86.429192 19.012266,83.783539 24.961021,83.838043 
	C60.582333,84.164421 96.208633,84.087769 131.831833,83.890602 
	C136.381790,83.865425 138.566071,85.432846 140.207092,89.501343 
	C143.200745,96.923439 146.733261,104.128189 150.293427,111.729660 
M115.499969,107.999802 
	C123.267479,107.999802 131.034988,107.999802 139.704865,107.999802 
	C137.279099,102.972649 134.779495,98.815514 133.294174,94.323029 
	C132.430298,91.710182 131.451630,90.960121 128.927124,90.963974 
	C94.602936,91.016235 60.278618,90.986473 25.954504,91.060143 
	C24.914984,91.062370 23.316696,91.694824 22.930353,92.493622 
	C20.509951,97.497978 18.359980,102.633141 15.999659,107.999802 
	C49.187481,107.999802 81.843735,107.999802 115.499969,107.999802 
M93.983330,112.121750 
	C92.723427,111.747337 91.467606,111.065712 90.202942,111.048889 
	C82.582443,110.947540 74.959915,110.997284 67.338066,110.998886 
	C60.904255,111.000237 60.775627,111.124603 60.342907,117.422035 
	C72.101624,117.422035 83.872505,117.422035 96.061447,117.422035 
	C95.181702,115.509621 94.598320,114.241440 93.983330,112.121750 
z"/>
<path fill="#000000" opacity="1.000000" stroke="none" 
	d="
M121.994507,82.000198 
	C88.849953,82.000198 56.204182,81.922966 23.559690,82.092606 
	C19.212671,82.115204 17.856911,80.973816 17.899693,76.513100 
	C18.116919,53.863293 18.118919,31.209145 17.903482,8.559303 
	C17.858116,3.789696 19.700972,1.992561 24.138090,1.994084 
	C60.114620,2.006430 96.091156,2.007454 132.067688,1.991890 
	C136.065277,1.990161 138.011124,3.878823 138.008209,7.894428 
	C137.991516,30.879423 137.984848,53.864456 138.016556,76.849419 
	C138.021332,80.312363 137.137268,82.459602 132.980484,82.067276 
	C129.513657,81.740067 125.991402,82.000191 121.994507,82.000198 
M58.500000,11.000211 
	C47.404125,11.000211 36.308250,11.000211 25.284056,11.000211 
	C25.284056,32.641136 25.284056,53.709496 25.284056,74.999138 
	C59.535957,74.999138 93.503960,74.971664 127.471764,75.040367 
	C130.982391,75.047462 131.027908,73.027214 131.021179,70.477737 
	C130.978867,54.482124 130.999802,38.486343 130.999817,22.490620 
	C130.999817,18.722464 130.999817,14.954309 130.999817,11.000211 
	C106.778687,11.000211 83.139343,11.000211 58.500000,11.000211 
z"/>
<path fill="#FFFFFF" opacity="0.000000" stroke="none" 
	d="
M114.999985,107.999802 
	C81.843735,107.999802 49.187481,107.999802 15.999659,107.999802 
	C18.359980,102.633141 20.509951,97.497978 22.930353,92.493622 
	C23.316696,91.694824 24.914984,91.062370 25.954504,91.060143 
	C60.278618,90.986473 94.602936,91.016235 128.927124,90.963974 
	C131.451630,90.960121 132.430298,91.710182 133.294174,94.323029 
	C134.779495,98.815514 137.279099,102.972649 139.704865,107.999802 
	C131.034988,107.999802 123.267479,107.999802 114.999985,107.999802 
z"/>
<path fill="#FFFFFF" opacity="0.000000" stroke="none" 
	d="
M93.999130,112.547501 
	C94.598320,114.241440 95.181702,115.509621 96.061447,117.422035 
	C83.872505,117.422035 72.101624,117.422035 60.342907,117.422035 
	C60.775627,111.124603 60.904255,111.000237 67.338066,110.998886 
	C74.959915,110.997284 82.582443,110.947540 90.202942,111.048889 
	C91.467606,111.065712 92.723427,111.747337 93.999130,112.547501 
z"/>
<path fill="#FFFFFF" opacity="0.000000" stroke="none" 
	d="
M59.000000,11.000211 
	C83.139343,11.000211 106.778687,11.000211 130.999817,11.000211 
	C130.999817,14.954309 130.999817,18.722464 130.999817,22.490620 
	C130.999802,38.486343 130.978867,54.482124 131.021179,70.477737 
	C131.027908,73.027214 130.982391,75.047462 127.471764,75.040367 
	C93.503960,74.971664 59.535957,74.999138 25.284056,74.999138 
	C25.284056,53.709496 25.284056,32.641136 25.284056,11.000211 
	C36.308250,11.000211 47.404125,11.000211 59.000000,11.000211 
z"/>
</svg>