<svg version="1.1" id="Layer_1" xmlns="http://www.w3.org/2000/svg" xmlns:xlink="http://www.w3.org/1999/xlink" x="0px" y="0px"
	 width="100%" viewBox="0 0 176 256" enable-background="new 0 0 176 256" xml:space="preserve">
<path fill="#000000" opacity="1.000000" stroke="none" 
	d="
M177.000000,36.535347 
	C175.112747,37.314438 173.703751,38.375973 172.355011,39.692089 
	C157.067978,54.609459 140.881409,68.589737 126.117264,84.050499 
	C124.224869,86.032181 122.475647,87.077866 120.453133,84.382561 
	C111.241150,72.106163 106.826050,58.811726 111.568237,43.465618 
	C113.534859,37.101452 119.398224,34.198666 123.416084,29.672886 
	C126.132782,26.612761 129.915192,24.446354 132.401108,21.243816 
	C139.130905,12.573971 148.279175,14.194485 157.053696,15.199083 
	C163.994278,15.993711 170.298340,19.224646 176.660461,22.890732 
	C177.000000,27.356899 177.000000,31.713799 177.000000,36.535347 
z"/>
<path fill="#000000" opacity="1.000000" stroke="none" 
	d="
M31.468658,257.000000 
	C28.938896,243.503510 35.242451,236.807755 43.464291,235.806305 
	C49.543865,235.065796 55.741455,235.087799 61.884850,235.116486 
	C80.014313,235.201126 98.142738,235.487061 116.272041,235.636490 
	C127.297989,235.727356 132.390671,240.728485 132.338318,251.601776 
	C132.331116,253.097031 132.234009,254.591858 132.089264,256.543457 
	C129.299988,257.000000 126.599968,257.000000 123.070816,256.851837 
	C107.624420,256.589233 93.007217,256.411682 78.389885,256.400604 
	C74.262550,256.397491 70.079765,255.814255 66.000000,257.000000 
	C54.645771,257.000000 43.291542,257.000000 31.468658,257.000000 
z"/>
<path fill="#000000" opacity="1.000000" stroke="none" 
	d="
M120.532394,1.000000 
	C126.034477,5.069337 129.603409,10.458400 133.819809,14.911972 
	C127.160034,21.816614 120.677361,28.577578 114.139290,35.284531 
	C112.724617,36.735748 111.477882,35.755589 110.251541,34.742783 
	C105.978561,31.213833 102.975761,26.584286 99.482086,22.382256 
	C99.086533,21.906511 98.655251,21.076254 98.807777,20.587337 
	C100.753494,14.350149 99.077431,7.186293 103.816948,1.312689 
	C109.354927,1.000000 114.709862,1.000000 120.532394,1.000000 
z"/>
<path fill="#000000" opacity="1.000000" stroke="none" 
	d="
M29.024160,109.030571 
	C23.843224,103.545898 23.918060,103.624847 29.204390,98.613617 
	C46.219170,82.484276 63.175304,66.293068 80.150627,50.122112 
	C87.337845,43.275455 94.516525,36.419830 101.746033,29.523500 
	C104.632492,30.697298 105.884239,33.225002 107.500366,35.177212 
	C109.247849,37.288094 107.518394,39.305737 105.936310,40.790855 
	C86.916351,58.644966 67.805984,76.401627 49.428524,94.929153 
	C44.771740,99.623962 39.729794,103.935150 34.912273,108.472977 
	C33.294106,109.997208 31.686119,110.843391 29.318031,109.164200 
	C29.001917,109.004112 29.024160,109.030571 29.024160,109.030571 
z"/>
<path fill="#000000" opacity="1.000000" stroke="none" 
	d="
M20.994114,140.810486 
	C18.532169,135.040100 24.076422,136.396896 25.994028,134.758865 
	C28.320232,132.771835 29.840677,134.630142 30.956587,136.762878 
	C38.023895,150.270096 45.089703,163.778198 52.197468,177.264130 
	C57.134090,186.630630 62.137085,195.962143 67.263107,205.596237 
	C64.103035,207.123184 61.293339,208.480820 57.406761,210.358810 
	C45.347992,187.324432 33.259789,164.233810 20.994114,140.810486 
z"/>
<path fill="#000000" opacity="1.000000" stroke="none" 
	d="
M28.989952,108.991882 
	C29.595003,111.209229 30.221060,113.436333 30.827299,115.668831 
	C32.503433,121.841263 30.065916,128.658005 25.032927,131.897369 
	C19.515572,135.448486 13.102757,135.233383 8.336421,131.337341 
	C2.753609,126.773911 1.167670,120.586861 3.883501,113.965721 
	C7.022687,106.312462 15.410542,103.123405 23.313511,106.586464 
	C24.982935,107.318001 26.638481,108.081207 28.662291,108.930191 
	C29.024160,109.030571 29.001917,109.004112 28.989952,108.991882 
z"/>
<path fill="#000000" opacity="1.000000" stroke="none" 
	d="
M62.996315,210.617630 
	C72.497871,204.831177 85.952248,212.983459 84.366188,224.934677 
	C84.170586,226.408569 84.216339,227.938599 84.343277,229.426132 
	C84.600128,232.436020 83.106026,233.735413 80.291451,233.781982 
	C72.319878,233.913864 64.336655,234.343491 56.012688,233.115829 
	C55.314442,224.702301 54.078938,216.365829 62.996315,210.617630 
z"/>
<path fill="#000000" opacity="1.000000" stroke="none" 
	d="
M147.458130,66.462357 
	C154.711304,61.442760 159.760239,54.522068 166.116425,49.102543 
	C170.797836,53.324127 170.613998,63.038372 166.005264,69.041595 
	C161.310333,75.157082 151.377899,76.244919 144.044952,71.411087 
	C143.784348,68.980255 146.139297,68.277344 147.458130,66.462357 
z"/>
</svg>