<?xml version="1.0" encoding="UTF-8"?>
<svg xmlns="http://www.w3.org/2000/svg" version="1.1" viewBox="0 0 256 253">
  <defs>
    <style>
      .cls-1 {
        fill: #fff;
        fill-opacity: 0;
      }
    </style>
  </defs>
  <!-- Generator: Adobe Illustrator 28.6.0, SVG Export Plug-In . SVG Version: 1.2.0 Build 709)  -->
  <g>
    <g id="Layer_1">
      <path class="cls-1" d="M203.7,120.7v132.7H52.3c0-43.6,0-87.2.4-131.2,6.4,1.1,7,.8,7-4.5,0-4.1,0-8.2,0-12.3,0-5.9-1.3-6.8-7.4-4.6V2.8c21.5,0,43.1,0,65,.4-15.2,2.8-24.9,11.8-29.8,25.1-2.1,5.6-2.1,12.1-2.2,18.2-.3,11.8,0,23.6,0,35.3h84.7c0-14.6-.3-29,0-43.3.4-13.2-6-22.8-17.4-29.7-4.6-2.8-10.3-4.1-15.5-6.1h66.7c0,32.7,0,65.5-.4,98.6-2.1-.2-3.7-.8-5.4-1.3-.5,1.4-1.5,2.8-1.6,4.3-.2,4.7-.2,9.5,0,14.2,0,1.4,1.2,4,1.7,3.9,1.9,0,3.7-1.1,5.6-1.7M120.1,221.3v14.4c-8.5,0-16.4.2-24.3,0-9.4-.3-21.1,5.8-23.1,16.7h110.2c-.4-1.8-.4-3.6-1.2-4.9-4.3-6.7-10.2-11.4-18.9-11.7-8.9-.2-17.8,0-26.8,0,0-8.3,0-15.9,0-23.5,0-8.6,0-8.8,8.7-10.8,14.3-3.3,25.9-10.3,35.1-21,7.5-8.7,12.5-18.7,13.1-29.6.9-16.3.3-32.7.1-49,0-1.6-1.4-3.8-2.8-4.7-4.9-3.1-9.3.2-10.1,8-3.4-.3-6.8-.5-10.1-1-1.4-.2-2.6-2.1-4-2.1-25.2-.1-50.4-.1-75.7,0-1.5,0-3.3,1-4.5,1.9-2.8,2.1-9.6,1.2-10-1.7-.6-3.9-2.7-6.7-7-6.1-4,.6-6,3.4-5.9,7.7.2,12.1.4,24.1,0,36.2-.6,15.6,3.6,29.4,14.5,41.6,10.2,11.3,22.5,18.6,38.3,20.4,3,.4,4.7,1.2,4.5,4.5-.3,4.6,0,9.2,0,14.9Z"/>
      <path d="M136.5-.5c5.7,2.1,11.4,3.5,16,6.5,11.3,7.3,17.7,17.6,17.4,31.7-.4,15.3,0,30.6,0,46.2h-84.7c0-12.5-.2-25.1,0-37.7.2-6.5.2-13.4,2.2-19.4C92.4,12.5,102.1,2.9,117.8,0c6.2-.4,12.2-.4,18.7-.4Z"/>
      <path d="M52.3,91c6.1-2.8,7.4-2,7.4,4.4,0,4.4,0,8.8,0,13.2,0,5.6-.6,6-7,4.3-.4-7.2-.4-14.3-.4-21.9Z"/>
      <path d="M203.7,111.2c-1.9,1.2-3.7,2.2-5.6,2.3-.5,0-1.7-2.7-1.7-4.2-.2-5.1-.2-10.1,0-15.2,0-1.5,1-3,1.6-4.6,1.7.6,3.3,1.2,5.4,1.9.4,6.5.4,12.8.4,19.7Z"/>
      <path d="M120.1,218.6c0-5.5-.2-10.4,0-15.3.2-3.5-1.5-4.4-4.5-4.8-15.8-2-28.1-9.7-38.3-21.8-10.9-13-15.1-27.7-14.5-44.4.4-12.9.2-25.7,0-38.6,0-4.6,1.9-7.6,5.9-8.2,4.2-.6,6.3,2.3,7,6.5.5,3,7.2,4,10,1.8,1.3-1,3-2,4.5-2.1,25.2-.1,50.4-.1,75.7,0,1.3,0,2.6,2,4,2.2,3.3.6,6.7.8,10.1,1.1.8-8.3,5.3-11.9,10.1-8.6,1.4,1,2.8,3.3,2.8,5,.2,17.5.8,35-.1,52.4-.6,11.7-5.6,22.3-13.1,31.6-9.2,11.5-20.8,18.9-35.1,22.5-8.7,2.1-8.7,2.4-8.7,11.5,0,8.1,0,16.2,0,25.1,9,0,17.9-.2,26.8,0,8.7.2,14.6,5.3,18.9,12.5.8,1.4.8,3.2,1.2,5.2h-110.2c2-11.6,13.7-18.1,23.1-17.8,7.9.3,15.8,0,24.3,0,0-5.3,0-10.3,0-15.9M178.6,109.6h-8.8c0,10.4-.3,20.1,0,29.8.4,9.5-4,17.1-9.8,23.6-11.4,12.7-26.1,15.2-42.5,12.4-17.4-3-32.1-19.6-31.5-37.7.2-6.3,0-12.7,0-19,0-9.8,1.5-9-9-9-.5,0-.9.3-2,.7.5,10.6.8,21.2,1.6,31.8,1.3,17.1,10.6,29.4,24.8,38.1,9.9,6.1,21,5.8,32.2,5.6,11.6-.2,21.2-4.9,29.7-12.2,10.4-9,15.6-20.9,16.8-34.2.9-9.9-.3-19.9-1.5-29.9Z"/>
      <path class="cls-1" d="M179.1,109.6c.8,10,1.9,20,1,29.9-1.2,13.3-6.4,25.2-16.8,34.2-8.5,7.3-18.1,12-29.7,12.2-11.1.2-22.3.4-32.2-5.6-14.2-8.7-23.5-20.9-24.8-38.1-.8-10.6-1.1-21.3-1.6-31.8,1.1-.4,1.6-.7,2-.7,10.6,0,9-.8,9,9,0,6.3.2,12.7,0,19-.6,18.1,14,34.7,31.5,37.7,16.4,2.8,31.1.4,42.5-12.4,5.8-6.5,10.2-14,9.8-23.6-.4-9.7,0-19.4,0-29.8,3,0,5.9,0,9.3,0Z"/>
    </g>
  </g>
</svg>