<?xml version="1.0" encoding="UTF-8"?>
<!DOCTYPE svg PUBLIC "-//W3C//DTD SVG 1.1//EN" "http://www.w3.org/Graphics/SVG/1.1/DTD/svg11.dtd">
<svg xmlns="http://www.w3.org/2000/svg" version="1.1" width="541px" height="368px" style="shape-rendering:geometricPrecision; text-rendering:geometricPrecision; image-rendering:optimizeQuality; fill-rule:evenodd; clip-rule:evenodd" xmlns:xlink="http://www.w3.org/1999/xlink">
<g><path style="opacity:1" fill="#000000" d="M 0.5,-0.5 C 180.5,-0.5 360.5,-0.5 540.5,-0.5C 540.5,99.5 540.5,199.5 540.5,299.5C 454.5,299.5 368.5,299.5 282.5,299.5C 282.5,313.5 282.5,327.5 282.5,341.5C 308.5,341.5 334.5,341.5 360.5,341.5C 360.5,349.5 360.5,357.5 360.5,365.5C 300.5,365.5 240.5,365.5 180.5,365.5C 180.5,357.5 180.5,349.5 180.5,341.5C 206.5,341.5 232.5,341.5 258.5,341.5C 258.5,327.5 258.5,313.5 258.5,299.5C 172.5,299.5 86.5,299.5 0.5,299.5C 0.5,199.5 0.5,99.5 0.5,-0.5 Z"/></g>
</svg>
