<svg version="1.1" id="Layer_1" xmlns="http://www.w3.org/2000/svg" xmlns:xlink="http://www.w3.org/1999/xlink" x="0px" y="0px"
	 width="100%" viewBox="0 0 146 256" enable-background="new 0 0 146 256" xml:space="preserve">
<path fill="#FFFFFF" opacity="0.000000" stroke="none" 
	d="
M1.000000,91.000000 
	C1.000000,61.016594 1.000000,31.033192 1.000000,1.024894 
	C49.623138,1.024894 98.246292,1.024894 146.934723,1.024894 
	C146.934723,86.242569 146.934723,171.485214 146.934723,256.863922 
	C98.451317,256.863922 49.902126,256.863922 1.000000,256.863922 
	C1.000000,206.312988 1.000000,155.625153 1.405980,104.631798 
	C1.874977,107.307686 1.447502,110.406181 2.124243,113.241081 
	C2.984621,116.845253 1.301961,122.262047 8.339761,122.972519 
	C6.799464,111.819412 5.292727,100.909309 3.746335,89.712074 
	C2.422032,90.333122 1.711017,90.666565 1.000000,91.000000 
M122.991341,235.513214 
	C138.884537,220.478912 146.199570,202.027267 146.074188,180.155655 
	C145.823914,136.499664 146.068893,92.840973 145.907974,49.184139 
	C145.889008,44.038784 145.111191,38.758392 143.734940,33.804585 
	C142.825699,30.531792 140.216690,27.731224 138.368698,24.719227 
	C137.952026,24.943819 137.535370,25.168409 137.118698,25.393000 
	C142.010818,55.581081 140.294632,85.300354 131.569916,114.703140 
	C118.090683,112.402069 105.263977,110.212402 92.429771,108.021446 
	C90.230751,125.571533 86.376572,130.985184 76.185402,131.000839 
	C64.503532,131.018784 60.923130,126.378601 58.560074,107.964409 
	C45.546040,110.184265 32.541580,112.402496 18.078485,114.869530 
	C15.773566,100.486206 12.317427,85.938713 11.397161,71.232529 
	C10.447460,56.055969 11.964600,40.725040 12.433225,24.391199 
	C10.699509,27.261845 8.739241,29.345839 8.117917,31.772636 
	C6.725155,37.212555 5.358435,42.797272 5.135002,48.369301 
	C4.688062,59.515263 4.371780,70.740814 5.208519,81.842537 
	C6.010259,92.479904 8.316534,103.005951 10.007075,113.573639 
	C11.541915,123.168030 13.221455,132.739975 14.676880,142.346115 
	C15.602810,148.457443 16.490480,154.595566 16.915520,160.754776 
	C17.223026,165.210815 15.639844,166.081085 11.653327,163.819992 
	C9.219925,162.439804 7.181351,160.363464 4.999976,158.627289 
	C4.999976,166.607620 5.120711,174.618347 4.967993,182.623856 
	C4.795190,191.682266 6.772131,200.114670 9.759939,208.738342 
	C18.092394,232.788177 47.798592,257.048523 76.616898,255.260147 
	C94.562317,254.146530 109.564636,248.081116 122.991341,235.513214 
M59.000019,46.500000 
	C59.000019,31.713900 59.000019,16.927801 59.000019,2.138915 
	C57.613396,2.138915 56.473274,1.811426 55.659111,2.188226 
	C44.164028,7.508215 32.611053,12.723782 21.335762,18.481012 
	C19.010424,19.668344 16.668406,22.769951 16.222029,25.319761 
	C14.957803,32.541332 14.323525,39.922096 14.068186,47.261974 
	C13.371413,67.291046 15.072183,87.089447 19.832756,106.649323 
	C20.972080,111.330490 23.122276,111.351410 26.678759,110.721832 
	C35.911083,109.087517 45.139610,107.397675 54.420124,106.087502 
	C57.815178,105.608208 59.118565,104.555939 59.081837,100.928360 
	C58.901531,83.120461 59.000015,65.309731 59.000019,46.500000 
M91.999985,8.631083 
	C91.999985,37.259792 91.984482,65.888527 92.020248,94.517189 
	C92.024559,97.968361 91.346062,101.937378 92.822884,104.674080 
	C93.696220,106.292450 98.175789,105.988983 101.042046,106.503143 
	C109.465790,108.014229 117.897018,109.483803 126.318001,111.010017 
	C128.851242,111.469147 130.577271,110.432083 130.927444,108.025017 
	C133.028900,93.579582 135.900055,79.165123 136.719421,64.639091 
	C137.409973,52.396557 135.807220,40.005589 134.878677,27.706060 
	C134.680695,25.083454 133.746887,21.308590 131.891617,20.227377 
	C123.732513,15.472406 115.177948,11.369858 106.631027,7.317007 
	C102.061676,5.150276 97.216812,3.564577 91.999985,1.522372 
	C91.999985,4.045223 91.999985,5.860616 91.999985,8.631083 
M89.000015,38.500000 
	C89.000015,28.188570 89.000015,17.877140 89.000015,7.297848 
	C84.998436,6.573417 81.154243,5.877479 77.000793,5.125554 
	C77.000793,13.884770 76.919022,22.365253 77.103691,30.839930 
	C77.126938,31.906191 78.407616,33.682381 79.353271,33.867935 
	C84.358627,34.850079 85.943634,38.199799 85.977501,42.676590 
	C86.050583,52.335842 86.134544,61.999557 85.881592,71.652733 
	C85.833443,73.490334 84.668419,75.729950 83.298286,77.017441 
	C79.767387,80.335381 70.337662,79.867485 66.988113,76.357437 
	C65.976448,75.297287 65.107269,73.597221 65.085831,72.176514 
	C64.927536,61.686348 64.824921,51.187149 65.157204,40.705132 
	C65.219131,38.751842 66.956581,35.640434 68.545532,35.168919 
	C73.769516,33.618729 74.441750,30.378082 74.091446,25.695152 
	C73.695000,20.395260 74.024208,15.042710 73.983551,9.713472 
	C73.972954,8.323172 73.760384,6.934411 73.640854,5.548217 
	C71.144341,5.729781 69.247696,6.170906 67.436813,5.939827 
	C62.882946,5.358730 61.808907,7.334864 61.908607,11.612469 
	C62.176308,23.098068 61.999981,34.594017 61.999981,46.085857 
	C61.999981,68.736443 62.062462,91.387283 61.967087,114.037468 
	C61.932335,122.291473 68.584137,130.988205 79.756744,127.996384 
	C84.925705,126.612236 88.987854,120.562691 88.992714,113.947128 
	C89.010925,89.131432 89.000015,64.315712 89.000015,38.500000 
M82.999840,41.947250 
	C82.921501,36.192459 78.402016,36.230499 74.674400,36.132385 
	C71.363441,36.045246 68.055443,37.254398 68.023705,41.575439 
	C67.950409,51.555889 67.802994,61.545246 68.206512,71.509895 
	C68.269417,73.063255 70.904335,74.770866 72.675766,75.892517 
	C73.625771,76.494064 75.280167,75.891708 76.598610,76.019394 
	C81.208466,76.465843 83.208679,74.656296 83.072372,69.814163 
	C82.819702,60.838383 82.999992,51.850422 82.999840,41.947250 
M9.967472,128.850784 
	C8.151303,128.081970 6.335135,127.313171 3.786403,126.234268 
	C4.244607,134.919449 4.403985,142.171021 5.072382,149.375397 
	C5.694225,156.077972 9.347150,160.101303 14.784929,160.796280 
	C13.184668,150.414841 11.591002,140.076218 9.967472,128.850784 
z"/>
<path fill="#000000" opacity="1.000000" stroke="none" 
	d="
M1.000000,91.463181 
	C1.711017,90.666565 2.422032,90.333122 3.746335,89.712074 
	C5.292727,100.909309 6.799464,111.819412 8.339761,122.972519 
	C1.301961,122.262047 2.984621,116.845253 2.124243,113.241081 
	C1.447502,110.406181 1.874977,107.307686 1.405980,104.163139 
	C1.000000,99.975456 1.000000,95.950912 1.000000,91.463181 
z"/>
<path fill="#000000" opacity="1.000000" stroke="none" 
	d="
M122.737045,235.761963 
	C109.564636,248.081116 94.562317,254.146530 76.616898,255.260147 
	C47.798592,257.048523 18.092394,232.788177 9.759939,208.738342 
	C6.772131,200.114670 4.795190,191.682266 4.967993,182.623856 
	C5.120711,174.618347 4.999976,166.607620 4.999976,158.627289 
	C7.181351,160.363464 9.219925,162.439804 11.653327,163.819992 
	C15.639844,166.081085 17.223026,165.210815 16.915520,160.754776 
	C16.490480,154.595566 15.602810,148.457443 14.676880,142.346115 
	C13.221455,132.739975 11.541915,123.168030 10.007075,113.573639 
	C8.316534,103.005951 6.010259,92.479904 5.208519,81.842537 
	C4.371780,70.740814 4.688062,59.515263 5.135002,48.369301 
	C5.358435,42.797272 6.725155,37.212555 8.117917,31.772636 
	C8.739241,29.345839 10.699509,27.261845 12.433225,24.391199 
	C11.964600,40.725040 10.447460,56.055969 11.397161,71.232529 
	C12.317427,85.938713 15.773566,100.486206 18.078485,114.869530 
	C32.541580,112.402496 45.546040,110.184265 58.560074,107.964409 
	C60.923130,126.378601 64.503532,131.018784 76.185402,131.000839 
	C86.376572,130.985184 90.230751,125.571533 92.429771,108.021446 
	C105.263977,110.212402 118.090683,112.402069 131.569916,114.703140 
	C140.294632,85.300354 142.010818,55.581081 137.118698,25.393000 
	C137.535370,25.168409 137.952026,24.943819 138.368698,24.719227 
	C140.216690,27.731224 142.825699,30.531792 143.734940,33.804585 
	C145.111191,38.758392 145.889008,44.038784 145.907974,49.184139 
	C146.068893,92.840973 145.823914,136.499664 146.074188,180.155655 
	C146.199570,202.027267 138.884537,220.478912 122.737045,235.761963 
z"/>
<path fill="#000000" opacity="1.000000" stroke="none" 
	d="
M59.000019,47.000000 
	C59.000015,65.309731 58.901531,83.120461 59.081837,100.928360 
	C59.118565,104.555939 57.815178,105.608208 54.420124,106.087502 
	C45.139610,107.397675 35.911083,109.087517 26.678759,110.721832 
	C23.122276,111.351410 20.972080,111.330490 19.832756,106.649323 
	C15.072183,87.089447 13.371413,67.291046 14.068186,47.261974 
	C14.323525,39.922096 14.957803,32.541332 16.222029,25.319761 
	C16.668406,22.769951 19.010424,19.668344 21.335762,18.481012 
	C32.611053,12.723782 44.164028,7.508215 55.659111,2.188226 
	C56.473274,1.811426 57.613396,2.138915 59.000019,2.138915 
	C59.000019,16.927801 59.000019,31.713900 59.000019,47.000000 
z"/>
<path fill="#000000" opacity="1.000000" stroke="none" 
	d="
M91.999985,8.153545 
	C91.999985,5.860616 91.999985,4.045223 91.999985,1.522372 
	C97.216812,3.564577 102.061676,5.150276 106.631027,7.317007 
	C115.177948,11.369858 123.732513,15.472406 131.891617,20.227377 
	C133.746887,21.308590 134.680695,25.083454 134.878677,27.706060 
	C135.807220,40.005589 137.409973,52.396557 136.719421,64.639091 
	C135.900055,79.165123 133.028900,93.579582 130.927444,108.025017 
	C130.577271,110.432083 128.851242,111.469147 126.318001,111.010017 
	C117.897018,109.483803 109.465790,108.014229 101.042046,106.503143 
	C98.175789,105.988983 93.696220,106.292450 92.822884,104.674080 
	C91.346062,101.937378 92.024559,97.968361 92.020248,94.517189 
	C91.984482,65.888527 91.999985,37.259792 91.999985,8.153545 
z"/>
<path fill="#000000" opacity="1.000000" stroke="none" 
	d="
M89.000015,39.000000 
	C89.000015,64.315712 89.010925,89.131432 88.992714,113.947128 
	C88.987854,120.562691 84.925705,126.612236 79.756744,127.996384 
	C68.584137,130.988205 61.932335,122.291473 61.967087,114.037468 
	C62.062462,91.387283 61.999981,68.736443 61.999981,46.085857 
	C61.999981,34.594017 62.176308,23.098068 61.908607,11.612469 
	C61.808907,7.334864 62.882946,5.358730 67.436813,5.939827 
	C69.247696,6.170906 71.144341,5.729781 73.640854,5.548217 
	C73.760384,6.934411 73.972954,8.323172 73.983551,9.713472 
	C74.024208,15.042710 73.695000,20.395260 74.091446,25.695152 
	C74.441750,30.378082 73.769516,33.618729 68.545532,35.168919 
	C66.956581,35.640434 65.219131,38.751842 65.157204,40.705132 
	C64.824921,51.187149 64.927536,61.686348 65.085831,72.176514 
	C65.107269,73.597221 65.976448,75.297287 66.988113,76.357437 
	C70.337662,79.867485 79.767387,80.335381 83.298286,77.017441 
	C84.668419,75.729950 85.833443,73.490334 85.881592,71.652733 
	C86.134544,61.999557 86.050583,52.335842 85.977501,42.676590 
	C85.943634,38.199799 84.358627,34.850079 79.353271,33.867935 
	C78.407616,33.682381 77.126938,31.906191 77.103691,30.839930 
	C76.919022,22.365253 77.000793,13.884770 77.000793,5.125554 
	C81.154243,5.877479 84.998436,6.573417 89.000015,7.297848 
	C89.000015,17.877140 89.000015,28.188570 89.000015,39.000000 
M66.000015,100.523964 
	C66.000038,103.017685 65.949020,105.512695 66.011780,108.004837 
	C66.111198,111.952393 68.159927,113.983238 72.138199,113.998589 
	C74.133148,114.006287 76.128288,114.014771 78.123116,113.996994 
	C82.706627,113.956139 84.856163,111.880432 84.977661,107.138283 
	C85.084076,102.984802 84.827721,98.817093 85.052605,94.673080 
	C85.244232,91.141907 83.668732,88.848999 80.517342,88.080170 
	C74.361710,86.578400 67.324005,88.461212 66.163681,91.608047 
	C65.890007,92.350266 66.014488,93.249588 66.005936,94.077156 
	C65.987038,95.905693 66.000031,97.734558 66.000015,100.523964 
z"/>
<path fill="#000000" opacity="1.000000" stroke="none" 
	d="
M82.999908,42.407391 
	C82.999992,51.850422 82.819702,60.838383 83.072372,69.814163 
	C83.208679,74.656296 81.208466,76.465843 76.598610,76.019394 
	C75.280167,75.891708 73.625771,76.494064 72.675766,75.892517 
	C70.904335,74.770866 68.269417,73.063255 68.206512,71.509895 
	C67.802994,61.545246 67.950409,51.555889 68.023705,41.575439 
	C68.055443,37.254398 71.363441,36.045246 74.674400,36.132385 
	C78.402016,36.230499 82.921501,36.192459 82.999908,42.407391 
z"/>
<path fill="#000000" opacity="1.000000" stroke="none" 
	d="
M9.982405,129.294189 
	C11.591002,140.076218 13.184668,150.414841 14.784929,160.796280 
	C9.347150,160.101303 5.694225,156.077972 5.072382,149.375397 
	C4.403985,142.171021 4.244607,134.919449 3.786403,126.234268 
	C6.335135,127.313171 8.151303,128.081970 9.982405,129.294189 
z"/>
<path fill="#FFFFFF" opacity="0.000000" stroke="none" 
	d="
M66.000015,100.043625 
	C66.000031,97.734558 65.987038,95.905693 66.005936,94.077156 
	C66.014488,93.249588 65.890007,92.350266 66.163681,91.608047 
	C67.324005,88.461212 74.361710,86.578400 80.517342,88.080170 
	C83.668732,88.848999 85.244232,91.141907 85.052605,94.673080 
	C84.827721,98.817093 85.084076,102.984802 84.977661,107.138283 
	C84.856163,111.880432 82.706627,113.956139 78.123116,113.996994 
	C76.128288,114.014771 74.133148,114.006287 72.138199,113.998589 
	C68.159927,113.983238 66.111198,111.952393 66.011780,108.004837 
	C65.949020,105.512695 66.000038,103.017685 66.000015,100.043625 
M79.746994,92.011726 
	C79.087502,91.976166 78.417923,92.001976 77.770065,91.895569 
	C71.029480,90.788399 69.136955,92.151405 69.060753,98.706833 
	C69.029030,101.436104 69.994392,104.182426 69.917351,106.904327 
	C69.820099,110.340492 71.332520,111.198250 74.418159,111.047379 
	C77.446198,110.899307 80.824677,111.319016 80.939293,107.017509 
	C81.071129,102.069809 80.750504,97.110046 79.746994,92.011726 
z"/>
<path fill="#000000" opacity="1.000000" stroke="none" 
	d="
M80.186691,92.083626 
	C80.750504,97.110046 81.071129,102.069809 80.939293,107.017509 
	C80.824677,111.319016 77.446198,110.899307 74.418159,111.047379 
	C71.332520,111.198250 69.820099,110.340492 69.917351,106.904327 
	C69.994392,104.182426 69.029030,101.436104 69.060753,98.706833 
	C69.136955,92.151405 71.029480,90.788399 77.770065,91.895569 
	C78.417923,92.001976 79.087502,91.976166 80.186691,92.083626 
z"/>
</svg>