<?xml version="1.0" encoding="UTF-8"?>
<!DOCTYPE svg PUBLIC "-//W3C//DTD SVG 1.1//EN" "http://www.w3.org/Graphics/SVG/1.1/DTD/svg11.dtd">
<svg xmlns="http://www.w3.org/2000/svg" version="1.1" width="292px" height="565px" style="shape-rendering:geometricPrecision; text-rendering:geometricPrecision; image-rendering:optimizeQuality; fill-rule:evenodd; clip-rule:evenodd" xmlns:xlink="http://www.w3.org/1999/xlink">
<g><path style="opacity:1" fill="#000000" d="M 237.5,-0.5 C 240.5,-0.5 243.5,-0.5 246.5,-0.5C 270.5,3.8323 285.5,17.8323 291.5,41.5C 291.5,48.1667 291.5,54.8333 291.5,61.5C 285.674,85.1557 270.674,98.989 246.5,103C 224.833,103.333 203.167,103.667 181.5,104C 167.335,107.499 157.502,115.999 152,129.5C 150.597,140.102 150.097,150.769 150.5,161.5C 211.692,167.001 254.192,198.001 278,254.5C 283.529,269.342 286.362,284.676 286.5,300.5C 240.833,300.5 195.167,300.5 149.5,300.5C 149.5,254.5 149.5,208.5 149.5,162.5C 145.5,162.5 141.5,162.5 137.5,162.5C 137.5,208.5 137.5,254.5 137.5,300.5C 91.5,300.5 45.5,300.5 -0.5,300.5C -0.5,298.5 -0.5,296.5 -0.5,294.5C 6.33016,236.003 36.6635,194.836 90.5,171C 105.321,165.294 120.654,162.128 136.5,161.5C 133.52,142.224 137.353,124.557 148,108.5C 157.636,97.4318 169.803,91.2651 184.5,90C 206.884,89.9573 229.217,89.2906 251.5,88C 268.156,81.5306 277.156,69.3639 278.5,51.5C 275.25,26.4215 260.917,13.2549 235.5,12C 231.276,7.05905 231.943,2.89238 237.5,-0.5 Z"/></g>
<g><path style="opacity:1" fill="#000000" d="M -0.5,312.5 C 95.5,312.5 191.5,312.5 287.5,312.5C 287.667,348.502 287.5,384.502 287,420.5C 282.859,487.617 249.359,532.784 186.5,556C 118.096,572.982 63.2625,553.148 22,496.5C 9.36683,475.766 1.86683,453.433 -0.5,429.5C -0.5,390.5 -0.5,351.5 -0.5,312.5 Z"/></g>
</svg>
