<svg version="1.1" id="Layer_1" xmlns="http://www.w3.org/2000/svg" xmlns:xlink="http://www.w3.org/1999/xlink" x="0px" y="0px"
	 width="100%" viewBox="0 0 256 198" enable-background="new 0 0 256 198" xml:space="preserve">
<path fill="#FFFFFF" opacity="0.000000" stroke="none" 
	d="
M162.000000,199.000000 
	C108.000000,199.000000 54.500008,199.000000 1.000007,199.000000 
	C1.000005,133.000000 1.000005,67.000015 1.000002,1.000016 
	C86.333321,1.000011 171.666641,1.000011 257.000000,1.000005 
	C257.000000,66.999985 257.000000,132.999969 257.000000,198.999969 
	C225.500000,199.000000 194.000000,199.000000 162.000000,199.000000 
M194.500000,1.999992 
	C137.346603,1.999992 80.192543,2.140172 23.040432,1.869333 
	C12.885692,1.821210 3.056649,10.143821 3.030946,21.391788 
	C2.949079,57.216614 2.936792,93.041931 3.041191,128.866638 
	C3.070801,139.027603 12.739820,148.332413 22.702974,148.263687 
	C94.182976,147.770615 165.668518,147.867554 237.150604,148.174133 
	C245.713043,148.210861 255.275757,138.548523 255.180862,130.201782 
	C254.762329,93.381767 254.764008,56.551670 255.172333,19.731419 
	C255.269714,10.952085 245.457733,1.564147 236.985596,1.866773 
	C223.173096,2.360158 209.330124,1.999993 194.500000,1.999992 
M172.499725,198.000000 
	C177.992935,198.000000 183.486237,198.019470 188.979324,197.994720 
	C194.901520,197.968033 197.614044,195.441666 197.981781,189.559174 
	C198.095810,187.735229 198.001083,185.898132 197.999771,184.067062 
	C197.993515,175.298538 195.741058,173.006729 187.098572,173.001434 
	C177.166489,172.995331 167.234421,173.000015 156.999298,173.000015 
	C156.999298,168.728485 156.881088,164.928757 157.037567,161.140396 
	C157.157791,158.230179 156.254059,156.927841 153.094254,156.950211 
	C137.447662,157.061066 121.799232,157.075211 106.153000,156.941833 
	C102.762062,156.912933 101.793068,158.246246 101.954498,161.393021 
	C102.147652,165.158051 102.000084,168.940552 102.000084,173.000626 
	C91.059509,173.000626 80.601639,172.833511 70.152733,173.067200 
	C64.453270,173.194672 59.900917,175.660034 60.956234,182.193954 
	C61.244457,183.978470 60.999435,185.849045 61.000092,187.680115 
	C61.002922,195.560837 63.390976,197.998962 71.123657,197.999313 
	C104.582390,198.000900 138.041122,198.000000 172.499725,198.000000 
z"/>
<path fill="#000000" opacity="1.000000" stroke="none" 
	d="
M195.000000,1.999992 
	C209.330124,1.999993 223.173096,2.360158 236.985596,1.866773 
	C245.457733,1.564147 255.269714,10.952085 255.172333,19.731419 
	C254.764008,56.551670 254.762329,93.381767 255.180862,130.201782 
	C255.275757,138.548523 245.713043,148.210861 237.150604,148.174133 
	C165.668518,147.867554 94.182976,147.770615 22.702974,148.263687 
	C12.739820,148.332413 3.070801,139.027603 3.041191,128.866638 
	C2.936792,93.041931 2.949079,57.216614 3.030946,21.391788 
	C3.056649,10.143821 12.885692,1.821210 23.040432,1.869333 
	C80.192543,2.140172 137.346603,1.999992 195.000000,1.999992 
M94.476982,41.014683 
	C76.604675,59.380020 77.593506,88.962814 95.584396,106.699661 
	C106.613739,117.573250 120.384117,122.878326 136.762482,120.140205 
	C159.788727,116.290718 176.488953,97.440437 176.974304,74.530762 
	C177.202927,63.740486 174.248642,54.018482 167.779160,45.114037 
	C160.081512,34.519180 149.612442,28.083464 137.253128,26.280085 
	C121.242859,23.943987 106.525948,28.191778 94.476982,41.014683 
M228.999008,37.104370 
	C228.994156,35.773952 229.230225,34.388268 228.940048,33.123299 
	C228.008057,29.060390 224.904068,26.938896 221.163452,27.188000 
	C217.551651,27.428518 214.388458,29.473068 214.010773,33.809616 
	C213.664551,37.784893 215.021255,40.906029 218.919250,42.413403 
	C223.701935,44.262886 226.600342,41.608067 228.999008,37.104370 
z"/>
<path fill="#000000" opacity="1.000000" stroke="none" 
	d="
M171.999786,198.000000 
	C138.041122,198.000000 104.582390,198.000900 71.123657,197.999313 
	C63.390976,197.998962 61.002922,195.560837 61.000092,187.680115 
	C60.999435,185.849045 61.244457,183.978470 60.956234,182.193954 
	C59.900917,175.660034 64.453270,173.194672 70.152733,173.067200 
	C80.601639,172.833511 91.059509,173.000626 102.000084,173.000626 
	C102.000084,168.940552 102.147652,165.158051 101.954498,161.393021 
	C101.793068,158.246246 102.762062,156.912933 106.153000,156.941833 
	C121.799232,157.075211 137.447662,157.061066 153.094254,156.950211 
	C156.254059,156.927841 157.157791,158.230179 157.037567,161.140396 
	C156.881088,164.928757 156.999298,168.728485 156.999298,173.000015 
	C167.234421,173.000015 177.166489,172.995331 187.098572,173.001434 
	C195.741058,173.006729 197.993515,175.298538 197.999771,184.067062 
	C198.001083,185.898132 198.095810,187.735229 197.981781,189.559174 
	C197.614044,195.441666 194.901520,197.968033 188.979324,197.994720 
	C183.486237,198.019470 177.992935,198.000000 171.999786,198.000000 
z"/>
<path fill="#FFFFFF" opacity="0.000000" stroke="none" 
	d="
M94.734711,40.763290 
	C106.525948,28.191778 121.242859,23.943987 137.253128,26.280085 
	C149.612442,28.083464 160.081512,34.519180 167.779160,45.114037 
	C174.248642,54.018482 177.202927,63.740486 176.974304,74.530762 
	C176.488953,97.440437 159.788727,116.290718 136.762482,120.140205 
	C120.384117,122.878326 106.613739,117.573250 95.584396,106.699661 
	C77.593506,88.962814 76.604675,59.380020 94.734711,40.763290 
M149.435410,42.958492 
	C141.022644,37.463585 131.683228,35.240368 122.032234,37.612206 
	C106.229980,41.495789 95.992470,51.642235 93.175819,67.898605 
	C91.136429,79.669067 95.103493,90.336052 103.417885,98.586563 
	C111.132538,106.241951 120.966133,109.978867 132.163483,109.001747 
	C144.668152,107.910545 154.333572,101.940430 160.819397,91.358810 
	C165.211838,84.192551 166.517761,76.379425 165.192780,67.719414 
	C163.576309,57.154232 158.441147,49.426289 149.435410,42.958492 
z"/>
<path fill="#FFFFFF" opacity="0.000000" stroke="none" 
	d="
M228.992249,37.517384 
	C226.600342,41.608067 223.701935,44.262886 218.919250,42.413403 
	C215.021255,40.906029 213.664551,37.784893 214.010773,33.809616 
	C214.388458,29.473068 217.551651,27.428518 221.163452,27.188000 
	C224.904068,26.938896 228.008057,29.060390 228.940048,33.123299 
	C229.230225,34.388268 228.994156,35.773952 228.992249,37.517384 
z"/>
<path fill="#000000" opacity="1.000000" stroke="none" 
	d="
M149.709229,43.213131 
	C158.441147,49.426289 163.576309,57.154232 165.192780,67.719414 
	C166.517761,76.379425 165.211838,84.192551 160.819397,91.358810 
	C154.333572,101.940430 144.668152,107.910545 132.163483,109.001747 
	C120.966133,109.978867 111.132538,106.241951 103.417885,98.586563 
	C95.103493,90.336052 91.136429,79.669067 93.175819,67.898605 
	C95.992470,51.642235 106.229980,41.495789 122.032234,37.612206 
	C131.683228,35.240368 141.022644,37.463585 149.709229,43.213131 
M122.679482,51.841949 
	C120.927017,52.592548 119.038879,53.127201 117.444290,54.129070 
	C107.682549,60.262306 104.201080,71.636246 108.518707,82.080917 
	C111.955688,90.395226 123.335640,98.222733 134.898788,94.981300 
	C144.105164,92.400528 150.237930,86.483345 151.785126,77.115273 
	C153.203033,68.530121 150.418091,61.266834 143.186432,55.398563 
	C136.951843,50.339378 130.223129,51.026562 122.679482,51.841949 
z"/>
<path fill="#FFFFFF" opacity="0.000000" stroke="none" 
	d="
M122.972847,51.527824 
	C130.223129,51.026562 136.951843,50.339378 143.186432,55.398563 
	C150.418091,61.266834 153.203033,68.530121 151.785126,77.115273 
	C150.237930,86.483345 144.105164,92.400528 134.898788,94.981300 
	C123.335640,98.222733 111.955688,90.395226 108.518707,82.080917 
	C104.201080,71.636246 107.682549,60.262306 117.444290,54.129070 
	C119.038879,53.127201 120.927017,52.592548 122.972847,51.527824 
z"/>
</svg>