<svg version="1.1" id="Layer_1" xmlns="http://www.w3.org/2000/svg" xmlns:xlink="http://www.w3.org/1999/xlink" x="0px" y="0px"
	 width="100%" viewBox="0 0 256 249" enable-background="new 0 0 256 249" xml:space="preserve">
<path fill="#FFFFFF" opacity="1.000000" stroke="none" 
	d="
M257.000000,120.000000 
	C257.000000,163.666672 257.000000,206.833328 257.000000,250.000000 
	C171.666672,250.000000 86.333336,250.000000 1.000000,250.000000 
	C1.000000,167.000000 1.000000,84.000000 1.000000,1.000000 
	C86.333336,1.000000 171.666672,1.000000 257.000000,1.000000 
	C257.000000,40.500000 257.000000,80.000000 257.000000,120.000000 
M124.500000,4.999956 
	C103.840614,4.999956 83.181229,4.994813 62.521839,5.002863 
	C55.679455,5.005529 53.005638,7.651832 53.003441,14.437724 
	C52.994919,40.761902 52.999695,67.086075 53.000141,93.410255 
	C53.000267,100.764885 56.295429,103.995491 63.818184,103.998116 
	C77.430305,104.002853 91.042427,103.999451 104.795166,103.999451 
	C104.795166,108.190430 104.795166,111.941902 104.795166,115.342987 
	C100.576141,115.883385 96.142967,115.455940 92.744827,117.129761 
	C88.142090,119.396919 88.511002,124.358002 89.215973,128.156815 
	C115.654549,128.156815 141.790710,128.156815 169.016861,128.156815 
	C167.772720,124.216591 167.416550,121.004189 165.852753,118.566498 
	C162.514420,113.362617 156.541718,117.514717 152.300049,115.528389 
	C152.300049,111.658600 152.300049,107.918594 152.300049,103.999435 
	C166.243988,103.999435 179.888062,104.070663 193.530823,103.967117 
	C199.661514,103.920593 203.222839,100.213234 203.149078,94.406952 
	C202.810440,67.753860 203.005020,41.094059 202.996552,14.436666 
	C202.994385,7.652920 200.318802,5.005254 193.476349,5.002906 
	C170.817566,4.995132 148.158783,4.999962 124.500000,4.999956 
M34.132347,247.997330 
	C37.893425,247.823715 36.971512,244.965790 36.974258,242.817764 
	C37.011524,213.660904 36.999054,184.503983 36.998859,155.347076 
	C36.998848,153.597534 36.998856,151.847977 36.998856,150.000031 
	C87.327309,150.000031 136.970306,149.990097 186.613251,150.034454 
	C188.710785,150.036331 192.055786,148.971954 191.850891,152.650345 
	C191.681824,155.685623 194.464111,160.207764 188.442276,161.405716 
	C187.082108,161.676331 185.305069,163.978775 185.164215,165.481308 
	C184.732468,170.087006 185.090759,174.760696 184.975616,179.403824 
	C184.856873,184.191757 188.003403,186.801239 191.746765,187.837021 
	C197.259445,189.362381 201.807877,186.874954 202.914902,181.919235 
	C203.865524,177.663666 203.663544,173.153275 204.005630,168.758240 
	C204.272827,165.325241 203.102493,162.796082 199.847870,161.252045 
	C199.047577,160.872391 198.145065,159.769211 198.083939,158.940109 
	C197.869171,156.027054 198.000549,153.088455 198.000549,150.000031 
	C203.923096,150.000031 209.237274,149.999329 214.551453,150.000229 
	C221.091965,150.001343 221.056091,149.996155 220.045319,156.301559 
	C219.836884,157.601791 220.001266,158.962494 220.001205,160.295334 
	C220.000305,184.620529 220.000504,208.945709 220.000519,233.270905 
	C220.000519,248.234894 220.000595,248.237076 234.813019,247.948578 
	C235.095398,247.943069 235.373001,247.692505 236.041870,247.366852 
	C236.041870,215.157791 236.041870,182.757980 236.041870,149.962494 
	C242.164490,149.962494 247.911880,149.962494 253.778748,149.962494 
	C253.778748,144.824158 253.778748,140.086975 253.778748,135.195770 
	C170.172302,135.195770 86.786636,135.195770 3.200498,135.195770 
	C3.200498,140.128601 3.200498,144.865814 3.200498,150.000031 
	C7.839365,150.000031 12.316178,150.270050 16.744541,149.922592 
	C21.004679,149.588303 22.110060,151.152359 22.086750,155.299850 
	C21.923035,184.429932 21.999966,213.561356 21.999969,242.692352 
	C21.999969,244.440109 21.999968,246.187866 21.999968,247.999222 
	C26.205194,247.999222 29.702009,247.999222 34.132347,247.997330 
M125.500000,160.999985 
	C113.516846,160.999985 101.532829,161.080963 89.551010,160.954712 
	C85.526833,160.912308 83.839882,162.507309 83.959496,166.540771 
	C84.122238,172.028229 84.122292,177.527908 83.952370,183.014923 
	C83.856918,186.096909 85.069275,187.053177 88.058884,187.044571 
	C114.687904,186.967819 141.317337,186.967575 167.946350,187.044724 
	C170.942123,187.053391 172.145798,186.085358 172.047089,183.009155 
	C171.876373,177.688797 171.818130,172.350876 172.055588,167.035629 
	C172.257629,162.513596 170.441071,160.872620 165.943665,160.935074 
	C152.798004,161.117676 139.648193,160.999985 125.500000,160.999985 
M201.604019,128.999466 
	C207.497604,128.667343 213.404251,127.918579 219.281647,128.102783 
	C227.665482,128.365540 227.886520,128.627197 226.806976,120.458458 
	C226.588516,118.805267 223.958588,116.275421 222.345001,116.200363 
	C213.395294,115.784035 204.411606,115.852333 195.450851,116.125732 
	C193.644150,116.180862 190.631210,117.560249 190.357803,118.807617 
	C189.718994,121.722336 190.382523,124.929405 190.602463,128.012100 
	C190.619827,128.255707 191.277679,128.624832 191.653183,128.644608 
	C194.651917,128.802551 197.654358,128.890244 201.604019,128.999466 
z"/>
<path fill="#000000" opacity="1.000000" stroke="none" 
	d="
M125.000000,4.999956 
	C148.158783,4.999962 170.817566,4.995132 193.476349,5.002906 
	C200.318802,5.005254 202.994385,7.652920 202.996552,14.436666 
	C203.005020,41.094059 202.810440,67.753860 203.149078,94.406952 
	C203.222839,100.213234 199.661514,103.920593 193.530823,103.967117 
	C179.888062,104.070663 166.243988,103.999435 152.300049,103.999435 
	C152.300049,107.918594 152.300049,111.658600 152.300049,115.528389 
	C156.541718,117.514717 162.514420,113.362617 165.852753,118.566498 
	C167.416550,121.004189 167.772720,124.216591 169.016861,128.156815 
	C141.790710,128.156815 115.654549,128.156815 89.215973,128.156815 
	C88.511002,124.358002 88.142090,119.396919 92.744827,117.129761 
	C96.142967,115.455940 100.576141,115.883385 104.795166,115.342987 
	C104.795166,111.941902 104.795166,108.190430 104.795166,103.999451 
	C91.042427,103.999451 77.430305,104.002853 63.818184,103.998116 
	C56.295429,103.995491 53.000267,100.764885 53.000141,93.410255 
	C52.999695,67.086075 52.994919,40.761902 53.003441,14.437724 
	C53.005638,7.651832 55.679455,5.005529 62.521839,5.002863 
	C83.181229,4.994813 103.840614,4.999956 125.000000,4.999956 
M188.999985,33.504272 
	C188.999985,28.737221 188.999985,23.970171 188.999985,19.280685 
	C148.028183,19.280685 107.629387,19.280685 67.000038,19.280685 
	C67.000038,41.198425 67.117302,62.837421 66.902573,84.473122 
	C66.858856,88.878990 68.118530,90.114357 72.524139,90.094864 
	C110.014748,89.928978 147.506409,90.002365 184.997742,89.989571 
	C186.267471,89.989136 187.537140,89.835640 188.999985,89.740997 
	C188.999985,71.117805 188.999985,52.810555 188.999985,33.504272 
M128.489349,104.000031 
	C125.399132,104.000031 122.308907,104.000031 118.698463,104.000031 
	C119.054665,108.089409 118.888672,111.785057 120.017845,115.029999 
	C120.284943,115.797554 124.904022,115.054558 127.521004,114.999550 
	C130.587982,114.935081 135.364746,115.994667 136.330399,114.535439 
	C137.869858,112.209106 136.885513,108.204384 136.922821,104.908882 
	C136.925598,104.662315 136.563766,104.411621 136.245560,104.000031 
	C134.064224,104.000031 131.763031,104.000031 128.489349,104.000031 
z"/>
<path fill="#000000" opacity="1.000000" stroke="none" 
	d="
M33.665585,247.998276 
	C29.702009,247.999222 26.205194,247.999222 21.999968,247.999222 
	C21.999968,246.187866 21.999969,244.440109 21.999969,242.692352 
	C21.999966,213.561356 21.923035,184.429932 22.086750,155.299850 
	C22.110060,151.152359 21.004679,149.588303 16.744541,149.922592 
	C12.316178,150.270050 7.839365,150.000031 3.200498,150.000031 
	C3.200498,144.865814 3.200498,140.128601 3.200498,135.195770 
	C86.786636,135.195770 170.172302,135.195770 253.778748,135.195770 
	C253.778748,140.086975 253.778748,144.824158 253.778748,149.962494 
	C247.911880,149.962494 242.164490,149.962494 236.041870,149.962494 
	C236.041870,182.757980 236.041870,215.157791 236.041870,247.366852 
	C235.373001,247.692505 235.095398,247.943069 234.813019,247.948578 
	C220.000595,248.237076 220.000519,248.234894 220.000519,233.270905 
	C220.000504,208.945709 220.000305,184.620529 220.001205,160.295334 
	C220.001266,158.962494 219.836884,157.601791 220.045319,156.301559 
	C221.056091,149.996155 221.091965,150.001343 214.551453,150.000229 
	C209.237274,149.999329 203.923096,150.000031 198.000549,150.000031 
	C198.000549,153.088455 197.869171,156.027054 198.083939,158.940109 
	C198.145065,159.769211 199.047577,160.872391 199.847870,161.252045 
	C203.102493,162.796082 204.272827,165.325241 204.005630,168.758240 
	C203.663544,173.153275 203.865524,177.663666 202.914902,181.919235 
	C201.807877,186.874954 197.259445,189.362381 191.746765,187.837021 
	C188.003403,186.801239 184.856873,184.191757 184.975616,179.403824 
	C185.090759,174.760696 184.732468,170.087006 185.164215,165.481308 
	C185.305069,163.978775 187.082108,161.676331 188.442276,161.405716 
	C194.464111,160.207764 191.681824,155.685623 191.850891,152.650345 
	C192.055786,148.971954 188.710785,150.036331 186.613251,150.034454 
	C136.970306,149.990097 87.327309,150.000031 36.998856,150.000031 
	C36.998856,151.847977 36.998848,153.597534 36.998859,155.347076 
	C36.999054,184.503983 37.011524,213.660904 36.974258,242.817764 
	C36.971512,244.965790 37.893425,247.823715 33.665585,247.998276 
z"/>
<path fill="#000000" opacity="1.000000" stroke="none" 
	d="
M126.000000,160.999985 
	C139.648193,160.999985 152.798004,161.117676 165.943665,160.935074 
	C170.441071,160.872620 172.257629,162.513596 172.055588,167.035629 
	C171.818130,172.350876 171.876373,177.688797 172.047089,183.009155 
	C172.145798,186.085358 170.942123,187.053391 167.946350,187.044724 
	C141.317337,186.967575 114.687904,186.967819 88.058884,187.044571 
	C85.069275,187.053177 83.856918,186.096909 83.952370,183.014923 
	C84.122292,177.527908 84.122238,172.028229 83.959496,166.540771 
	C83.839882,162.507309 85.526833,160.912308 89.551010,160.954712 
	C101.532829,161.080963 113.516846,160.999985 126.000000,160.999985 
z"/>
<path fill="#000000" opacity="1.000000" stroke="none" 
	d="
M201.129837,128.999466 
	C197.654358,128.890244 194.651917,128.802551 191.653183,128.644608 
	C191.277679,128.624832 190.619827,128.255707 190.602463,128.012100 
	C190.382523,124.929405 189.718994,121.722336 190.357803,118.807617 
	C190.631210,117.560249 193.644150,116.180862 195.450851,116.125732 
	C204.411606,115.852333 213.395294,115.784035 222.345001,116.200363 
	C223.958588,116.275421 226.588516,118.805267 226.806976,120.458458 
	C227.886520,128.627197 227.665482,128.365540 219.281647,128.102783 
	C213.404251,127.918579 207.497604,128.667343 201.129837,128.999466 
z"/>
<path fill="#FFFFFF" opacity="1.000000" stroke="none" 
	d="
M188.999985,34.003788 
	C188.999985,52.810555 188.999985,71.117805 188.999985,89.740997 
	C187.537140,89.835640 186.267471,89.989136 184.997742,89.989571 
	C147.506409,90.002365 110.014748,89.928978 72.524139,90.094864 
	C68.118530,90.114357 66.858856,88.878990 66.902573,84.473122 
	C67.117302,62.837421 67.000038,41.198425 67.000038,19.280685 
	C107.629387,19.280685 148.028183,19.280685 188.999985,19.280685 
	C188.999985,23.970171 188.999985,28.737221 188.999985,34.003788 
z"/>
<path fill="#FFFFFF" opacity="1.000000" stroke="none" 
	d="
M128.975601,104.000031 
	C131.763031,104.000031 134.064224,104.000031 136.245560,104.000031 
	C136.563766,104.411621 136.925598,104.662315 136.922821,104.908882 
	C136.885513,108.204384 137.869858,112.209106 136.330399,114.535439 
	C135.364746,115.994667 130.587982,114.935081 127.521004,114.999550 
	C124.904022,115.054558 120.284943,115.797554 120.017845,115.029999 
	C118.888672,111.785057 119.054665,108.089409 118.698463,104.000031 
	C122.308907,104.000031 125.399132,104.000031 128.975601,104.000031 
z"/>
</svg>